<svg xmlns="http://www.w3.org/2000/svg" width="222" height="236" viewBox="0 0 222 236" fill="none">
  <g clip-path="url(#clip0_2522_29467)">
    <path d="M91.6371 221.236C101.757 219.954 103.837 201.98 103.613 193.153L114.07 192.562C115.959 210.037 106.199 223.907 101.082 228.657C75.8666 247.042 65.7465 215.501 77.4689 212.044C89.1914 208.586 78.987 222.838 91.6371 221.236Z" fill="#111111"/>
    <path d="M103.613 193.153C103.837 201.98 101.757 219.954 91.6371 221.236C78.987 222.838 89.1914 208.586 77.4689 212.044C65.7465 215.501 75.8666 247.042 101.082 228.657C106.199 223.907 115.959 210.037 114.07 192.562" stroke="black" stroke-width="1.30935"/>
    <path d="M102.847 9.34506C96.0388 9.17048 90.1176 12.7639 88.0081 14.5825C82.9889 6.94457 66.4038 -2.87556 65.3126 2.58007C64.2215 8.03571 69.2407 24.8391 70.55 29.2036C71.8594 33.5681 71.8594 36.405 70.55 38.8055C69.2407 41.206 65.9673 51.899 70.55 61.0645C75.1328 70.2299 64.6579 79.8319 54.4014 84.1964C46.1961 87.688 43.1264 93.7983 42.6172 96.417L124.67 108.856L163.95 110.165C165.187 109.001 166.918 104.491 163.95 95.7623C160.241 84.851 146.056 80.7048 138.418 71.1028C130.78 61.5009 132.962 57.3546 134.49 48.8439C135.712 42.0352 133.399 34.0773 132.09 30.9494C141.473 18.0741 141.473 2.36185 141.255 1.9254C141.08 1.57624 140.309 1.63443 139.946 1.70717C128.074 3.62755 121.324 10.6544 119.433 13.9278C116.741 12.473 109.656 9.51964 102.847 9.34506Z" fill="#111111" stroke="black" stroke-width="1.30935"/>
    <path d="M94.793 52.3894C95.6767 51.7918 97.4556 50.2434 97.502 48.8301C97.7017 49.7055 99.0969 51.9007 100.654 52.3894" stroke="white" stroke-width="0.872901" stroke-linecap="round"/>
    <path d="M79.5298 34.0255C80.7274 25.9035 86.2643 22.8076 87.8239 22.8076C88.725 22.8076 91.7621 24.2994 92.1798 30.4453C92.5974 36.5913 90.6284 41.7229 87.3465 43.334C84.0647 44.9451 77.9562 44.6985 79.5298 34.0255Z" fill="white" stroke="black" stroke-width="0.872901"/>
    <path d="M105.713 34.6113C105.508 26.7239 110.43 22.8162 111.965 22.5396C112.852 22.3797 116.094 23.2506 117.552 28.9842C119.01 34.7178 117.946 39.9163 114.991 42.0208C112.036 44.1254 105.982 44.9759 105.713 34.6113Z" fill="white" stroke="black" stroke-width="0.872901"/>
    <path fill-rule="evenodd" clip-rule="evenodd" d="M215.623 112.954C212.361 109.537 207.803 108.452 204.593 108.521C204.111 108.532 203.712 108.149 203.701 107.667C203.691 107.185 204.073 106.786 204.555 106.776C208.111 106.699 213.197 107.884 216.886 111.749C220.613 115.653 222.752 122.119 220.706 132.262C220.61 132.735 220.15 133.041 219.677 132.946C219.205 132.85 218.899 132.39 218.994 131.917C220.963 122.158 218.847 116.332 215.623 112.954Z" fill="black"/>
    <path fill-rule="evenodd" clip-rule="evenodd" d="M217.814 171.375C218.294 171.332 218.718 171.687 218.76 172.167C219.238 177.564 219.285 185.75 217.857 192.773C217.143 196.281 216.049 199.563 214.408 202.066C212.757 204.586 210.508 206.375 207.515 206.718C207.037 206.773 206.604 206.429 206.549 205.95C206.494 205.471 206.837 205.039 207.316 204.984C209.649 204.716 211.49 203.335 212.948 201.109C214.417 198.868 215.454 195.829 216.146 192.425C217.529 185.623 217.49 177.617 217.021 172.321C216.979 171.841 217.334 171.417 217.814 171.375Z" fill="black"/>
    <path fill-rule="evenodd" clip-rule="evenodd" d="M201.971 207.195C202.028 207.674 201.685 208.108 201.207 208.164L196.147 208.761C195.668 208.818 195.234 208.476 195.178 207.997C195.121 207.518 195.464 207.084 195.942 207.028L201.002 206.43C201.481 206.374 201.915 206.716 201.971 207.195Z" fill="black"/>
    <path d="M66.6596 180.755C64.9138 183.199 51.6748 194.139 45.2735 199.304C47.0193 191.375 50.1618 175.518 48.7651 175.518C47.0193 175.518 17.7771 169.407 15.5949 167.007C13.4126 164.606 11.4486 107.868 13.6309 104.813C15.8131 101.757 115.542 83.8629 121.434 85.8269C127.326 87.791 136.055 162.424 127.545 169.407C119.034 176.39 71.897 180.1 66.6596 180.755Z" stroke="black" stroke-width="0.436451"/>
    <path d="M89.7881 191.666C100.917 194.285 146.308 197.207 155.692 198.431C170.671 200.571 176.509 209.785 181.879 215.889C181.985 216.01 182.315 216.107 182.315 215.889C180.57 205.851 183.703 201.336 185.152 200.613C186.715 199.834 199.811 200.112 203.047 196.552C205.229 194.152 221.167 124.632 206.538 116.596C191.044 108.086 103.99 104.123 95.776 106.861C87.5617 109.6 79.0717 189.144 89.7881 191.666Z" fill="#6D2DF0"/>
    <mask id="mask0_2522_29467" style="mask-type:alpha" maskUnits="userSpaceOnUse" x="84" y="104" width="136" height="40">
      <path d="M91.4864 121.993C106.412 122.481 189.989 124.559 202.574 124.788C211.521 119.332 211.303 135.044 212.612 141.373C212.83 145.519 216.54 143.555 216.977 130.243C214.636 128.371 217.435 123.796 219.378 123.661C221.474 123.516 212.637 121.183 216.977 120.519C219.903 120.071 209.513 106.272 189.894 104.774C169.115 103.187 110.532 105.67 99.5166 106.18C88.5005 106.691 77.1147 121.522 91.4864 121.993Z" fill="#6D2DF0"/>
    </mask>
    <g mask="url(#mask0_2522_29467)">
      <path d="M155.161 197.774L155.169 197.775C168.682 199.686 175.007 207.176 179.981 213.069C180.352 213.507 180.715 213.937 181.073 214.356C180.511 210.081 180.863 206.862 181.566 204.557C181.96 203.263 182.466 202.254 182.984 201.51C183.495 200.778 184.044 200.265 184.545 200.018C184.851 199.867 185.335 199.776 185.838 199.705C186.375 199.628 187.048 199.56 187.805 199.49C188.152 199.459 188.517 199.426 188.898 199.393C190.191 199.278 191.658 199.149 193.16 198.967C195.104 198.732 197.074 198.414 198.751 197.941C200.453 197.461 201.74 196.85 202.428 196.102C202.428 196.102 202.427 196.102 202.429 196.1C202.438 196.086 202.484 196.018 202.563 195.85C202.646 195.671 202.746 195.427 202.86 195.115C203.088 194.492 203.362 193.634 203.672 192.568C204.289 190.439 205.038 187.509 205.83 184.027C207.415 177.065 209.168 167.922 210.392 158.605C211.616 149.282 212.306 139.817 211.776 132.198C211.511 128.387 210.943 125.071 210.002 122.477C209.059 119.875 207.771 118.082 206.124 117.186C204.248 116.167 201.234 115.19 197.327 114.275C193.434 113.364 188.703 112.525 183.426 111.764C172.874 110.242 160.174 109.036 147.695 108.181C135.217 107.326 122.971 106.822 113.33 106.703C108.509 106.643 104.345 106.68 101.132 106.816C99.5254 106.884 98.1632 106.977 97.0789 107.094C95.9818 107.213 95.2105 107.352 94.7618 107.501C94.4442 107.605 94.0265 107.937 93.538 108.631C93.0608 109.309 92.5701 110.256 92.0758 111.454C91.0885 113.847 90.1247 117.147 89.2273 121.072C87.4341 128.915 85.9263 139.16 85.0141 149.409C84.1017 159.659 83.7881 169.882 84.373 177.685C84.6658 181.592 85.1815 184.856 85.943 187.204C86.3239 188.378 86.7562 189.291 87.2291 189.935C87.7006 190.577 88.1808 190.912 88.657 191.022C94.2202 192.318 108.434 193.699 122.511 194.912C127.042 195.303 131.556 195.675 135.751 196.021C144.545 196.748 151.94 197.358 155.161 197.774Z" fill="#6D2DF0" stroke="white" stroke-width="1.30935" stroke-linejoin="round"/>
    </g>
    <mask id="mask1_2522_29467" style="mask-type:alpha" maskUnits="userSpaceOnUse" x="84" y="106" width="129" height="111">
      <path d="M89.7901 191.667C100.919 194.286 146.31 197.208 155.694 198.432C170.673 200.572 176.511 209.786 181.881 215.89C181.987 216.011 182.317 216.108 182.317 215.89C180.572 205.852 183.705 201.337 185.154 200.614C186.716 199.835 199.813 200.113 203.049 196.553C205.231 194.153 221.169 124.633 206.54 116.597C191.046 108.087 103.992 104.124 95.7779 106.862C87.5636 109.601 79.0737 189.145 89.7901 191.667Z" fill="#6D2DF0"/>
    </mask>
    <g mask="url(#mask1_2522_29467)">
      <path d="M68.63 182.485C66.3695 184.736 53.6452 195.87 47.2439 201.035C48.9897 193.106 52.1848 177.971 50.7355 177.248C49.1732 176.469 20.8013 172.297 17.5652 168.737C15.383 166.337 11.0322 112.94 15.6012 106.543C19.2936 101.374 115.19 84.8193 123.405 87.5574C131.619 90.2955 138.026 164.154 129.515 171.138C121.004 178.121 73.8674 181.831 68.63 182.485Z" fill="white"/>
    </g>
    <path d="M173.352 165.33C173.161 165.062 172.974 164.795 172.789 164.537C170.256 160.978 168.723 158.83 169.41 149.324C169.766 144.402 168.881 140.279 166.779 137.082C165.229 134.721 163.039 132.856 160.081 131.381C160.043 131.357 160.01 131.326 159.983 131.289C159.152 127.538 156.329 124.861 152.945 124.617C149.56 124.372 146.383 126.615 145.021 130.204C144.989 130.235 144.952 130.26 144.913 130.278C137.586 132.693 133.722 138.062 133.098 146.694C132.41 156.204 130.586 158.11 127.565 161.263C127.346 161.492 127.122 161.725 126.894 161.967C126.306 162.58 125.905 163.349 125.741 164.183C125.576 165.017 125.653 165.881 125.964 166.672C126.624 168.369 128.21 169.507 130.104 169.644L169.084 172.462C170.97 172.599 172.691 171.701 173.591 170.124C174.013 169.386 174.216 168.542 174.173 167.692C174.131 166.842 173.846 166.022 173.352 165.33ZM148.857 181.152C150.681 181.282 152.506 180.917 154.138 180.094C155.771 179.271 157.15 178.022 158.131 176.478C158.177 176.404 158.203 176.319 158.207 176.232C158.211 176.145 158.192 176.058 158.152 175.981C158.113 175.903 158.054 175.836 157.981 175.788C157.908 175.74 157.824 175.711 157.737 175.705L140.855 174.484C140.768 174.478 140.68 174.494 140.601 174.531C140.522 174.568 140.454 174.625 140.404 174.697C140.353 174.768 140.322 174.851 140.313 174.938C140.304 175.025 140.318 175.113 140.353 175.193C141.101 176.861 142.286 178.296 143.784 179.345C145.281 180.394 147.034 181.019 148.857 181.152Z" fill="#F6F2FE"/>
    <path d="M66.0499 180.403C63.7894 182.654 51.0651 193.788 44.6638 198.953C46.4096 191.024 49.6047 175.889 48.1554 175.166C46.5931 174.387 18.2212 170.215 14.9852 166.655C12.8029 164.255 8.45217 110.858 13.0211 104.461C16.7135 99.2916 112.61 82.7372 120.824 85.4753C129.039 88.2134 135.446 162.072 126.935 169.056C118.424 176.039 71.2873 179.749 66.0499 180.403Z" fill="white"/>
    <path fill-rule="evenodd" clip-rule="evenodd" d="M118.32 84.3077C119.48 84.3358 120.451 84.4311 121.098 84.6471C121.869 84.9039 122.51 85.5282 123.048 86.2803C123.598 87.049 124.114 88.0537 124.6 89.234C125.572 91.5975 126.476 94.791 127.292 98.5212C128.926 105.99 130.235 115.739 131.02 125.604C131.804 135.469 132.066 145.485 131.595 153.486C131.36 157.484 130.94 161.008 130.301 163.768C129.982 165.149 129.602 166.361 129.152 167.356C128.706 168.341 128.164 169.174 127.486 169.73C126.307 170.698 124.528 171.56 122.387 172.341C120.229 173.128 117.633 173.858 114.765 174.532C109.029 175.881 102.145 177.025 95.3832 177.967C85.3932 179.36 75.5405 180.329 70.0827 180.866C68.4255 181.029 67.1736 181.152 66.446 181.235C63.6594 183.926 51.4392 194.606 45.2098 199.632C44.9214 199.864 44.5174 199.89 44.2022 199.695C43.8871 199.5 43.7295 199.127 43.8092 198.765C44.6819 194.801 45.9133 189.053 46.7454 184.209C47.1621 181.783 47.4744 179.609 47.5942 178.007C47.6545 177.201 47.6629 176.578 47.6221 176.154C47.6114 176.042 47.5982 175.956 47.5853 175.891C47.5242 175.874 47.4452 175.853 47.3455 175.827C47.0678 175.757 46.6945 175.674 46.2328 175.577C45.3107 175.383 44.0696 175.144 42.6036 174.865C42.156 174.78 41.6878 174.692 41.2021 174.6C38.5128 174.091 35.2848 173.481 32.0196 172.808C28.1673 172.014 24.2423 171.129 21.0699 170.216C19.485 169.759 18.0689 169.291 16.9359 168.816C15.8406 168.357 14.8822 167.842 14.3372 167.242C14.1668 167.055 14.0504 166.819 13.9677 166.622C13.8775 166.407 13.7928 166.153 13.7122 165.872C13.5507 165.31 13.3884 164.58 13.2267 163.716C12.9027 161.987 12.5689 159.657 12.2462 156.926C11.6003 151.462 10.9932 144.344 10.5977 137.104C10.2023 129.866 10.0174 122.489 10.2191 116.51C10.3199 113.523 10.5178 110.865 10.839 108.741C10.9996 107.679 11.1933 106.734 11.4268 105.941C11.6569 105.158 11.941 104.468 12.3087 103.953C12.5225 103.654 12.8413 103.409 13.1643 103.205C13.5021 102.992 13.9174 102.78 14.3925 102.568C15.3435 102.144 16.6027 101.691 18.1122 101.216C21.1353 100.264 25.2414 99.1981 30.0686 98.0781C39.7276 95.8371 52.3345 93.3656 65.0749 91.1428C77.8159 88.9198 90.7038 86.9432 100.926 85.6932C106.036 85.0683 110.49 84.6237 113.932 84.4214C115.652 84.3203 117.132 84.279 118.32 84.3077ZM47.5437 175.744C47.5437 175.744 47.5458 175.748 47.5487 175.755C47.5449 175.748 47.5437 175.744 47.5437 175.744ZM14.0954 104.682C13.8384 104.844 13.7463 104.944 13.7293 104.968C13.5259 105.253 13.3086 105.73 13.1016 106.433C12.8979 107.126 12.7187 107.987 12.5652 109.002C12.2583 111.031 12.0636 113.614 11.9639 116.569C11.7646 122.476 11.947 129.797 12.3409 137.009C12.7348 144.218 13.339 151.299 13.9799 156.722C14.3005 159.435 14.629 161.72 14.9427 163.395C15.0999 164.234 15.2504 164.904 15.3902 165.39C15.4602 165.634 15.5233 165.817 15.5772 165.946C15.6144 166.034 15.6379 166.074 15.6432 166.083C15.9155 166.372 16.5481 166.76 17.6108 167.206C18.6549 167.643 19.9985 168.091 21.5529 168.538C24.6593 169.433 28.5316 170.307 32.372 171.098C35.6215 171.768 38.8331 172.375 41.5226 172.884C42.0095 172.976 42.4794 173.065 42.9292 173.15C44.3934 173.428 45.6505 173.671 46.5915 173.868C47.0615 173.967 47.4611 174.056 47.7723 174.135C48.0504 174.205 48.3464 174.287 48.5429 174.385C48.9316 174.578 49.1083 174.936 49.1919 175.165C49.284 175.417 49.3326 175.703 49.3599 175.987C49.415 176.559 49.3978 177.299 49.3351 178.137C49.2089 179.825 48.8851 182.065 48.466 184.505C47.7866 188.459 46.8457 193 46.0487 196.69C52.7792 191.124 63.4109 181.797 65.432 179.785C65.5691 179.648 65.7476 179.561 65.9395 179.537C66.6582 179.447 68.0972 179.306 70.0763 179.111C75.5626 178.572 85.1989 177.624 95.1422 176.238C101.883 175.298 108.706 174.164 114.366 172.833C117.196 172.167 119.719 171.456 121.789 170.701C123.875 169.94 125.431 169.159 126.379 168.381C126.765 168.064 127.17 167.501 127.562 166.636C127.949 165.781 128.296 164.688 128.6 163.375C129.208 160.749 129.62 157.335 129.852 153.384C130.317 145.487 130.06 135.557 129.279 125.743C128.499 115.928 127.198 106.262 125.587 98.8943C124.78 95.2061 123.902 92.1255 122.985 89.8985C122.526 88.7835 122.07 87.9139 121.628 87.2964C121.175 86.6624 120.803 86.3887 120.546 86.3033C120.167 86.177 119.426 86.0808 118.277 86.053C117.157 86.026 115.73 86.0646 114.034 86.1642C110.645 86.3634 106.231 86.8032 101.138 87.4261C90.9537 88.6714 78.0966 90.6431 65.375 92.8626C52.6529 95.0823 40.08 97.5475 30.4632 99.7787C25.6525 100.895 21.5967 101.949 18.6366 102.881C17.1545 103.348 15.9669 103.778 15.1035 104.163C14.6713 104.356 14.3376 104.529 14.0954 104.682Z" fill="black"/>
    <path fill-rule="evenodd" clip-rule="evenodd" d="M72.4433 187.111C71.1134 187.151 69.6528 187.726 68.7065 188.278C68.3142 188.506 67.769 188.432 67.4888 188.112C67.2086 187.792 67.2995 187.348 67.6918 187.119C68.7823 186.484 70.5732 185.742 72.3785 185.688C73.3009 185.66 74.2628 185.811 75.1208 186.279C75.9815 186.749 76.6568 187.493 77.0984 188.533C77.5246 189.537 77.6436 190.706 77.7552 191.803C77.7837 192.084 77.8118 192.36 77.8445 192.627C78.0125 194.003 78.2985 195.264 79.18 196.333C80.9014 198.419 85.2692 200.158 97.5979 199.446C98.0788 199.418 98.4962 199.713 98.5303 200.106C98.5643 200.498 98.2021 200.838 97.7212 200.866C85.3904 201.578 80.0472 199.935 77.7315 197.127C76.5944 195.749 76.2802 194.185 76.1073 192.769C76.067 192.439 76.0342 192.122 76.0026 191.816C75.892 190.747 75.7958 189.817 75.4486 188.999C75.1045 188.188 74.6324 187.726 74.1501 187.462C73.6651 187.198 73.0884 187.091 72.4433 187.111Z" fill="black"/>
    <path fill-rule="evenodd" clip-rule="evenodd" d="M16.2478 93.6696C16.2549 94.1517 15.8699 94.5482 15.3878 94.5553C13.1404 94.5883 9.7105 95.6306 6.92352 98.724C4.15035 101.802 1.93847 106.998 2.28076 115.47C2.30022 115.951 1.92551 116.358 1.44381 116.377C0.962114 116.397 0.555844 116.022 0.536382 115.54C0.180357 106.729 2.47846 101.05 5.62648 97.5554C8.76068 94.0766 12.6632 92.8494 15.3622 92.8097C15.8442 92.8026 16.2407 93.1876 16.2478 93.6696Z" fill="black"/>
    <path fill-rule="evenodd" clip-rule="evenodd" d="M1.54151 120.319C2.02206 120.28 2.44283 120.639 2.48134 121.119L2.95192 126.993C2.99042 127.473 2.63207 127.894 2.15152 127.932C1.67097 127.971 1.2502 127.613 1.21169 127.132L0.741115 121.259C0.702612 120.778 1.06096 120.357 1.54151 120.319Z" fill="black"/>
    <path d="M41.9222 95.8937C40.6532 99.6007 39.5553 107.55 44.5606 109.639C47.8187 111 59.7955 113.096 62.2706 97.1283C62.4482 95.0852 61.8656 92.8153 61.6253 92.4043" stroke="white" stroke-width="1.30935" stroke-linecap="round"/>
    <path d="M44.8975 109.183C40.1273 107.146 41.722 98.989 42.9314 95.3748L49.37 91.1396L60.4835 91.4252C60.7125 91.826 60.944 94.9852 61.0311 96.5147C58.6723 112.083 48.0025 110.509 44.8975 109.183Z" fill="#111111"/>
    <path d="M43.655 95.2376L43.8628 94.6167L42.6211 94.2012L42.4134 94.8221L43.655 95.2376ZM61.0311 96.5158L61.6783 96.6138L61.6816 96.5926L61.6834 96.5712L61.0311 96.5158ZM61.0519 91.1015C60.8725 90.7875 60.4726 90.6785 60.1586 90.8579C59.8447 91.0373 59.7356 91.4372 59.915 91.7511L61.0519 91.1015ZM42.4134 94.8221C41.7951 96.6698 41.0474 99.7742 41.0688 102.703C41.0899 105.583 41.8681 108.601 44.6403 109.785L45.1545 108.581C43.1566 107.728 42.3985 105.476 42.3781 102.693C42.3581 99.958 43.0639 97.004 43.655 95.2376L42.4134 94.8221ZM44.6403 109.785C46.3028 110.495 49.9357 111.263 53.4944 109.79C57.1136 108.292 60.4749 104.556 61.6783 96.6138L60.3838 96.4177C59.2284 104.043 56.0754 107.304 52.9937 108.58C49.8516 109.88 46.5971 109.197 45.1545 108.581L44.6403 109.785ZM61.6834 96.5712C61.7736 95.5096 61.6882 94.2856 61.5556 93.288C61.4888 92.7861 61.4086 92.3305 61.3286 91.969C61.2887 91.7887 61.2476 91.6259 61.2065 91.4895C61.1698 91.3674 61.1198 91.2204 61.0519 91.1015L59.915 91.7511C59.9043 91.7323 59.9197 91.7572 59.9528 91.8671C59.9816 91.9627 60.0148 92.0919 60.0502 92.2519C60.1208 92.571 60.195 92.9892 60.2577 93.4606C60.3839 94.4097 60.4578 95.53 60.3787 96.4603L61.6834 96.5712Z" fill="#111111"/>
    <path d="M133.838 107.33C134.885 100.521 141.095 96.317 145.724 95.293L155.36 105.582C155.796 107.473 155.136 111.083 148.677 115.622C140.603 121.296 132.528 115.841 133.838 107.33Z" fill="#111111"/>
    <path d="M145.724 95.293C141.095 96.317 134.885 100.521 133.838 107.33C132.528 115.841 140.603 121.296 148.677 115.622C155.136 111.083 155.796 107.473 155.36 105.582" stroke="white" stroke-width="1.30935" stroke-linecap="round"/>
    <path d="M101.136 45.6304C102.167 43.6438 99.393 43.1581 97.8771 43.1637C96.4918 43.0442 93.3916 43.0861 93.9847 45.1891C94.4592 46.8715 96.5131 48.3475 97.4807 48.8753C98.2696 48.6214 100.105 47.6171 101.136 45.6304Z" fill="white" stroke="black" stroke-width="0.436451"/>
    <path d="M94.5815 143.89C94.356 143.653 94.1342 143.416 93.9168 143.188C90.927 140.039 89.1186 138.138 88.4694 128.686C88.1333 123.793 86.6869 119.858 84.1725 117.005C82.3183 114.897 79.9024 113.367 76.7853 112.328C76.7448 112.309 76.708 112.283 76.6766 112.251C75.3355 108.675 72.1837 106.434 68.8184 106.665C65.4532 106.896 62.6386 109.547 61.7987 113.269C61.7718 113.304 61.7394 113.334 61.7026 113.358C54.8283 116.756 51.774 122.58 52.3635 131.162C53.0129 140.618 51.4837 142.748 48.9498 146.272C48.7657 146.528 48.578 146.788 48.3873 147.059C47.8938 147.745 47.6072 148.557 47.5612 149.401C47.5153 150.245 47.712 151.084 48.128 151.819C49.0143 153.397 50.7338 154.296 52.6172 154.167L91.3754 151.505C93.25 151.377 94.8193 150.253 95.4845 148.576C95.7977 147.79 95.8791 146.931 95.719 146.101C95.559 145.27 95.1642 144.503 94.5815 143.89ZM72.6791 162.878C74.4921 162.752 76.2373 162.138 77.7295 161.101C79.2216 160.063 80.4052 158.641 81.1545 156.985C81.1897 156.906 81.2038 156.819 81.1955 156.732C81.1871 156.646 81.1565 156.563 81.1067 156.492C81.0569 156.421 80.9896 156.364 80.9113 156.327C80.833 156.29 80.7463 156.273 80.6598 156.279L63.8736 157.432C63.7869 157.438 63.7032 157.466 63.6305 157.513C63.5578 157.561 63.4988 157.627 63.459 157.704C63.4192 157.781 63.4002 157.867 63.4036 157.954C63.4071 158.041 63.433 158.125 63.4788 158.199C64.4473 159.737 65.814 160.984 67.4337 161.807C69.0535 162.631 70.866 163.001 72.6791 162.878Z" fill="#6D2DF0"/>
    <path d="M85.7117 29.0254C85.8681 28.904 86.1023 28.8289 86.3729 28.7906C86.6392 28.7529 86.9166 28.7541 87.1384 28.7666C87.2369 28.7722 87.3184 28.8644 87.298 28.9864C87.1363 29.9542 86.7257 32.3373 86.3411 33.9699C85.9833 35.489 85.3515 37.6176 85.0544 38.598C85.014 38.7315 84.8587 38.7922 84.7369 38.7195L84.2685 38.4397C84.1952 38.396 84.1542 38.3136 84.1634 38.2287L85.0347 30.2358C85.0362 30.2221 85.0386 30.2112 85.0416 30.2019C85.0693 30.1166 85.1482 29.8874 85.2688 29.6428C85.3926 29.3916 85.546 29.1541 85.7117 29.0254Z" fill="#6D2DF0" stroke="#6D2DF0" stroke-width="0.436451"/>
    <path d="M111.225 28.6236C111.369 28.4874 111.595 28.3896 111.86 28.3248C112.121 28.2611 112.398 28.235 112.619 28.2257C112.718 28.2216 112.808 28.3053 112.8 28.4287C112.734 29.4078 112.56 31.8196 112.338 33.4822C112.131 35.0291 111.712 37.2095 111.513 38.2144C111.486 38.3513 111.337 38.4269 111.209 38.3666L110.715 38.1342C110.638 38.0979 110.589 38.0199 110.59 37.9346L110.671 29.8947C110.671 29.881 110.672 29.8698 110.674 29.8603C110.693 29.7727 110.749 29.5368 110.845 29.2815C110.944 29.0194 111.073 28.768 111.225 28.6236Z" fill="#6D2DF0" stroke="#6D2DF0" stroke-width="0.436451"/>
  </g>
  <defs>
    <clipPath id="clip0_2522_29467">
      <rect width="222" height="236" fill="white"/>
    </clipPath>
  </defs>
</svg>