<svg viewBox="0 0 77 161" fill="none" xmlns="http://www.w3.org/2000/svg">
<path fill-rule="evenodd" clip-rule="evenodd" d="M25.602 109.218C31.1934 126.107 40.0931 142.036 54.1992 150.747C59.381 153.946 65.2318 155.498 71.1939 157.146C71.718 157.291 72.2624 156.983 72.4057 156.459C72.5506 155.936 72.2432 155.391 71.7207 155.247C65.9392 153.649 60.2566 152.171 55.237 149.071C41.3429 140.492 32.7061 124.688 27.282 108.025C27.408 107.937 27.5356 107.851 27.6632 107.764C30.4687 105.858 32.7071 101.694 34.2023 96.6776C36.3747 89.3968 37.0516 80.334 36.0683 74.3132C35.6159 71.5355 34.7798 69.3783 33.6515 68.2125C32.7123 67.2402 31.5766 66.8462 30.2491 67.1447C29.1548 67.3932 28.1696 68.016 27.3071 68.9647C26.1565 70.2314 25.2108 72.1067 24.4794 74.37C21.7728 82.7443 21.9102 96.5304 23.4368 102.063C23.9148 103.796 24.4246 105.527 24.9694 107.255C24.1822 107.818 23.428 108.353 22.6628 108.796C21.5396 109.446 20.4021 109.889 19.0821 109.836C16.6459 109.738 14.5757 108.482 12.8178 106.719C10.0017 103.897 7.98252 99.7852 6.64331 96.5525C-0.889871 78.3705 2.86356 59.4017 9.74306 42.6992C16.6993 25.8068 26.868 11.216 32.0701 2.01479C32.3367 1.54088 32.1701 0.938152 31.6966 0.671908C31.2247 0.403578 30.6225 0.571248 30.3543 1.04396C25.1244 10.2958 14.9139 24.9693 7.92082 41.9479C0.851006 59.1164 -2.91987 78.6186 4.82306 97.3086C6.24969 100.747 8.42698 105.107 11.4225 108.112C13.5423 110.233 16.0673 111.686 19.0003 111.804C20.7104 111.873 22.1983 111.34 23.6481 110.502C24.2981 110.126 24.9439 109.685 25.602 109.218ZM26.6589 106.063C29.1279 104.319 30.9905 100.556 32.3145 96.1147C34.4021 89.1185 35.0684 80.4153 34.1252 74.6295C33.808 72.6912 33.3225 71.0955 32.6163 70.0566C32.1069 69.3049 31.4847 68.8852 30.6838 69.0668C29.7624 69.2755 28.9892 69.9234 28.3109 70.8473C27.528 71.9109 26.8842 73.3322 26.3536 74.978C23.758 83.0092 23.871 96.234 25.3353 101.538C25.7526 103.047 26.1939 104.557 26.6589 106.063Z" fill="white"/>
<path fill-rule="evenodd" clip-rule="evenodd" d="M74.3038 155.679C73.9808 156 73.4573 156.325 72.8894 156.651C71.6051 157.392 70.0684 158.057 69.3511 158.399C68.8613 158.635 68.6521 159.223 68.8871 159.714C69.122 160.205 69.7108 160.412 70.2021 160.177C71.0774 159.759 73.1138 158.875 74.5432 157.95C75.2776 157.474 75.8604 156.967 76.1607 156.512C76.4531 156.064 76.4945 155.646 76.3995 155.256C76.2995 154.846 75.9907 154.417 75.439 154.03C74.8327 153.606 73.8474 153.162 72.8672 152.536C72.0446 152.012 71.2119 151.35 70.7279 150.384C70.4851 149.896 69.8933 149.698 69.4068 149.942C68.9219 150.184 68.7224 150.777 68.9668 151.262C69.8726 153.078 71.6392 154.152 73.0816 154.938C73.5116 155.171 74.0209 155.494 74.3038 155.679Z" fill="white"/>
<path fill-rule="evenodd" clip-rule="evenodd" d="M25.602 109.218C31.1934 126.107 40.0931 142.036 54.1992 150.747C59.381 153.946 65.2318 155.498 71.1939 157.146C71.718 157.291 72.2624 156.983 72.4057 156.459C72.5506 155.936 72.2432 155.391 71.7207 155.247C65.9392 153.649 60.2566 152.171 55.237 149.071C41.3429 140.492 32.7061 124.688 27.282 108.025C27.408 107.937 27.5356 107.851 27.6632 107.764C30.4687 105.858 32.7071 101.694 34.2023 96.6776C36.3747 89.3968 37.0516 80.334 36.0683 74.3132C35.6159 71.5355 34.7798 69.3783 33.6515 68.2125C32.7123 67.2402 31.5766 66.8462 30.2491 67.1447C29.1548 67.3932 28.1696 68.016 27.3071 68.9647C26.1565 70.2314 25.2108 72.1067 24.4794 74.37C21.7728 82.7443 21.9102 96.5304 23.4368 102.063C23.9148 103.796 24.4246 105.527 24.9694 107.255C24.1822 107.818 23.428 108.353 22.6628 108.796C21.5396 109.446 20.4021 109.889 19.0821 109.836C16.6459 109.738 14.5757 108.482 12.8178 106.719C10.0017 103.897 7.98252 99.7852 6.64331 96.5525C-0.889871 78.3705 2.86356 59.4017 9.74306 42.6992C16.6993 25.8068 26.868 11.216 32.0701 2.01479C32.3367 1.54088 32.1701 0.938152 31.6966 0.671908C31.2247 0.403578 30.6225 0.571248 30.3543 1.04396C25.1244 10.2958 14.9139 24.9693 7.92082 41.9479C0.851006 59.1164 -2.91987 78.6186 4.82306 97.3086C6.24969 100.747 8.42698 105.107 11.4225 108.112C13.5423 110.233 16.0673 111.686 19.0003 111.804C20.7104 111.873 22.1983 111.34 23.6481 110.502C24.2981 110.126 24.9439 109.685 25.602 109.218ZM26.6589 106.063C29.1279 104.319 30.9905 100.556 32.3145 96.1147C34.4021 89.1185 35.0684 80.4153 34.1252 74.6295C33.808 72.6912 33.3225 71.0955 32.6163 70.0566C32.1069 69.3049 31.4847 68.8852 30.6838 69.0668C29.7624 69.2755 28.9892 69.9234 28.3109 70.8473C27.528 71.9109 26.8842 73.3322 26.3536 74.978C23.758 83.0092 23.871 96.234 25.3353 101.538C25.7526 103.047 26.1939 104.557 26.6589 106.063Z" stroke="white"/>
<path fill-rule="evenodd" clip-rule="evenodd" d="M74.3038 155.679C73.9808 156 73.4573 156.325 72.8894 156.651C71.6051 157.392 70.0684 158.057 69.3511 158.399C68.8613 158.635 68.6521 159.223 68.8871 159.714C69.122 160.205 69.7108 160.412 70.2021 160.177C71.0774 159.759 73.1138 158.875 74.5432 157.95C75.2776 157.474 75.8604 156.967 76.1607 156.512C76.4531 156.064 76.4945 155.646 76.3995 155.256C76.2995 154.846 75.9907 154.417 75.439 154.03C74.8327 153.606 73.8474 153.162 72.8672 152.536C72.0446 152.012 71.2119 151.35 70.7279 150.384C70.4851 149.896 69.8933 149.698 69.4068 149.942C68.9219 150.184 68.7224 150.777 68.9668 151.262C69.8726 153.078 71.6392 154.152 73.0816 154.938C73.5116 155.171 74.0209 155.494 74.3038 155.679Z" stroke="white"/>
</svg>
