<svg viewBox="0 0 79 49" fill="none" xmlns="http://www.w3.org/2000/svg">
<path fill-rule="evenodd" clip-rule="evenodd" d="M14.9801 30.25C10.9204 25.168 7.15106 19.6864 1.60925 16.0887C1.28005 15.8734 1.18633 15.4326 1.40195 15.1005C1.6193 14.7706 2.06121 14.6747 2.39269 14.8883C8.06354 18.5705 11.9471 24.1551 16.1005 29.3556C16.3477 29.6619 16.295 30.1137 15.9852 30.3598C15.6771 30.6082 15.2273 30.5562 14.9801 30.25Z" fill="white"/>
<path fill-rule="evenodd" clip-rule="evenodd" d="M22.8917 24.9723C23.1584 22.224 22.9385 19.6127 21.875 17.0624C21.7229 16.6983 21.8965 16.28 22.26 16.1254C22.6253 15.9732 23.0448 16.1449 23.1952 16.5068C24.352 19.2798 24.6039 22.1137 24.3147 25.1011C24.2775 25.4946 23.9283 25.785 23.5343 25.7479C23.1423 25.7128 22.8527 25.3635 22.8917 24.9723Z" fill="white"/>
<path fill-rule="evenodd" clip-rule="evenodd" d="M42.6037 17.0749C44.5918 14.397 45.4796 11.4237 45.2232 8.09548C45.1932 7.70299 45.4878 7.35737 45.8821 7.32626C46.2747 7.29288 46.6192 7.58609 46.6493 7.97858C46.9323 11.6626 45.9525 14.9563 43.7513 17.9214C43.5164 18.2396 43.0664 18.3058 42.7506 18.0732C42.4329 17.8384 42.3671 17.3908 42.6037 17.0749Z" fill="white"/>
<path fill-rule="evenodd" clip-rule="evenodd" d="M65.4424 39.946C65.256 40.7822 64.9947 41.6038 64.6522 42.3939C64.5 42.7459 64.1345 43.4389 63.6806 43.8483C63.1984 44.2863 62.6297 44.4428 62.0586 44.1679C61.3005 43.8023 60.97 43.3015 60.8748 42.7938C60.7826 42.3053 60.9198 41.7643 61.253 41.2354C61.8902 40.2249 63.2895 39.2404 64.1992 38.8249C64.3296 37.9846 64.3802 37.1334 64.3541 36.2832C64.1592 29.9508 58.5007 24.7447 50.6007 23.433C47.8352 22.9745 44.024 24.6389 40.2433 26.8709C34.3562 30.3454 28.5926 35.2943 26.8617 36.6885C26.4335 37.0317 26.1432 37.1879 26.0741 37.2046C25.7384 37.2914 25.529 37.1533 25.4039 37.0407C25.2248 36.8761 25.1457 36.6963 25.1165 36.5252C25.0782 36.2929 25.129 36.0394 25.3187 35.795C25.4243 35.6611 25.6005 35.5129 25.7991 35.3692C25.9378 35.2709 26.1064 35.1858 26.1827 35.0848C26.6694 34.4357 27.1139 33.7614 27.5662 33.0883C29.0904 30.8309 30.3303 28.4673 31.492 26.0057C35.1837 18.1843 39.3005 10.2046 39.9924 1.45472C40.0236 1.06225 40.3674 0.765186 40.7616 0.795035C41.154 0.822615 41.448 1.16494 41.4183 1.55985C40.7138 10.484 36.5497 18.6322 32.7853 26.609C31.7969 28.7027 30.7527 30.7278 29.5332 32.6785C32.513 30.3104 36.726 27.1484 40.856 24.8801C44.5288 22.8626 48.1544 21.5791 50.8427 22.0247C59.4969 23.4614 65.5715 29.2966 65.7834 36.2318C65.8058 36.9738 65.7767 37.7192 65.6916 38.457C71.7536 37.5634 77.2953 41.3008 78.6353 47.3073C78.7219 47.6926 78.4781 48.0748 78.0933 48.1631C77.7069 48.2491 77.3252 48.0092 77.2386 47.6239C76.031 42.2114 70.9292 38.9095 65.4424 39.946ZM63.7616 40.704C63.6402 41.0863 63.4989 41.4622 63.3399 41.8337C63.2535 42.0318 63.0752 42.3964 62.8392 42.6724C62.7834 42.7363 62.6815 42.8173 62.6336 42.8537C62.437 42.7561 62.3064 42.662 62.281 42.5238C62.2482 42.3518 62.3459 42.1772 62.4625 41.9919C62.7547 41.5265 63.2595 41.0641 63.7616 40.704Z" fill="white"/>
<path fill-rule="evenodd" clip-rule="evenodd" d="M14.9801 30.25C10.9204 25.168 7.15106 19.6864 1.60925 16.0887C1.28005 15.8734 1.18633 15.4326 1.40195 15.1005C1.6193 14.7706 2.06121 14.6747 2.39269 14.8883C8.06354 18.5705 11.9471 24.1551 16.1005 29.3556C16.3477 29.6619 16.295 30.1137 15.9852 30.3598C15.6771 30.6082 15.2273 30.5562 14.9801 30.25Z" stroke="white" stroke-width="0.680657"/>
<path fill-rule="evenodd" clip-rule="evenodd" d="M22.8917 24.9723C23.1584 22.224 22.9385 19.6127 21.875 17.0624C21.7229 16.6983 21.8965 16.28 22.26 16.1254C22.6253 15.9732 23.0448 16.1449 23.1952 16.5068C24.352 19.2798 24.6039 22.1137 24.3147 25.1011C24.2775 25.4946 23.9283 25.785 23.5343 25.7479C23.1423 25.7128 22.8527 25.3635 22.8917 24.9723Z" stroke="white" stroke-width="0.680657"/>
<path fill-rule="evenodd" clip-rule="evenodd" d="M42.6037 17.0749C44.5918 14.397 45.4796 11.4237 45.2232 8.09548C45.1932 7.70299 45.4878 7.35737 45.8821 7.32626C46.2747 7.29288 46.6192 7.58609 46.6493 7.97858C46.9323 11.6626 45.9525 14.9563 43.7513 17.9214C43.5164 18.2396 43.0664 18.3058 42.7506 18.0732C42.4329 17.8384 42.3671 17.3908 42.6037 17.0749Z" stroke="white" stroke-width="0.680657"/>
<path fill-rule="evenodd" clip-rule="evenodd" d="M65.4424 39.946C65.256 40.7822 64.9947 41.6038 64.6522 42.3939C64.5 42.7459 64.1345 43.4389 63.6806 43.8483C63.1984 44.2863 62.6297 44.4428 62.0586 44.1679C61.3005 43.8023 60.97 43.3015 60.8748 42.7938C60.7826 42.3053 60.9198 41.7643 61.253 41.2354C61.8902 40.2249 63.2895 39.2404 64.1992 38.8249C64.3296 37.9846 64.3802 37.1334 64.3541 36.2832C64.1592 29.9508 58.5007 24.7447 50.6007 23.433C47.8352 22.9745 44.024 24.6389 40.2433 26.8709C34.3562 30.3454 28.5926 35.2943 26.8617 36.6885C26.4335 37.0317 26.1432 37.1879 26.0741 37.2046C25.7384 37.2914 25.529 37.1533 25.4039 37.0407C25.2248 36.8761 25.1457 36.6963 25.1165 36.5252C25.0782 36.2929 25.129 36.0394 25.3187 35.795C25.4243 35.6611 25.6005 35.5129 25.7991 35.3692C25.9378 35.2709 26.1064 35.1858 26.1827 35.0848C26.6694 34.4357 27.1139 33.7614 27.5662 33.0883C29.0904 30.8309 30.3303 28.4673 31.492 26.0057C35.1837 18.1843 39.3005 10.2046 39.9924 1.45472C40.0236 1.06225 40.3674 0.765186 40.7616 0.795035C41.154 0.822615 41.448 1.16494 41.4183 1.55985C40.7138 10.484 36.5497 18.6322 32.7853 26.609C31.7969 28.7027 30.7527 30.7278 29.5332 32.6785C32.513 30.3104 36.726 27.1484 40.856 24.8801C44.5288 22.8626 48.1544 21.5791 50.8427 22.0247C59.4969 23.4614 65.5715 29.2966 65.7834 36.2318C65.8058 36.9738 65.7767 37.7192 65.6916 38.457C71.7536 37.5634 77.2953 41.3008 78.6353 47.3073C78.7219 47.6926 78.4781 48.0748 78.0933 48.1631C77.7069 48.2491 77.3252 48.0092 77.2386 47.6239C76.031 42.2114 70.9292 38.9095 65.4424 39.946ZM63.7616 40.704C63.6402 41.0863 63.4989 41.4622 63.3399 41.8337C63.2535 42.0318 63.0752 42.3964 62.8392 42.6724C62.7834 42.7363 62.6815 42.8173 62.6336 42.8537C62.437 42.7561 62.3064 42.662 62.281 42.5238C62.2482 42.3518 62.3459 42.1772 62.4625 41.9919C62.7547 41.5265 63.2595 41.0641 63.7616 40.704Z" stroke="white" stroke-width="0.680657"/>
</svg>
