<svg width="400" height="400" viewBox="0 0 400 400" fill="none" xmlns="http://www.w3.org/2000/svg">
<g clip-path="url(#clip0_279_149)">
<rect width="400" height="400" rx="200" fill="#4A00B5"/>
<g clip-path="url(#clip1_279_149)">
<path d="M370 400H30C13.4333 400 0 386.567 0 370V30C0 13.4333 13.4333 0 30 0H370C386.567 0 400 13.4333 400 30V370C400 386.567 386.567 400 370 400Z" fill="white"/>
<path d="M152.801 265.867L126.668 311.033L67.168 207.967H119.368L152.801 265.867ZM129.268 174.9H77.068L126.668 88.9668L152.801 134.133L129.268 174.9ZM270.735 225.1H322.935L273.335 311.033L247.201 265.867L270.735 225.1ZM166.635 126.133L140.501 80.9668H259.501L233.368 126.133H166.635ZM233.368 273.867L259.501 319.033H140.501L166.635 273.867H233.368ZM247.201 134.133L273.335 88.9668L332.835 192.033H280.635L247.201 134.133Z" fill="#4A00B5"/>
<path d="M77.068 174.9L258.268 246.733L322.935 225.1L142.101 152.667L77.068 174.9Z" fill="#4A00B5"/>
</g>
</g>
<defs>
<clipPath id="clip0_279_149">
<rect width="400" height="400" rx="200" fill="white"/>
</clipPath>
<clipPath id="clip1_279_149">
<rect width="400" height="400" fill="white"/>
</clipPath>
</defs>
</svg>
