<?xml version="1.0" standalone="no"?>
<!DOCTYPE svg PUBLIC "-//W3C//DTD SVG 20010904//EN"
 "http://www.w3.org/TR/2001/REC-SVG-20010904/DTD/svg10.dtd">
<svg version="1.0" xmlns="http://www.w3.org/2000/svg"
 width="700.000000pt" height="700.000000pt" viewBox="0 0 700.000000 700.000000"
 preserveAspectRatio="xMidYMid meet">
<metadata>
Created by potrace 1.14, written by Peter Selinger 2001-2017
</metadata>
<g transform="translate(0.000000,700.000000) scale(0.100000,-0.100000)"
fill="#000000" stroke="none">
<path d="M1983 6642 l-53 -3 24 -37 c21 -33 221 -379 273 -472 11 -19 43 -73
70 -120 28 -47 112 -191 186 -320 l136 -235 879 -3 879 -2 61 102 c46 80 260
449 412 713 141 245 204 352 212 363 8 9 -4 12 -53 12 -368 3 -2987 4 -3026 2z"/>
<path d="M1510 6332 c-30 -52 -68 -118 -84 -146 -15 -28 -60 -105 -98 -171
-39 -66 -80 -138 -92 -160 -12 -22 -81 -141 -153 -265 -72 -124 -139 -241
-150 -260 -11 -19 -53 -91 -93 -160 -40 -69 -83 -143 -95 -165 -13 -22 -113
-197 -224 -388 -111 -192 -201 -350 -201 -352 0 -3 -13 -24 -29 -47 -16 -24
-27 -46 -23 -50 7 -7 178 -76 937 -376 182 -72 551 -219 820 -326 270 -106
533 -211 585 -231 52 -20 109 -43 125 -50 17 -7 237 -95 490 -194 253 -100
469 -186 480 -190 11 -5 40 -17 65 -26 25 -9 59 -23 75 -30 17 -7 158 -63 315
-125 157 -62 299 -118 315 -125 27 -12 305 -121 483 -191 39 -15 72 -31 72
-35 0 -4 -13 -29 -29 -56 -89 -147 -251 -434 -251 -444 0 -7 62 -118 137 -248
75 -130 199 -344 275 -476 76 -132 142 -247 148 -255 5 -8 29 -51 54 -95 74
-132 61 -133 146 17 120 211 125 219 180 313 29 50 64 110 78 135 14 25 32 57
41 72 17 29 208 360 227 393 6 11 96 166 199 345 104 179 205 354 225 390 20
36 67 116 103 179 37 62 67 115 67 116 0 1 22 40 50 86 27 46 50 89 50 95 0 6
-60 35 -132 64 -73 29 -146 58 -163 65 -16 7 -493 198 -1060 425 -566 226
-1043 418 -1060 425 -16 7 -241 97 -500 200 -258 103 -483 193 -500 200 -16 8
-106 44 -200 80 -93 37 -186 74 -205 82 -52 22 -42 18 -495 199 -231 92 -424
170 -428 174 -8 7 16 52 187 347 42 73 76 137 76 143 0 9 -323 574 -506 887
-77 130 -114 197 -114 204 0 5 -3 9 -7 9 -5 0 -17 18 -27 41 -11 22 -22 42
-25 44 -3 1 -31 -40 -61 -93z"/>
<path d="M5389 6357 c-19 -34 -103 -178 -185 -320 -174 -300 -160 -276 -203
-352 -19 -33 -74 -127 -122 -210 -116 -201 -129 -224 -129 -236 0 -5 66 -123
146 -262 81 -139 154 -265 162 -282 9 -16 31 -53 49 -82 18 -29 33 -54 33 -56
0 -2 70 -125 155 -272 85 -147 155 -271 155 -276 0 -5 5 -9 10 -9 6 0 10 -6
11 -12 0 -7 35 -71 77 -143 l77 -130 675 -1 c371 0 681 1 688 4 8 3 9 8 3 16
-7 9 -256 437 -326 561 -43 76 -645 1120 -655 1135 -5 8 -28 49 -52 90 -23 41
-49 87 -58 101 -8 14 -57 100 -109 190 -52 90 -131 227 -177 304 -45 77 -92
158 -104 180 -49 88 -72 125 -78 125 -4 0 -23 -28 -43 -63z"/>
<path d="M12 3275 c6 -11 144 -249 306 -530 162 -280 305 -528 317 -550 21
-36 221 -385 265 -460 9 -16 93 -160 185 -320 92 -159 176 -306 187 -325 30
-51 111 -192 125 -215 7 -11 15 -26 19 -34 4 -8 40 -70 80 -138 l72 -124 45
78 c25 43 54 92 64 110 19 33 138 239 163 282 75 129 127 219 135 233 6 9 17
29 26 45 18 32 154 267 193 333 62 105 62 106 39 148 -16 29 -207 360 -373
647 -28 48 -131 227 -152 265 -11 19 -35 60 -53 90 -18 30 -44 75 -57 100 -14
25 -62 108 -107 184 -44 76 -81 142 -81 145 0 3 -9 17 -20 31 l-19 25 -684 0
c-682 0 -685 0 -675 -20z"/>
<path d="M2557 1446 c-36 -61 -105 -181 -155 -266 -49 -85 -99 -171 -110 -190
-11 -19 -43 -75 -72 -125 -29 -49 -62 -108 -75 -130 -12 -22 -46 -80 -75 -130
-108 -184 -131 -227 -126 -232 7 -7 3106 -6 3113 0 3 4 -127 237 -188 337 -58
96 -319 554 -319 561 0 5 -4 9 -10 9 -5 0 -10 4 -10 9 0 5 -34 67 -75 138
l-74 128 -880 1 -880 0 -64 -110z"/>
</g>
</svg>
