<svg width="1000" height="1000" viewBox="0 0 1000 1000" fill="none" xmlns="http://www.w3.org/2000/svg">
<g clip-path="url(#clip0_2307_7360)">
<path d="M925 1000H75C33.5833 1000 0 966.417 0 925V75C0 33.5833 33.5833 0 75 0H925C966.417 0 1000 33.5833 1000 75V925C1000 966.417 966.417 1000 925 1000Z" fill="#6D2DF0"/>
<path fill-rule="evenodd" clip-rule="evenodd" d="M316.67 777.584L382.003 664.667L298.42 519.917H167.92L316.67 777.584ZM192.67 437.25L316.67 222.417L382.003 335.334L355.256 381.668L807.337 562.75L683.337 777.584L618.003 664.667L645.626 616.816L192.67 437.25H192.67L192.67 437.25ZM351.253 202.417L416.587 315.334H583.42L648.753 202.417H351.253ZM648.753 797.584L583.42 684.667H416.587L351.253 797.584H648.753ZM683.337 222.417L618.003 335.334L701.587 480.084H832.087L683.337 222.417Z" fill="white"/>
</g>
<defs>
<clipPath id="clip0_2307_7360">
<rect width="1000" height="1000" fill="white"/>
</clipPath>
</defs>
</svg>
