<svg viewBox="0 0 18 15" fill="none" xmlns="http://www.w3.org/2000/svg">
<path d="M1.86964 6.56177C6.24308 4.65677 9.1587 3.40075 10.6165 2.79396C14.7837 1.06122 15.6485 0.760284 16.2134 0.750089C16.3376 0.748097 16.6142 0.7788 16.7946 0.924698C16.9446 1.04774 16.9868 1.21415 17.0079 1.33099C17.0267 1.44771 17.0525 1.71372 17.0314 1.92138C16.8064 4.29325 15.829 10.049 15.3321 12.7057C15.1235 13.8297 14.7087 14.2066 14.3079 14.2434C13.436 14.3236 12.7751 13.6678 11.9314 13.1149C10.6118 12.2493 9.86651 11.7108 8.58448 10.8663C7.10323 9.89036 8.06417 9.35388 8.90792 8.47732C9.12823 8.24786 12.9673 4.75685 13.04 4.44021C13.0493 4.4006 13.0587 4.25294 12.9696 4.17513C12.8829 4.09708 12.754 4.1238 12.6603 4.14489C12.5267 4.17489 10.4196 5.56896 6.33214 8.32685C5.73448 8.73794 5.19308 8.93833 4.70558 8.92778C4.1712 8.9163 3.13995 8.62497 2.37355 8.37607C1.43605 8.07067 0.688388 7.90919 0.754013 7.39052C0.786826 7.12052 1.15948 6.84419 1.86964 6.56177Z" fill="currentColor"/>
</svg>
