<svg xmlns="http://www.w3.org/2000/svg" width="270" height="256" viewBox="0 0 270 256" fill="none">
<g clip-path="url(#clip0_2460_26835)">
<path opacity="0.7" d="M265.584 115.026C265.584 115.026 274.12 94.8513 266.36 63.0368C258.6 31.2223 222.906 29.6704 192.643 25.7905C162.381 21.9107 160.053 2.51163 127.463 0.183737C94.8721 -2.14415 66.9374 18.0309 61.5056 38.9819C56.0739 59.9329 62.2816 70.7964 39.0027 87.0917C15.7238 103.387 -6.77917 117.354 2.53239 147.617C11.844 177.879 35.1229 177.879 39.0027 198.054C42.8825 218.23 70.0412 243.06 101.856 253.148C133.67 263.235 155.397 235.301 184.884 236.853C214.37 238.405 242.305 236.077 256.273 213.574C270.24 191.071 250.065 169.344 253.945 153.825C257.824 138.305 262.48 129.77 265.584 115.026Z" fill="#DAC8FF"/>
<path opacity="0.5" d="M256.266 213.574C262.527 203.488 261.926 193.558 259.708 184.272C258.565 184.182 257.294 184.124 255.846 184.124C246.579 184.124 244.399 199.934 238.947 200.478C233.496 201.023 225.318 192.301 216.05 192.301C206.783 192.301 194.79 229.916 190.428 232.642C186.066 235.368 182.796 230.462 173.528 226.645C164.261 222.829 152.268 234.823 141.365 238.639C130.462 242.455 118.468 235.913 114.652 228.826C110.836 221.739 102.114 201.023 94.4817 201.569C86.8493 202.114 79.2177 207.565 74.856 202.659C70.4951 197.752 55.7758 157.957 50.3247 157.412C46.7684 157.056 30.4569 166.906 19.543 173.798C28.212 181.575 36.7771 186.516 38.9964 198.055C42.8762 218.23 70.0349 243.061 101.849 253.149C133.664 263.236 155.391 235.301 184.878 236.853C214.364 238.405 242.299 236.077 256.266 213.574Z" fill="#6D2DF0"/>
<path d="M234.795 105.196C233.223 105.196 231.949 106.47 231.949 108.042C231.949 109.613 233.223 110.887 234.795 110.887C236.366 110.887 237.64 109.613 237.64 108.042C237.64 106.47 236.366 105.196 234.795 105.196Z" fill="white"/>
<path d="M210.872 108.3C210.086 108.3 209.449 108.937 209.449 109.722C209.449 110.508 210.086 111.144 210.872 111.144C211.657 111.144 212.294 110.507 212.294 109.722C212.294 108.937 211.657 108.3 210.872 108.3Z" fill="white"/>
<path d="M240.098 82.0469C239.313 82.0469 238.676 82.6839 238.676 83.4692C238.676 84.2545 239.313 84.8916 240.098 84.8916C240.884 84.8916 241.52 84.2545 241.52 83.4692C241.52 82.6839 240.883 82.0469 240.098 82.0469Z" fill="white"/>
<path d="M257.301 105.972C256.516 105.972 255.879 106.609 255.879 107.394C255.879 108.18 256.516 108.816 257.301 108.816C258.087 108.816 258.724 108.179 258.724 107.394C258.724 106.609 258.087 105.972 257.301 105.972Z" fill="white"/>
<path d="M214.114 140.221C212.766 141.029 212.328 142.776 213.135 144.124C213.942 145.472 215.69 145.91 217.039 145.103C218.386 144.295 218.825 142.548 218.017 141.2C217.209 139.852 215.462 139.414 214.114 140.221Z" fill="white"/>
<path d="M201.11 121.78C200.436 122.184 200.217 123.058 200.62 123.732C201.024 124.406 201.898 124.625 202.572 124.222C203.246 123.818 203.465 122.944 203.061 122.27C202.657 121.596 201.783 121.377 201.11 121.78Z" fill="white"/>
<path d="M238.649 133.364C237.975 133.768 237.756 134.642 238.159 135.316C238.563 135.99 239.437 136.209 240.111 135.806C240.785 135.402 241.004 134.528 240.601 133.854C240.196 133.18 239.323 132.961 238.649 133.364Z" fill="white"/>
<path d="M226.961 160.414C226.287 160.818 226.068 161.691 226.472 162.366C226.875 163.039 227.749 163.259 228.423 162.855C229.098 162.452 229.317 161.578 228.913 160.904C228.509 160.23 227.635 160.011 226.961 160.414Z" fill="white"/>
<path d="M52.4421 113.991C51.0942 114.799 50.6558 116.546 51.4636 117.894C52.2706 119.242 54.0181 119.68 55.3667 118.873C56.7145 118.065 57.153 116.318 56.3452 114.969C55.5374 113.622 53.7907 113.183 52.4421 113.991Z" fill="white"/>
<path d="M39.438 95.5498C38.7637 95.9533 38.5449 96.827 38.9484 97.5013C39.3519 98.1756 40.2256 98.3945 40.8999 97.991C41.5743 97.5875 41.7931 96.7137 41.3896 96.0394C40.9853 95.3659 40.1123 95.1463 39.438 95.5498Z" fill="white"/>
<path d="M76.9771 107.134C76.3028 107.538 76.084 108.412 76.4875 109.086C76.891 109.76 77.7647 109.979 78.439 109.575C79.1133 109.172 79.3321 108.298 78.9286 107.624C78.5244 106.95 77.6514 106.73 76.9771 107.134Z" fill="white"/>
<path d="M65.2974 134.184C64.6231 134.588 64.4043 135.461 64.8078 136.136C65.2113 136.81 66.085 137.029 66.7593 136.625C67.4336 136.222 67.6525 135.348 67.249 134.674C66.8447 133.999 65.9717 133.78 65.2974 134.184Z" fill="white"/>
<path d="M25.9264 140.134C24.5786 140.942 24.1402 142.69 24.948 144.038C25.7557 145.385 27.5024 145.824 28.8511 145.017C30.1989 144.209 30.6373 142.462 29.8295 141.114C29.0218 139.765 27.2743 139.327 25.9264 140.134Z" fill="white"/>
<path d="M12.9224 121.694C12.2481 122.097 12.0293 122.971 12.4328 123.645C12.8363 124.319 13.71 124.538 14.3843 124.135C15.0586 123.731 15.2775 122.857 14.874 122.183C14.4697 121.509 13.5959 121.29 12.9224 121.694Z" fill="white"/>
<path d="M50.4693 133.277C49.795 133.681 49.5761 134.555 49.9796 135.229C50.3831 135.903 51.2569 136.122 51.9312 135.719C52.6055 135.315 52.8243 134.441 52.4208 133.767C52.0166 133.093 51.1428 132.874 50.4693 133.277Z" fill="white"/>
<path d="M38.774 160.327C38.0997 160.731 37.8808 161.605 38.2843 162.279C38.6878 162.953 39.5616 163.172 40.2359 162.768C40.9102 162.365 41.129 161.491 40.7255 160.817C40.3212 160.143 39.4475 159.924 38.774 160.327Z" fill="white"/>
<path d="M90.2971 12.657C88.8849 13.3461 88.299 15.0501 88.9881 16.4616C89.6771 17.8738 91.3812 18.4597 92.7926 17.7706C94.2049 17.0816 94.7907 15.3776 94.1017 13.9661C93.4126 12.5538 91.7094 11.968 90.2971 12.657Z" fill="white"/>
<path d="M111.686 1.93051C110.98 2.27503 110.686 3.12704 111.032 3.83317C111.376 4.5393 112.228 4.83183 112.934 4.4873C113.64 4.14278 113.934 3.29077 113.589 2.58464C113.244 1.87929 112.392 1.58598 111.686 1.93051Z" fill="white"/>
<path d="M96.9354 32.1366C96.2292 32.4811 95.9367 33.3331 96.2812 34.0392C96.6258 34.7453 97.4778 35.0387 98.1839 34.6934C98.89 34.3488 99.1826 33.4968 98.838 32.7907C98.4927 32.0853 97.6415 31.792 96.9354 32.1366Z" fill="white"/>
<path d="M70.9826 24.3875C70.2765 24.7321 69.9831 25.5841 70.3284 26.2902C70.673 26.9963 71.525 27.2896 72.2311 26.9443C72.9372 26.5998 73.2298 25.7478 72.8852 25.0417C72.5407 24.3363 71.6887 24.043 70.9826 24.3875Z" fill="white"/>
<path d="M218.812 48.968C217.444 48.1951 215.708 48.6778 214.935 50.0466C214.162 51.4146 214.645 53.1504 216.013 53.9233C217.381 54.6962 219.116 54.2135 219.889 52.8455C220.662 51.4767 220.18 49.7409 218.812 48.968Z" fill="white"/>
<path d="M196.455 39.9059C195.77 39.5194 194.903 39.7608 194.516 40.4452C194.13 41.1296 194.371 41.9971 195.056 42.3835C195.74 42.77 196.607 42.5286 196.994 41.8442C197.38 41.1598 197.139 40.2923 196.455 39.9059Z" fill="white"/>
<path d="M229.705 34.9371C229.02 34.5507 228.153 34.792 227.766 35.4764C227.38 36.1608 227.621 37.0283 228.306 37.4148C228.99 37.8012 229.857 37.5599 230.244 36.8755C230.63 36.1911 230.388 35.3236 229.705 34.9371Z" fill="white"/>
<path d="M236.626 63.1882C237.31 63.5746 238.178 63.3333 238.564 62.6489C238.951 61.9645 238.709 61.097 238.025 60.7106C237.34 60.3241 236.473 60.5655 236.087 61.2499C235.7 61.9335 235.941 62.8018 236.626 63.1882Z" fill="white"/>
<path fill-rule="evenodd" clip-rule="evenodd" d="M127.011 161.74C121.212 162.023 118.354 165.378 117.65 167.02C115.975 165.974 111.107 166.577 108.883 167.009C109.984 169.003 115.375 173.389 115.375 173.389C115.375 173.389 118.33 178.3 121.319 182.045C123.991 185.395 124.052 185.646 125.039 189.746C125.156 190.231 125.285 190.769 125.434 191.373C126.15 194.288 126.051 196.781 125.957 199.165C125.866 201.452 125.779 203.638 126.42 206C127.729 210.823 129.151 210.301 129.761 210.077C129.8 210.063 129.841 210.049 129.884 210.034C130.504 209.821 131.412 209.509 130.695 206.967C130.082 204.794 130.339 201.18 130.544 199.644C131.533 200.664 133.918 203.433 135.539 206.343C137.565 209.98 136.814 212.331 136.096 213.517C135.378 214.703 131.939 221.038 132.103 226.512C132.267 231.986 134.45 238.564 136.076 237.967C137.376 237.49 137.091 235.289 136.786 234.248C134.106 223.425 137.716 217.304 139.857 215.596C143.457 223.87 143.086 226.262 142.915 227.37C142.805 228.073 142.776 228.26 143.891 229.104C146.765 231.278 148.43 225.133 147.859 219.808C147.288 214.483 147.49 207.491 153.532 205.735C156.704 204.813 159.954 206.53 163.094 208.188C165.937 209.69 168.689 211.143 171.209 210.547C175.453 209.543 173.672 207.414 172.251 206.475C166.716 204.587 151.718 186.339 153.385 187.111C155.052 187.883 160.33 190.327 161.231 188.383C161.951 186.827 159.489 185.102 158.167 184.434C146.873 180.047 137.724 169.569 137.724 169.569L134.694 164.455C134.694 164.455 132.249 156.743 130.965 154.293C129.292 155.599 126.159 158.916 127.011 161.74ZM124.212 171.069C124.624 172.191 124.412 173.302 123.738 173.549C123.065 173.796 122.185 173.086 121.773 171.964C121.361 170.842 121.573 169.731 122.247 169.484C122.92 169.237 123.8 169.947 124.212 171.069ZM130.029 169.61C130.493 169.095 130.149 168.029 129.261 167.229C128.373 166.428 127.277 166.197 126.813 166.712C126.349 167.227 126.693 168.293 127.581 169.094C128.469 169.894 129.565 170.125 130.029 169.61Z" fill="#111111"/>
<path d="M138.949 79.8364C158.896 79.8364 175.066 67.2139 175.066 51.6433C175.066 36.0727 158.896 23.4502 138.949 23.4502C119.002 23.4502 102.832 36.0727 102.832 51.6433C102.832 67.2139 119.002 79.8364 138.949 79.8364Z" fill="#263238" stroke="#263238" stroke-miterlimit="10" stroke-linecap="round" stroke-linejoin="round"/>
<path d="M164.418 33.9321C169.791 38.6376 173.056 44.8422 173.056 51.642C173.056 66.3473 157.785 78.2676 138.948 78.2676C120.111 78.2676 104.84 66.3473 104.84 51.642C104.84 42.4515 110.805 34.3481 119.878 29.5635" fill="#263238"/>
<path d="M164.418 33.9321C169.791 38.6376 173.056 44.8422 173.056 51.642C173.056 66.3473 157.785 78.2676 138.948 78.2676C120.111 78.2676 104.84 66.3473 104.84 51.642C104.84 42.4515 110.805 34.3481 119.878 29.5635" stroke="white" stroke-miterlimit="10" stroke-linecap="round" stroke-linejoin="round"/>
<path d="M124.16 27.642C126.82 26.6418 129.673 25.9023 132.662 25.4678L124.16 27.642Z" fill="#263238"/>
<path d="M124.16 27.642C126.82 26.6418 129.673 25.9023 132.662 25.4678" stroke="white" stroke-miterlimit="10" stroke-linecap="round" stroke-linejoin="round"/>
<path d="M138.944 77.6802C171.203 77.6802 197.353 69.0019 197.353 58.2967C197.353 47.5914 171.203 38.9131 138.944 38.9131C106.686 38.9131 80.5352 47.5914 80.5352 58.2967C80.5352 69.0019 106.686 77.6802 138.944 77.6802Z" fill="#6D2DF0" stroke="#263238" stroke-miterlimit="10" stroke-linecap="round" stroke-linejoin="round"/>
<path d="M138.942 84.6636C184.903 84.6636 222.162 75.9853 222.162 65.2801C222.162 54.5748 184.903 45.8965 138.942 45.8965C92.9814 45.8965 55.7227 54.5748 55.7227 65.2801C55.7227 75.9853 92.9814 84.6636 138.942 84.6636Z" fill="#6D2DF0" stroke="#263238" stroke-miterlimit="10" stroke-linecap="round" stroke-linejoin="round"/>
<path d="M138.943 89.8326C192.042 89.8326 235.086 81.1542 235.086 70.449C235.086 59.7437 192.042 51.0654 138.943 51.0654C85.8453 51.0654 42.8008 59.7437 42.8008 70.449C42.8008 81.1542 85.8453 89.8326 138.943 89.8326Z" fill="#263238" stroke="#263238" stroke-miterlimit="10" stroke-linecap="round" stroke-linejoin="round"/>
<path d="M138.989 83.9868C178.754 83.9868 210.99 77.9231 210.99 70.4431C210.99 62.9631 178.754 56.8994 138.989 56.8994C99.2242 56.8994 66.9883 62.9631 66.9883 70.4431C66.9883 77.9231 99.2242 83.9868 138.989 83.9868Z" fill="#6D2DF0" stroke="#263238" stroke-miterlimit="10" stroke-linecap="round" stroke-linejoin="round"/>
<path d="M170.989 70.4492H106.894L59.8867 229.318C71.1475 239.336 85.918 248.092 101.859 253.147C133.674 263.234 155.401 235.3 184.887 236.852C199.277 237.609 213.292 237.434 225.499 234.45L170.989 70.4492Z" fill="url(#paint0_linear_2460_26835)"/>
<path d="M138.942 76.9112C156.641 76.9112 170.989 74.0183 170.989 70.4497C170.989 66.8812 156.641 63.9883 138.942 63.9883C121.243 63.9883 106.895 66.8812 106.895 70.4497C106.895 74.0183 121.243 76.9112 138.942 76.9112Z" fill="#263238" stroke="#263238" stroke-miterlimit="10" stroke-linecap="round" stroke-linejoin="round"/>
<path d="M138.989 57.4928C143.206 57.4928 146.623 56.7424 146.623 55.8167C146.623 54.891 143.206 54.1406 138.989 54.1406C134.773 54.1406 131.355 54.891 131.355 55.8167C131.355 56.7424 134.773 57.4928 138.989 57.4928Z" fill="white" stroke="#263238" stroke-miterlimit="10" stroke-linecap="round" stroke-linejoin="round"/>
<path d="M68.2452 70.348C68.2452 70.9812 65.9057 71.4957 63.0191 71.4957C60.1325 71.4957 57.793 70.982 57.793 70.348C57.793 69.7141 60.1325 69.2012 63.0191 69.2012C65.9057 69.2012 68.2452 69.7141 68.2452 70.348Z" fill="white" stroke="#263238" stroke-miterlimit="10" stroke-linecap="round" stroke-linejoin="round"/>
<path d="M221.714 70.348C221.714 70.9812 219.374 71.4957 216.488 71.4957C213.601 71.4957 211.262 70.982 211.262 70.348C211.262 69.7141 213.601 69.2012 216.488 69.2012C219.374 69.2012 221.714 69.7141 221.714 70.348Z" fill="white" stroke="#263238" stroke-miterlimit="10" stroke-linecap="round" stroke-linejoin="round"/>
<path d="M186.142 62.7378C190.084 62.7378 193.28 62.0364 193.28 61.1712C193.28 60.3059 190.084 59.6045 186.142 59.6045C182.2 59.6045 179.004 60.3059 179.004 61.1712C179.004 62.0364 182.2 62.7378 186.142 62.7378Z" fill="white" stroke="#263238" stroke-miterlimit="10" stroke-linecap="round" stroke-linejoin="round"/>
<path d="M97.4154 62.7378C101.358 62.7378 104.554 62.0364 104.554 61.1712C104.554 60.3059 101.358 59.6045 97.4154 59.6045C93.4732 59.6045 90.2773 60.3059 90.2773 61.1712C90.2773 62.0364 93.4732 62.7378 97.4154 62.7378Z" fill="white" stroke="#263238" stroke-miterlimit="10" stroke-linecap="round" stroke-linejoin="round"/>
<path d="M186.136 80.6727C189.023 80.6727 191.362 80.1592 191.362 79.5258C191.362 78.8924 189.023 78.3789 186.136 78.3789C183.25 78.3789 180.91 78.8924 180.91 79.5258C180.91 80.1592 183.25 80.6727 186.136 80.6727Z" fill="white" stroke="#263238" stroke-miterlimit="10" stroke-linecap="round" stroke-linejoin="round"/>
<path d="M97.4253 80.6727C100.312 80.6727 102.651 80.1592 102.651 79.5258C102.651 78.8924 100.312 78.3789 97.4253 78.3789C94.539 78.3789 92.1992 78.8924 92.1992 79.5258C92.1992 80.1592 94.539 80.6727 97.4253 80.6727Z" fill="white" stroke="#263238" stroke-miterlimit="10" stroke-linecap="round" stroke-linejoin="round"/>
<path d="M81.1098 157.052L79.3398 163.142" stroke="#263238" stroke-miterlimit="10" stroke-linecap="round" stroke-linejoin="round"/>
<path d="M96.8761 102.774L82.9336 150.767" stroke="#263238" stroke-miterlimit="10" stroke-linecap="round" stroke-linejoin="round"/>
<path d="M105.433 73.3232L98.3945 97.5504" stroke="#263238" stroke-miterlimit="10" stroke-linecap="round" stroke-linejoin="round"/>
<path d="M170.988 70.4502L201.182 160.032" stroke="#263238" stroke-miterlimit="10" stroke-linecap="round" stroke-linejoin="round"/>
<path d="M119.982 78.3398L112.957 117.479" stroke="#263238" stroke-miterlimit="10" stroke-linecap="round" stroke-linejoin="round"/>
<path d="M162.137 78.3398L174.681 148.088" stroke="#263238" stroke-miterlimit="10" stroke-linecap="round" stroke-linejoin="round"/>
<path d="M138.934 89.834V153.107" stroke="#263238" stroke-miterlimit="10" stroke-linecap="round" stroke-linejoin="round"/>
<path d="M138.941 63.9883C132.12 63.9883 125.801 64.4189 120.605 65.1514C122.374 68.814 130.1 71.571 139.364 71.571C148.533 71.571 156.192 68.8699 158.064 65.264C152.725 64.4632 146.108 63.9883 138.941 63.9883Z" fill="white" stroke="#263238" stroke-miterlimit="10"/>
</g>
<defs>
<linearGradient id="paint0_linear_2460_26835" x1="142.693" y1="241.096" x2="142.693" y2="123.173" gradientUnits="userSpaceOnUse">
<stop stop-color="white" stop-opacity="0"/>
<stop offset="0.8342" stop-color="white"/>
</linearGradient>
<clipPath id="clip0_2460_26835">
<rect width="270" height="256" fill="white"/>
</clipPath>
</defs>
</svg>