<svg xmlns="http://www.w3.org/2000/svg" width="224" height="230" viewBox="0 0 224 230" fill="none">
  <path opacity="0.7" d="M220.219 113.088C220.219 113.088 227.293 96.4064 220.862 70.1005C214.432 43.7947 184.851 42.5115 159.772 39.3034C134.692 36.0954 132.763 20.0553 105.755 18.1304C78.7461 16.2056 55.596 32.8874 51.0946 50.2108C46.5932 67.5341 51.7377 76.5166 32.4459 89.9903C13.1541 103.464 -5.49456 115.013 2.22214 140.036C9.93885 165.058 29.2306 165.058 32.4459 181.74C35.6612 198.422 58.1683 218.953 84.5337 227.294C110.899 235.635 128.905 212.537 153.341 213.82C177.777 215.104 200.927 213.179 212.502 194.572C224.077 175.966 207.358 158.001 210.573 145.168C213.789 132.336 217.647 125.279 220.219 113.088Z" fill="#DAC8FF"/>
  <path d="M183.212 35.5406H169.973L169.305 34.8517L168.96 32.6774L168.315 29.4482L167.131 25.8961L165.688 22.6454L164.59 19.4592L164.375 16.1008L165.366 12.3119L166.98 9.68551L169.456 7.20979L173.417 5.46602L177.335 4.88477L179.983 5.46602L183.126 7.01603L185.559 9.19036L187.367 11.8814L188.508 14.9599V17.7585L187.97 20.9877L186.226 25.0565L184.87 29.0176L183.815 32.9142L183.557 34.8517L183.212 35.5406Z" fill="#E2D6FC"/>
  <path fill-rule="evenodd" clip-rule="evenodd" d="M163.226 8.72471C163.341 8.54628 163.579 8.49516 163.758 8.61052L165.329 9.62674C165.508 9.7421 165.559 9.98026 165.444 10.1587C165.328 10.3371 165.09 10.3882 164.912 10.2729L163.34 9.25666C163.162 9.14129 163.11 8.90313 163.226 8.72471Z" fill="#6D2DF0"/>
  <path fill-rule="evenodd" clip-rule="evenodd" d="M188.9 13.5206C188.834 13.3187 188.944 13.1014 189.146 13.0352L190.924 12.4523C191.126 12.3861 191.344 12.4961 191.41 12.698C191.476 12.8999 191.366 13.1172 191.164 13.1834L189.386 13.7664C189.184 13.8326 188.966 13.7225 188.9 13.5206Z" fill="#6D2DF0"/>
  <path fill-rule="evenodd" clip-rule="evenodd" d="M167.152 6.30863C167.288 6.14523 167.53 6.123 167.694 6.25897L168.102 6.59863C168.265 6.7346 168.287 6.97728 168.151 7.14067C168.015 7.30406 167.773 7.32629 167.609 7.19032L167.201 6.85066C167.038 6.7147 167.016 6.47202 167.152 6.30863Z" fill="#6D2DF0"/>
  <path fill-rule="evenodd" clip-rule="evenodd" d="M159.631 14.9438C159.682 14.7377 159.891 14.6124 160.097 14.6639L163.354 15.4782C163.56 15.5297 163.685 15.7386 163.634 15.9447C163.582 16.1508 163.373 16.2762 163.167 16.2246L159.911 15.4104C159.705 15.3588 159.579 15.15 159.631 14.9438Z" fill="#6D2DF0"/>
  <path fill-rule="evenodd" clip-rule="evenodd" d="M176.829 4.65344C183.547 4.81573 188.944 10.3104 188.944 17.0674C188.944 19.1582 188.426 21.1286 187.513 22.8582C187.12 23.7725 186.207 25.9902 185.294 28.8527C184.873 30.1719 184.551 31.4974 184.335 32.5436C184.227 33.0664 184.146 33.5175 184.092 33.8613C184.036 34.2172 184.014 34.4312 184.014 34.4974C184.014 34.5317 184.014 34.569 184.016 34.6087C184.039 35.3332 183.46 35.9372 182.732 35.9372H170.239C169.511 35.9372 168.933 35.333 168.956 34.6089C168.957 34.5689 168.957 34.5317 168.957 34.4974C168.957 34.4312 168.935 34.2172 168.879 33.8613C168.825 33.5176 168.744 33.0665 168.636 32.5436C168.42 31.4975 168.098 30.172 167.677 28.8527C166.764 25.9901 165.851 23.7725 165.458 22.8582C164.545 21.1288 164.027 19.1582 164.027 17.0674C164.027 10.2972 169.44 4.80809 176.591 4.6531C176.61 4.6505 176.629 4.64926 176.648 4.64943C176.663 4.64957 176.685 4.65013 176.7 4.6505C176.704 4.65058 176.706 4.65065 176.709 4.65071C176.715 4.65062 176.721 4.65045 176.73 4.65022L176.731 4.65019C176.742 4.64992 176.756 4.64955 176.77 4.64943C176.79 4.64926 176.81 4.65062 176.829 4.65344ZM176.682 5.41974C176.672 5.4207 176.662 5.42128 176.652 5.42147C169.878 5.54646 164.797 10.7203 164.797 17.0674C164.797 19.0351 165.285 20.8873 166.146 22.512C166.151 22.5212 166.155 22.5307 166.159 22.5403C166.555 23.4611 167.482 25.711 168.41 28.6188C168.841 29.9697 169.169 31.3223 169.389 32.388C169.499 32.9211 169.583 33.3843 169.639 33.7417C169.693 34.0869 169.727 34.3608 169.727 34.4974C169.727 34.5416 169.726 34.587 169.725 34.6331L169.725 34.6333C169.715 34.9268 169.949 35.1678 170.239 35.1678H182.732C183.022 35.1678 183.256 34.9269 183.246 34.6334L183.246 34.6332C183.245 34.5872 183.244 34.5415 183.244 34.4974C183.244 34.3608 183.278 34.0869 183.332 33.7417C183.388 33.3843 183.472 32.921 183.582 32.3879C183.802 31.3222 184.13 29.9697 184.561 28.6188C185.489 25.711 186.416 23.4611 186.812 22.5403C186.816 22.5307 186.821 22.5212 186.825 22.512C187.686 20.8871 188.174 19.035 188.174 17.0674C188.174 10.7143 183.088 5.5505 176.766 5.42165C176.755 5.42143 176.745 5.4208 176.735 5.41977C176.727 5.41995 176.719 5.4201 176.71 5.42017C176.707 5.4202 176.703 5.42019 176.7 5.42012C176.693 5.41999 176.687 5.41986 176.682 5.41974Z" fill="#6D2DF0"/>
  <path fill-rule="evenodd" clip-rule="evenodd" d="M179.549 6.44449C179.613 6.24175 179.828 6.12895 180.031 6.19254C180.415 6.31297 180.787 6.45745 181.144 6.61757C181.338 6.70454 181.425 6.9322 181.338 7.12605C181.251 7.31991 181.023 7.40655 180.829 7.31957C180.497 7.17038 180.153 7.0371 179.801 6.9267C179.598 6.86312 179.485 6.64722 179.549 6.44449Z" fill="#6D2DF0"/>
  <path fill-rule="evenodd" clip-rule="evenodd" d="M181.514 7.23466C181.607 7.04397 181.838 6.96535 182.029 7.05905C183.153 7.6114 183.971 8.29403 184.51 8.84014C184.779 9.11335 184.979 9.35309 185.113 9.52651C185.18 9.61325 185.231 9.68351 185.265 9.73321C185.283 9.75807 185.296 9.7778 185.305 9.79188C185.31 9.79893 185.313 9.80457 185.316 9.80873L185.319 9.81387L185.321 9.81559L185.321 9.81651C185.321 9.81663 185.321 9.81675 185.006 10.0152L185.321 9.81675C185.434 9.99655 185.38 10.2341 185.201 10.3473C185.021 10.4604 184.784 10.4066 184.671 10.2273" fill="#6D2DF0"/>
  <path fill-rule="evenodd" clip-rule="evenodd" d="M173.479 20.9119C173.757 20.6458 174.155 20.5342 174.603 20.5342C175.147 20.5342 175.525 20.8086 175.76 21.1857C175.981 21.541 176.077 21.9854 176.117 22.3841C176.159 22.7902 176.147 23.1902 176.126 23.4847C176.116 23.633 176.103 23.7568 176.092 23.8443C176.087 23.8881 176.082 23.9229 176.079 23.9472C176.079 23.9503 176.078 23.9531 176.078 23.9558V24.3991C176.653 24.5909 177.272 24.5382 177.843 24.3329C177.919 24.3055 177.994 24.2755 178.067 24.2432C178.083 23.7579 178.106 23.3261 178.139 22.9716C178.16 22.7456 178.186 22.5447 178.218 22.3786C178.248 22.223 178.289 22.0602 178.359 21.9356C178.535 21.6188 178.762 21.3792 179.031 21.2594C179.314 21.134 179.619 21.153 179.871 21.3209C180.348 21.6388 180.467 22.3413 180.27 23.066C180.154 23.4913 179.859 23.897 179.487 24.2335C179.292 24.4105 179.069 24.5746 178.825 24.7181C178.798 26.0055 178.817 27.6163 178.854 29.1989C178.891 30.7982 178.948 32.3642 178.995 33.5306C179.018 34.1138 179.039 34.5969 179.055 34.9341C179.062 35.1027 179.068 35.2349 179.073 35.3248L179.079 35.4621C179.079 35.4622 179.079 35.4622 178.695 35.4811C178.311 35.4999 178.311 35.4998 178.311 35.4997L178.304 35.3611C178.3 35.2707 178.294 35.138 178.286 34.9689C178.271 34.6306 178.249 34.1462 178.226 33.5616C178.179 32.3926 178.122 30.822 178.085 29.217C178.051 27.779 178.032 26.3099 178.049 25.076C177.439 25.2858 176.749 25.3614 176.078 25.1996V30.1051C176.078 30.3175 175.906 30.4898 175.693 30.4898C175.481 30.4898 175.308 30.3175 175.308 30.1051V24.8966C175.099 24.7784 174.896 24.6306 174.702 24.4496C173.776 23.586 173.211 22.6921 173.137 21.95C173.098 21.5631 173.193 21.1864 173.479 20.9119ZM175.308 23.9601V23.9275C175.308 23.9075 175.31 23.8876 175.313 23.8678L175.313 23.867L175.314 23.8621C175.315 23.8575 175.316 23.8501 175.317 23.8403C175.32 23.8205 175.324 23.7907 175.328 23.7522C175.338 23.6752 175.349 23.564 175.359 23.4302C175.378 23.1605 175.387 22.8084 175.352 22.4624C175.316 22.1088 175.237 21.8011 175.107 21.5922C174.99 21.4053 174.842 21.3036 174.603 21.3036C174.269 21.3036 174.095 21.3876 174.012 21.4674C173.937 21.5389 173.881 21.6587 173.903 21.8735C173.949 22.3348 174.347 23.0657 175.227 23.8871C175.254 23.9123 175.281 23.9366 175.308 23.9601ZM178.695 35.4811L178.311 35.4997C178.321 35.712 178.502 35.8757 178.714 35.8653C178.926 35.8549 179.09 35.6743 179.079 35.4621L178.695 35.4811ZM178.857 23.7616C178.896 23.7294 178.934 23.6965 178.971 23.6632C179.276 23.3866 179.463 23.1003 179.527 22.8636C179.691 22.2645 179.509 22.0042 179.444 21.9611C179.426 21.9485 179.4 21.9375 179.344 21.9625C179.275 21.9931 179.156 22.0846 179.031 22.3092C179.031 22.3092 179.031 22.3092 179.031 22.3092M178.857 23.7616C178.87 23.4937 178.886 23.2526 178.905 23.0433C178.925 22.83 178.948 22.656 178.974 22.5234C178.986 22.4573 178.999 22.4055 179.011 22.3667C179.016 22.3475 179.021 22.3331 179.025 22.3229C179.029 22.3133 179.031 22.3092 179.031 22.3092" fill="#6D2DF0"/>
  <path fill-rule="evenodd" clip-rule="evenodd" d="M172.233 1.54458C172.435 1.48016 172.652 1.59207 172.716 1.79454L173.383 3.88873C173.447 4.0912 173.335 4.30756 173.133 4.37198C172.93 4.4364 172.714 4.32449 172.649 4.12202L171.983 2.02783C171.919 1.82536 172.031 1.609 172.233 1.54458Z" fill="#6D2DF0"/>
  <path fill-rule="evenodd" clip-rule="evenodd" d="M188.959 6.24627C189.09 6.4136 189.061 6.65539 188.893 6.78634L186.704 8.49966C186.537 8.6306 186.295 8.6011 186.164 8.43377C186.033 8.26645 186.062 8.02465 186.23 7.89371L188.419 6.18039C188.586 6.04945 188.828 6.07895 188.959 6.24627Z" fill="#6D2DF0"/>
  <path fill-rule="evenodd" clip-rule="evenodd" d="M180.613 0.00967655C180.821 0.0568269 180.95 0.262997 180.903 0.470171L180.078 4.09436C180.031 4.30154 179.825 4.43126 179.618 4.38411C179.411 4.33696 179.281 4.13079 179.328 3.92362L180.153 0.299424C180.2 0.0922508 180.406 -0.0374738 180.613 0.00967655Z" fill="#6D2DF0"/>
  <path d="M183.086 37.2248H169.892C169.723 37.2248 169.586 37.0876 169.586 36.9186V36.7681C169.586 36.5991 169.723 36.4619 169.892 36.4619H183.086C183.255 36.4619 183.392 36.5991 183.392 36.7681V36.9186C183.392 37.0878 183.255 37.2248 183.086 37.2248Z" fill="#6D2DF0"/>
  <path fill-rule="evenodd" clip-rule="evenodd" d="M169.92 36.7959V36.8928H183.06V36.7959H169.92ZM169.254 36.7691C169.254 36.4161 169.54 36.1299 169.893 36.1299H183.087C183.44 36.1299 183.726 36.4164 183.726 36.7691V36.9192" fill="#6D2DF0"/>
  <path d="M183.086 38.9445H169.892C169.723 38.9445 169.586 38.8074 169.586 38.6383V38.4879C169.586 38.3188 169.723 38.1816 169.892 38.1816H183.086C183.255 38.1816 183.392 38.3188 183.392 38.4879V38.6383C183.392 38.8076 183.255 38.9445 183.086 38.9445Z" fill="#6D2DF0"/>
  <path fill-rule="evenodd" clip-rule="evenodd" d="M169.92 38.5147V38.6115H183.06V38.5147H169.92ZM169.254 38.4879C169.254 38.1349 169.54 37.8486 169.893 37.8486H183.087C183.44 37.8486 183.726 38.1349 183.726 38.4879V38.6383C183.726 38.9917 183.439 39.2776 183.087 39.2776H169.893C169.54 39.2776 169.254 38.9913 169.254 38.6383V38.4879Z" fill="#6D2DF0"/>
  <path d="M183.086 40.6643H169.892C169.723 40.6643 169.586 40.5271 169.586 40.358V40.2076C169.586 40.0385 169.723 39.9014 169.892 39.9014H183.086C183.255 39.9014 183.392 40.0385 183.392 40.2076V40.358C183.392 40.5273 183.255 40.6643 183.086 40.6643Z" fill="#6D2DF0"/>
  <path fill-rule="evenodd" clip-rule="evenodd" d="M169.92 40.2354V40.3322H183.06V40.2354H169.92ZM169.254 40.2086C169.254 39.8556 169.54 39.5693 169.893 39.5693H183.087C183.44 39.5693 183.726 39.8556 183.726 40.2086V40.359C183.726 40.7123 183.439 40.9983 183.087 40.9983H169.893C169.54 40.9983 169.254 40.712 169.254 40.359V40.2086Z" fill="#6D2DF0"/>
  <path d="M176.9 41.582H176.158H170.125L172.074 44.2666C172.414 44.7348 172.957 45.0117 173.536 45.0117H176.158H176.9H179.495C180.075 45.0117 180.62 44.7332 180.96 44.2629L182.896 41.5822H176.9V41.582Z" fill="#6D2DF0"/>
  <path fill-rule="evenodd" clip-rule="evenodd" d="M169.825 41.4308C169.882 41.3193 169.997 41.249 170.122 41.249H176.897C176.901 41.249 176.904 41.2491 176.908 41.2492H182.893C183.018 41.2492 183.132 41.3193 183.189 41.4306C183.246 41.542 183.236 41.6758 183.163 41.7772L181.227 44.4579C180.825 45.0149 180.179 45.3448 179.492 45.3448H173.533C172.848 45.3448 172.204 45.0167 171.802 44.4622C171.802 44.4622 171.802 44.4622 171.802 44.4622L169.853 41.7777C169.779 41.6764 169.769 41.5424 169.825 41.4308ZM176.885 41.9151H170.775L172.341 44.0709C172.618 44.4528 173.061 44.6787 173.533 44.6787H179.492C179.966 44.6787 180.41 44.4516 180.687 44.0679C180.687 44.068 180.687 44.0679 180.687 44.0679L182.242 41.9153H176.897C176.893 41.9153 176.889 41.9152 176.885 41.9151Z" fill="#6D2DF0"/>
  <path fill-rule="evenodd" clip-rule="evenodd" d="M173.401 139.779C173.479 139.658 173.641 139.624 173.761 139.702L174.826 140.39C174.947 140.468 174.981 140.629 174.903 140.75C174.825 140.871 174.664 140.906 174.543 140.828L173.478 140.139C173.358 140.061 173.323 139.9 173.401 139.779Z" fill="#6D2DF0" fill-opacity="0.2"/>
  <path fill-rule="evenodd" clip-rule="evenodd" d="M190.779 143.027C190.734 142.89 190.809 142.743 190.945 142.698L192.15 142.303C192.287 142.259 192.434 142.333 192.478 142.47C192.523 142.606 192.449 142.754 192.312 142.798L191.108 143.193C190.971 143.238 190.824 143.164 190.779 143.027Z" fill="#6D2DF0" fill-opacity="0.2"/>
  <path fill-rule="evenodd" clip-rule="evenodd" d="M176.058 138.144C176.15 138.033 176.315 138.018 176.425 138.11L176.701 138.34C176.812 138.432 176.827 138.596 176.735 138.707C176.643 138.817 176.479 138.832 176.368 138.74L176.092 138.511C175.981 138.419 175.966 138.254 176.058 138.144Z" fill="#6D2DF0" fill-opacity="0.2"/>
  <path fill-rule="evenodd" clip-rule="evenodd" d="M170.969 143.987C171.004 143.848 171.145 143.763 171.285 143.798L173.489 144.349C173.628 144.384 173.713 144.525 173.678 144.665C173.643 144.804 173.502 144.889 173.362 144.854L171.158 144.303C171.019 144.268 170.934 144.127 170.969 143.987Z" fill="#6D2DF0" fill-opacity="0.2"/>
  <path fill-rule="evenodd" clip-rule="evenodd" d="M182.618 137.023C187.165 137.133 190.818 140.852 190.818 145.426C190.818 146.841 190.467 148.175 189.849 149.345C189.584 149.964 188.966 151.465 188.347 153.403C188.062 154.296 187.845 155.193 187.699 155.901C187.626 156.255 187.571 156.56 187.534 156.793C187.496 157.034 187.481 157.178 187.481 157.223C187.481 157.246 187.481 157.272 187.482 157.299C187.498 157.789 187.106 158.198 186.614 158.198H178.158C177.665 158.198 177.273 157.789 177.289 157.299C177.29 157.272 177.29 157.246 177.29 157.223C177.29 157.178 177.275 157.034 177.237 156.793C177.2 156.56 177.145 156.255 177.072 155.901C176.926 155.193 176.709 154.296 176.424 153.403C175.805 151.465 175.187 149.964 174.922 149.345C174.304 148.175 173.953 146.841 173.953 145.426C173.953 140.843 177.617 137.128 182.457 137.023C182.47 137.021 182.483 137.02 182.495 137.021C182.505 137.021 182.521 137.021 182.531 137.021C182.533 137.021 182.535 137.021 182.537 137.021C182.541 137.021 182.545 137.021 182.551 137.021L182.552 137.021C182.559 137.021 182.568 137.021 182.578 137.021C182.592 137.02 182.605 137.021 182.618 137.023ZM182.518 137.542C182.512 137.543 182.505 137.543 182.498 137.543C177.913 137.628 174.474 141.13 174.474 145.426C174.474 146.757 174.804 148.011 175.387 149.111C175.39 149.117 175.393 149.124 175.396 149.13C175.664 149.753 176.292 151.276 176.92 153.244C177.212 154.159 177.433 155.074 177.582 155.795C177.657 156.156 177.713 156.47 177.752 156.712C177.788 156.945 177.811 157.131 177.811 157.223C177.811 157.253 177.81 157.284 177.809 157.315L177.809 157.315C177.803 157.514 177.961 157.677 178.158 157.677H186.614C186.81 157.677 186.968 157.514 186.962 157.315L186.962 157.315C186.961 157.284 186.96 157.253 186.96 157.223C186.96 157.131 186.983 156.945 187.019 156.712C187.058 156.47 187.114 156.156 187.189 155.795C187.338 155.074 187.559 154.159 187.851 153.244C188.479 151.276 189.107 149.753 189.375 149.13C189.378 149.124 189.381 149.117 189.384 149.111C189.967 148.011 190.297 146.757 190.297 145.426C190.297 141.126 186.854 137.63 182.575 137.543C182.568 137.543 182.561 137.543 182.554 137.542C182.549 137.542 182.543 137.542 182.538 137.542C182.535 137.542 182.533 137.542 182.531 137.542C182.526 137.542 182.522 137.542 182.518 137.542Z" fill="#6D2DF0" fill-opacity="0.2"/>
  <path fill-rule="evenodd" clip-rule="evenodd" d="M184.451 138.236C184.495 138.099 184.641 138.023 184.778 138.066C185.038 138.147 185.29 138.245 185.532 138.354C185.663 138.412 185.722 138.567 185.663 138.698C185.604 138.829 185.45 138.888 185.318 138.829C185.093 138.728 184.86 138.638 184.622 138.563C184.485 138.52 184.408 138.374 184.451 138.236Z" fill="#6D2DF0" fill-opacity="0.2"/>
  <path fill-rule="evenodd" clip-rule="evenodd" d="M185.777 138.773C185.841 138.643 185.997 138.59 186.126 138.654C186.887 139.028 187.441 139.49 187.805 139.859C187.988 140.044 188.123 140.206 188.214 140.324C188.259 140.383 188.293 140.43 188.317 140.464C188.328 140.481 188.337 140.494 188.344 140.503C188.347 140.508 188.349 140.512 188.351 140.515L188.353 140.518L188.354 140.519L188.354 140.52C188.354 140.52 188.355 140.52 188.141 140.655L188.355 140.52C188.431 140.642 188.395 140.803 188.273 140.879C188.151 140.956 187.991 140.92 187.914 140.798" fill="#6D2DF0" fill-opacity="0.2"/>
  <path fill-rule="evenodd" clip-rule="evenodd" d="M180.339 148.029C180.527 147.849 180.796 147.773 181.099 147.773C181.467 147.773 181.724 147.959 181.882 148.214C182.032 148.455 182.097 148.756 182.124 149.026C182.153 149.3 182.145 149.571 182.13 149.771C182.123 149.871 182.115 149.955 182.107 150.014C182.104 150.044 182.101 150.067 182.098 150.084C182.098 150.086 182.098 150.088 182.098 150.089V150.389C182.487 150.519 182.906 150.484 183.292 150.345C183.344 150.326 183.395 150.306 183.444 150.284C183.455 149.955 183.47 149.663 183.493 149.423C183.507 149.27 183.525 149.134 183.546 149.022C183.566 148.917 183.595 148.806 183.641 148.722C183.761 148.508 183.914 148.345 184.097 148.264C184.288 148.179 184.495 148.192 184.665 148.306C184.988 148.521 185.069 148.997 184.935 149.487C184.856 149.775 184.657 150.05 184.405 150.277C184.273 150.397 184.122 150.508 183.957 150.605C183.939 151.477 183.951 152.567 183.977 153.638C184.002 154.721 184.04 155.781 184.072 156.57C184.088 156.965 184.102 157.292 184.112 157.52C184.118 157.634 184.122 157.724 184.125 157.785L184.129 157.877C184.129 157.878 184.129 157.878 183.869 157.89C183.609 157.903 183.609 157.903 183.609 157.903L183.604 157.809C183.602 157.748 183.597 157.658 183.592 157.544C183.582 157.315 183.567 156.987 183.552 156.591C183.52 155.8 183.481 154.737 183.456 153.65C183.433 152.677 183.42 151.683 183.432 150.848C183.019 150.99 182.552 151.041 182.098 150.931V154.252C182.098 154.395 181.981 154.512 181.837 154.512C181.693 154.512 181.577 154.395 181.577 154.252V150.726C181.435 150.646 181.297 150.546 181.166 150.424C180.54 149.839 180.157 149.234 180.107 148.732C180.081 148.47 180.145 148.215 180.339 148.029ZM181.577 150.092V150.07C181.577 150.057 181.578 150.043 181.58 150.03L181.58 150.029L181.58 150.026C181.581 150.023 181.582 150.018 181.583 150.011C181.584 149.998 181.587 149.978 181.59 149.952C181.597 149.899 181.605 149.824 181.611 149.734C181.624 149.551 181.63 149.313 181.606 149.079C181.582 148.839 181.528 148.631 181.44 148.49C181.362 148.363 181.261 148.294 181.099 148.294C180.873 148.294 180.756 148.351 180.699 148.405C180.649 148.453 180.611 148.535 180.625 148.68C180.657 148.992 180.926 149.487 181.521 150.043C181.54 150.06 181.558 150.076 181.577 150.092ZM183.869 157.89L183.609 157.903C183.616 158.047 183.738 158.157 183.882 158.15C184.025 158.143 184.136 158.021 184.129 157.877L183.869 157.89ZM183.978 149.958C184.005 149.936 184.031 149.914 184.056 149.891C184.262 149.704 184.389 149.51 184.432 149.35C184.543 148.945 184.42 148.768 184.376 148.739C184.363 148.731 184.346 148.723 184.308 148.74C184.262 148.761 184.181 148.823 184.097 148.975C184.097 148.975 184.097 148.975 184.097 148.975M183.978 149.958C183.987 149.777 183.998 149.613 184.011 149.472C184.025 149.327 184.04 149.21 184.058 149.12C184.066 149.075 184.075 149.04 184.083 149.014C184.086 149.001 184.09 148.991 184.093 148.984C184.095 148.978 184.097 148.975 184.097 148.975" fill="#6D2DF0" fill-opacity="0.2"/>
  <path fill-rule="evenodd" clip-rule="evenodd" d="M179.494 134.92C179.631 134.876 179.777 134.952 179.821 135.089L180.272 136.506C180.316 136.643 180.24 136.79 180.103 136.833C179.966 136.877 179.819 136.801 179.776 136.664L179.325 135.247C179.281 135.11 179.357 134.963 179.494 134.92Z" fill="#6D2DF0" fill-opacity="0.2"/>
  <path fill-rule="evenodd" clip-rule="evenodd" d="M190.815 138.099C190.903 138.212 190.883 138.376 190.77 138.464L189.288 139.624C189.175 139.713 189.011 139.693 188.923 139.58C188.834 139.466 188.854 139.303 188.967 139.214L190.449 138.054C190.562 137.966 190.726 137.986 190.815 138.099Z" fill="#6D2DF0" fill-opacity="0.2"/>
  <path fill-rule="evenodd" clip-rule="evenodd" d="M185.169 133.877C185.31 133.909 185.398 134.048 185.366 134.188L184.807 136.641C184.775 136.782 184.636 136.869 184.496 136.838C184.355 136.806 184.268 136.666 184.3 136.526L184.858 134.073C184.89 133.933 185.029 133.845 185.169 133.877Z" fill="#6D2DF0" fill-opacity="0.2"/>
  <path d="M186.838 159.067H177.908C177.794 159.067 177.701 158.974 177.701 158.86V158.758C177.701 158.644 177.794 158.551 177.908 158.551H186.838C186.953 158.551 187.046 158.644 187.046 158.758V158.86C187.046 158.974 186.953 159.067 186.838 159.067Z" fill="#6D2DF0" fill-opacity="0.2"/>
  <path fill-rule="evenodd" clip-rule="evenodd" d="M177.927 158.775V158.841H186.821V158.775H177.927ZM177.477 158.757C177.477 158.518 177.67 158.324 177.909 158.324H186.839C187.078 158.324 187.272 158.518 187.272 158.757V158.858" fill="#6D2DF0" fill-opacity="0.2"/>
  <path d="M186.838 160.23H177.908C177.794 160.23 177.701 160.137 177.701 160.023V159.921C177.701 159.807 177.794 159.714 177.908 159.714H186.838C186.953 159.714 187.046 159.807 187.046 159.921V160.023C187.046 160.138 186.953 160.23 186.838 160.23Z" fill="#6D2DF0" fill-opacity="0.2"/>
  <path fill-rule="evenodd" clip-rule="evenodd" d="M177.927 159.939V160.005H186.821V159.939H177.927ZM177.477 159.921C177.477 159.682 177.67 159.488 177.909 159.488H186.839C187.078 159.488 187.272 159.682 187.272 159.921V160.023C187.272 160.262 187.078 160.455 186.839 160.455H177.909C177.67 160.455 177.477 160.262 177.477 160.023V159.921Z" fill="#6D2DF0" fill-opacity="0.2"/>
  <path d="M186.838 161.394H177.908C177.794 161.394 177.701 161.301 177.701 161.187V161.085C177.701 160.971 177.794 160.878 177.908 160.878H186.838C186.953 160.878 187.046 160.971 187.046 161.085V161.187C187.046 161.302 186.953 161.394 186.838 161.394Z" fill="#6D2DF0" fill-opacity="0.2"/>
  <path fill-rule="evenodd" clip-rule="evenodd" d="M177.927 161.102V161.168H186.821V161.102H177.927ZM177.477 161.084C177.477 160.845 177.67 160.651 177.909 160.651H186.839C187.078 160.651 187.272 160.845 187.272 161.084V161.186C187.272 161.425 187.078 161.619 186.839 161.619H177.909C177.67 161.619 177.477 161.425 177.477 161.186V161.084Z" fill="#6D2DF0" fill-opacity="0.2"/>
  <path d="M182.648 162.016H182.146H178.062L179.382 163.833C179.612 164.15 179.98 164.337 180.371 164.337H182.146H182.648H184.405C184.797 164.337 185.166 164.149 185.396 163.83L186.706 162.016H182.648V162.016Z" fill="#6D2DF0" fill-opacity="0.2"/>
  <path fill-rule="evenodd" clip-rule="evenodd" d="M177.857 161.912C177.895 161.837 177.973 161.789 178.057 161.789H182.643C182.645 161.789 182.648 161.789 182.651 161.789H186.701C186.786 161.789 186.864 161.837 186.902 161.912C186.941 161.987 186.934 162.078 186.884 162.147L185.574 163.961C185.302 164.338 184.865 164.561 184.4 164.561H180.366C179.902 164.561 179.467 164.339 179.194 163.964C179.194 163.964 179.194 163.964 179.194 163.964L177.875 162.147C177.825 162.078 177.818 161.988 177.857 161.912ZM182.635 162.24H178.5L179.559 163.699C179.747 163.958 180.047 164.11 180.366 164.11H184.4C184.72 164.11 185.021 163.957 185.208 163.697C185.208 163.697 185.208 163.697 185.208 163.697L186.261 162.24H182.643C182.64 162.24 182.638 162.24 182.635 162.24Z" fill="#6D2DF0" fill-opacity="0.2"/>
  <path fill-rule="evenodd" clip-rule="evenodd" d="M52.6445 175.026C52.6955 174.947 52.8007 174.925 52.8796 174.976L53.5744 175.425C53.6532 175.476 53.6758 175.581 53.6248 175.66C53.5738 175.739 53.4686 175.761 53.3897 175.71L52.6949 175.261C52.6161 175.21 52.5935 175.105 52.6445 175.026Z" fill="#6D2DF0" fill-opacity="0.2"/>
  <path fill-rule="evenodd" clip-rule="evenodd" d="M63.9819 177.146C63.9526 177.057 64.0013 176.961 64.0905 176.931L64.8767 176.674C64.9659 176.644 65.062 176.693 65.0913 176.782C65.1205 176.871 65.0719 176.968 64.9826 176.997L64.1965 177.254C64.1072 177.284 64.0111 177.235 63.9819 177.146Z" fill="#6D2DF0" fill-opacity="0.2"/>
  <path fill-rule="evenodd" clip-rule="evenodd" d="M54.3753 173.959C54.4354 173.887 54.5426 173.877 54.6148 173.937L54.7951 174.087C54.8673 174.147 54.8771 174.254 54.8171 174.326C54.757 174.399 54.6498 174.408 54.5776 174.348L54.3972 174.198C54.325 174.138 54.3152 174.031 54.3753 173.959Z" fill="#6D2DF0" fill-opacity="0.2"/>
  <path fill-rule="evenodd" clip-rule="evenodd" d="M51.052 177.773C51.0748 177.682 51.1671 177.627 51.2582 177.65L52.6978 178.01C52.7889 178.032 52.8443 178.125 52.8215 178.216C52.7987 178.307 52.7064 178.362 52.6153 178.34L51.1757 177.98C51.0846 177.957 51.0292 177.864 51.052 177.773Z" fill="#6D2DF0" fill-opacity="0.2"/>
  <path fill-rule="evenodd" clip-rule="evenodd" d="M58.6543 173.227C61.6226 173.299 64.0071 175.727 64.0071 178.712C64.0071 179.636 63.7783 180.507 63.3748 181.271C63.2015 181.675 62.798 182.655 62.3944 183.92C62.2084 184.502 62.0664 185.088 61.9709 185.55C61.9232 185.781 61.8873 185.981 61.8634 186.133C61.8386 186.29 61.8288 186.384 61.8288 186.414C61.8288 186.429 61.8291 186.445 61.8296 186.463C61.8399 186.783 61.5843 187.05 61.2625 187.05H55.7427C55.4209 187.05 55.1654 186.783 55.1755 186.463C55.1761 186.445 55.1764 186.429 55.1764 186.414C55.1764 186.384 55.1665 186.29 55.1417 186.133C55.1178 185.981 55.0819 185.781 55.0342 185.55C54.9388 185.088 54.7967 184.502 54.6107 183.92C54.207 182.655 53.8037 181.675 53.6303 181.271C53.2268 180.507 52.998 179.636 52.998 178.712C52.998 175.721 55.3896 173.296 58.5493 173.227C58.5575 173.226 58.5659 173.226 58.5743 173.226C58.5808 173.226 58.5908 173.226 58.5975 173.226C58.5989 173.226 58.6002 173.226 58.6012 173.226C58.6038 173.226 58.6067 173.226 58.6106 173.226L58.6111 173.226C58.6157 173.226 58.6219 173.226 58.6283 173.226C58.6371 173.226 58.6458 173.226 58.6543 173.227ZM58.5892 173.566C58.5848 173.566 58.5804 173.567 58.5759 173.567C55.5832 173.622 53.338 175.908 53.338 178.712C53.338 179.582 53.5537 180.4 53.934 181.118C53.9362 181.122 53.9381 181.126 53.94 181.13C54.1147 181.537 54.5245 182.531 54.9346 183.816C55.1251 184.413 55.2699 185.011 55.3672 185.482C55.4158 185.717 55.4527 185.922 55.4776 186.08C55.5016 186.232 55.5163 186.353 55.5163 186.414C55.5163 186.433 55.5159 186.453 55.5153 186.474L55.5153 186.474C55.5112 186.603 55.6145 186.71 55.7427 186.71H61.2625C61.3907 186.71 61.494 186.603 61.4898 186.474L61.4898 186.474C61.4892 186.453 61.4888 186.433 61.4888 186.414C61.4888 186.353 61.5036 186.232 61.5275 186.08C61.5524 185.922 61.5893 185.717 61.638 185.482C61.7352 185.011 61.88 184.413 62.0705 183.816C62.4805 182.531 62.8904 181.537 63.0651 181.13C63.067 181.126 63.069 181.122 63.0711 181.118C63.4514 180.4 63.6671 179.582 63.6671 178.712C63.6671 175.905 61.4198 173.624 58.6263 173.567C58.6217 173.567 58.6171 173.566 58.6126 173.566C58.6093 173.566 58.6056 173.566 58.6018 173.566C58.6003 173.566 58.5988 173.566 58.5972 173.566C58.594 173.566 58.5915 173.566 58.5892 173.566Z" fill="#6D2DF0" fill-opacity="0.2"/>
  <path fill-rule="evenodd" clip-rule="evenodd" d="M59.8516 174.02C59.8797 173.93 59.9751 173.88 60.0647 173.908C60.2345 173.961 60.399 174.025 60.5567 174.096C60.6424 174.135 60.6807 174.235 60.6423 174.321C60.6038 174.407 60.5032 174.445 60.4175 174.406C60.2705 174.34 60.1185 174.282 59.963 174.233C59.8733 174.205 59.8235 174.109 59.8516 174.02Z" fill="#6D2DF0" fill-opacity="0.2"/>
  <path fill-rule="evenodd" clip-rule="evenodd" d="M60.7188 174.369C60.7602 174.284 60.8621 174.249 60.9464 174.291C61.4432 174.535 61.805 174.837 62.0431 175.078C62.1622 175.199 62.2506 175.305 62.3099 175.382C62.3395 175.42 62.3618 175.451 62.3771 175.473C62.3847 175.484 62.3906 175.493 62.3947 175.499C62.3968 175.502 62.3984 175.505 62.3996 175.506L62.401 175.509L62.4015 175.509L62.4018 175.51C62.4018 175.51 62.4018 175.51 62.2626 175.598L62.4018 175.51C62.4519 175.589 62.428 175.694 62.3485 175.744C62.2692 175.794 62.1643 175.771 62.1142 175.691" fill="#6D2DF0" fill-opacity="0.2"/>
  <path fill-rule="evenodd" clip-rule="evenodd" d="M57.1725 180.411C57.2952 180.293 57.4709 180.244 57.669 180.244C57.9092 180.244 58.0764 180.365 58.1801 180.532C58.2778 180.689 58.32 180.885 58.338 181.061C58.3564 181.241 58.3513 181.418 58.342 181.548C58.3374 181.613 58.3316 181.668 58.3269 181.707C58.3246 181.726 58.3225 181.741 58.321 181.752C58.3208 181.753 58.3207 181.755 58.3205 181.756V181.952C58.5747 182.037 58.848 182.013 59.1004 181.923C59.1341 181.91 59.1672 181.897 59.1996 181.883C59.2064 181.669 59.2166 181.478 59.2313 181.321C59.2407 181.221 59.2521 181.132 59.2661 181.059C59.2793 180.99 59.2977 180.918 59.3283 180.863C59.4061 180.723 59.5064 180.618 59.6256 180.565C59.7502 180.509 59.8853 180.518 59.9966 180.592C60.2073 180.732 60.26 181.043 60.1727 181.363C60.1214 181.551 59.9911 181.73 59.827 181.879C59.7406 181.957 59.6419 182.029 59.5343 182.093C59.5225 182.662 59.5307 183.373 59.5471 184.073C59.5637 184.779 59.5886 185.471 59.6093 185.986C59.6197 186.244 59.629 186.458 59.6358 186.607C59.6392 186.681 59.6419 186.739 59.6438 186.779L59.6467 186.84C59.6467 186.84 59.6467 186.84 59.4769 186.848C59.3071 186.857 59.3071 186.857 59.3071 186.857L59.3042 186.795C59.3023 186.755 59.2996 186.697 59.2962 186.622C59.2894 186.472 59.2801 186.258 59.2697 186C59.2489 185.484 59.2239 184.79 59.2073 184.081C59.1923 183.445 59.1841 182.796 59.1915 182.251C58.9219 182.344 58.617 182.377 58.3205 182.306V184.473C58.3205 184.567 58.2444 184.643 58.1505 184.643C58.0566 184.643 57.9805 184.567 57.9805 184.473V182.172C57.888 182.119 57.7982 182.054 57.7125 181.974C57.3037 181.593 57.054 181.198 57.0212 180.87C57.0041 180.699 57.0459 180.532 57.1725 180.411ZM57.9805 181.758V181.743C57.9805 181.735 57.9812 181.726 57.9826 181.717L57.9827 181.717L57.983 181.715C57.9833 181.713 57.9838 181.709 57.9844 181.705C57.9856 181.696 57.9874 181.683 57.9894 181.666C57.9935 181.632 57.9987 181.583 58.0029 181.524C58.0114 181.405 58.0155 181.249 57.9998 181.096C57.9839 180.94 57.9489 180.804 57.8915 180.712C57.8401 180.629 57.7744 180.584 57.669 180.584C57.5213 180.584 57.4445 180.621 57.4077 180.656C57.3747 180.688 57.35 180.741 57.3595 180.836C57.3799 181.04 57.5557 181.363 57.9445 181.726C57.9564 181.737 57.9684 181.747 57.9805 181.758ZM59.4769 186.848L59.3071 186.857C59.3117 186.95 59.3914 187.023 59.4852 187.018C59.579 187.013 59.6513 186.934 59.6467 186.84L59.4769 186.848ZM59.5483 181.67C59.5657 181.656 59.5825 181.641 59.5988 181.627C59.7337 181.504 59.8162 181.378 59.8447 181.273C59.9169 181.009 59.8366 180.894 59.808 180.875C59.7997 180.869 59.7886 180.864 59.7636 180.875C59.7332 180.889 59.6807 180.929 59.6255 181.028C59.6255 181.028 59.6255 181.028 59.6255 181.028M59.5483 181.67C59.554 181.552 59.5611 181.445 59.5698 181.353C59.5786 181.259 59.5888 181.182 59.6 181.123C59.6056 181.094 59.6111 181.071 59.6163 181.054C59.6188 181.045 59.6211 181.039 59.6229 181.034C59.6245 181.03 59.6255 181.028 59.6255 181.028" fill="#6D2DF0" fill-opacity="0.2"/>
  <path fill-rule="evenodd" clip-rule="evenodd" d="M56.6264 171.854C56.7159 171.825 56.8115 171.875 56.84 171.964L57.1345 172.89C57.163 172.979 57.1135 173.075 57.024 173.104C56.9345 173.132 56.8389 173.083 56.8104 172.993L56.5159 172.067C56.4874 171.978 56.5369 171.882 56.6264 171.854Z" fill="#6D2DF0" fill-opacity="0.2"/>
  <path fill-rule="evenodd" clip-rule="evenodd" d="M64.0237 173.93C64.0816 174.004 64.0686 174.111 63.9946 174.169L63.0268 174.927C62.9529 174.984 62.846 174.971 62.7881 174.897C62.7302 174.823 62.7433 174.717 62.8172 174.659L63.785 173.901C63.859 173.843 63.9659 173.857 64.0237 173.93Z" fill="#6D2DF0" fill-opacity="0.2"/>
  <path fill-rule="evenodd" clip-rule="evenodd" d="M60.3319 171.174C60.4235 171.195 60.4808 171.286 60.46 171.378L60.0955 172.979C60.0747 173.071 59.9836 173.128 59.8921 173.107C59.8005 173.086 59.7432 172.995 59.764 172.904L60.1285 171.302C60.1493 171.211 60.2404 171.153 60.3319 171.174Z" fill="#6D2DF0" fill-opacity="0.2"/>
  <path d="M61.4314 187.618H55.6021C55.5274 187.618 55.4668 187.558 55.4668 187.483V187.417C55.4668 187.342 55.5274 187.281 55.6021 187.281H61.4314C61.5062 187.281 61.5667 187.342 61.5667 187.417V187.483C61.5668 187.558 61.5062 187.618 61.4314 187.618Z" fill="#6D2DF0" fill-opacity="0.2"/>
  <path fill-rule="evenodd" clip-rule="evenodd" d="M55.6107 187.428V187.471H61.4163V187.428H55.6107ZM55.3164 187.416C55.3164 187.26 55.4429 187.134 55.5989 187.134H61.4282C61.5843 187.134 61.7106 187.26 61.7106 187.416V187.483" fill="#6D2DF0" fill-opacity="0.2"/>
  <path d="M61.4314 188.377H55.6021C55.5274 188.377 55.4668 188.317 55.4668 188.242V188.175C55.4668 188.101 55.5274 188.04 55.6021 188.04H61.4314C61.5062 188.04 61.5668 188.101 61.5668 188.175V188.242C61.5668 188.317 61.5062 188.377 61.4314 188.377Z" fill="#6D2DF0" fill-opacity="0.2"/>
  <path fill-rule="evenodd" clip-rule="evenodd" d="M55.6107 188.188V188.231H61.4164V188.188H55.6107ZM55.3164 188.176C55.3164 188.02 55.4429 187.894 55.5989 187.894H61.4282C61.5842 187.894 61.7106 188.02 61.7106 188.176V188.242C61.7106 188.399 61.5841 188.525 61.4282 188.525H55.5989C55.4429 188.525 55.3164 188.398 55.3164 188.242V188.176Z" fill="#6D2DF0" fill-opacity="0.2"/>
  <path d="M61.4314 189.137H55.6021C55.5274 189.137 55.4668 189.076 55.4668 189.002V188.935C55.4668 188.86 55.5274 188.8 55.6021 188.8H61.4314C61.5062 188.8 61.5668 188.86 61.5668 188.935V189.002C61.5668 189.076 61.5062 189.137 61.4314 189.137Z" fill="#6D2DF0" fill-opacity="0.2"/>
  <path fill-rule="evenodd" clip-rule="evenodd" d="M55.6107 188.948V188.99H61.4164V188.948H55.6107ZM55.3164 188.936C55.3164 188.78 55.4429 188.653 55.5989 188.653H61.4282C61.5842 188.653 61.7106 188.78 61.7106 188.936V189.002C61.7106 189.158 61.5841 189.285 61.4282 189.285H55.5989C55.4429 189.285 55.3164 189.158 55.3164 189.002V188.936Z" fill="#6D2DF0" fill-opacity="0.2"/>
  <path d="M58.6945 189.544H58.3668H55.7012L56.5624 190.73C56.7126 190.937 56.9527 191.059 57.2083 191.059H58.3668H58.6945H59.8413C60.0977 191.059 60.3384 190.936 60.4884 190.728L61.3438 189.544H58.6945V189.544Z" fill="#6D2DF0" fill-opacity="0.2"/>
  <path fill-rule="evenodd" clip-rule="evenodd" d="M55.5668 189.477C55.592 189.428 55.6426 189.396 55.6979 189.396H58.6912C58.6929 189.396 58.6946 189.397 58.6963 189.397H61.3405C61.3958 189.397 61.4464 189.428 61.4716 189.477C61.4967 189.526 61.4922 189.585 61.4598 189.63L60.6045 190.814C60.4267 191.06 60.1417 191.206 59.8381 191.206H57.2051C56.9023 191.206 56.6179 191.061 56.4401 190.816C56.4401 190.816 56.4401 190.816 56.4401 190.816L55.5789 189.63C55.5464 189.585 55.5417 189.526 55.5668 189.477ZM58.6861 189.691H55.9866L56.6782 190.643C56.8007 190.812 56.9965 190.912 57.2051 190.912H59.8381C60.0472 190.912 60.2435 190.811 60.3659 190.642C60.3659 190.642 60.3659 190.642 60.3659 190.642L61.0528 189.691H58.6912C58.6895 189.691 58.6878 189.691 58.6861 189.691Z" fill="#6D2DF0" fill-opacity="0.2"/>
  <path fill-rule="evenodd" clip-rule="evenodd" d="M191.853 81.7779C191.904 81.6991 192.01 81.6765 192.089 81.7275L192.783 82.1767C192.862 82.2277 192.885 82.3329 192.834 82.4118C192.783 82.4907 192.678 82.5133 192.599 82.4623L191.904 82.0131C191.825 81.9621 191.802 81.8568 191.853 81.7779Z" fill="#6D2DF0" fill-opacity="0.2"/>
  <path fill-rule="evenodd" clip-rule="evenodd" d="M203.191 83.8978C203.162 83.8086 203.21 83.7125 203.3 83.6832L204.086 83.4255C204.175 83.3963 204.271 83.4449 204.3 83.5342C204.33 83.6234 204.281 83.7195 204.192 83.7487L203.405 84.0064C203.316 84.0357 203.22 83.9871 203.191 83.8978Z" fill="#6D2DF0" fill-opacity="0.2"/>
  <path fill-rule="evenodd" clip-rule="evenodd" d="M193.584 80.7107C193.644 80.6385 193.752 80.6287 193.824 80.6888L194.004 80.8388C194.076 80.8989 194.086 81.0061 194.026 81.0783C193.966 81.1505 193.859 81.1603 193.787 81.1003L193.606 80.9502C193.534 80.8901 193.524 80.7829 193.584 80.7107Z" fill="#6D2DF0" fill-opacity="0.2"/>
  <path fill-rule="evenodd" clip-rule="evenodd" d="M190.261 84.5253C190.284 84.4342 190.376 84.3788 190.467 84.4016L191.907 84.7615C191.998 84.7843 192.053 84.8766 192.03 84.9678C192.008 85.0589 191.915 85.1143 191.824 85.0915L190.385 84.7316C190.294 84.7088 190.238 84.6164 190.261 84.5253Z" fill="#6D2DF0" fill-opacity="0.2"/>
  <path fill-rule="evenodd" clip-rule="evenodd" d="M197.863 79.9793C200.832 80.051 203.216 82.4788 203.216 85.4643C203.216 86.3881 202.987 87.2587 202.584 88.0229C202.41 88.4269 202.007 89.4067 201.603 90.6715C201.417 91.2544 201.275 91.84 201.18 92.3023C201.132 92.5333 201.096 92.7326 201.072 92.8845C201.048 93.0417 201.038 93.1363 201.038 93.1656C201.038 93.1807 201.038 93.1972 201.039 93.2147C201.049 93.5348 200.793 93.8017 200.472 93.8017H194.952C194.63 93.8017 194.374 93.5347 194.384 93.2148C194.385 93.1971 194.385 93.1807 194.385 93.1656C194.385 93.1363 194.375 93.0417 194.351 92.8845C194.327 92.7326 194.291 92.5333 194.243 92.3023C194.148 91.8401 194.006 91.2544 193.82 90.6715C193.416 89.4067 193.013 88.4269 192.839 88.0229C192.436 87.2588 192.207 86.3881 192.207 85.4643C192.207 82.4729 194.599 80.0476 197.758 79.9792C197.767 79.978 197.775 79.9775 197.783 79.9775C197.79 79.9776 197.8 79.9779 197.806 79.978C197.808 79.9781 197.809 79.9781 197.81 79.9781C197.813 79.9781 197.816 79.978 197.82 79.9779L197.82 79.9779C197.825 79.9778 197.831 79.9776 197.837 79.9775C197.846 79.9775 197.855 79.9781 197.863 79.9793ZM197.798 80.3179C197.794 80.3183 197.789 80.3186 197.785 80.3187C194.792 80.3739 192.547 82.6599 192.547 85.4643C192.547 86.3337 192.763 87.1521 193.143 87.8699C193.145 87.874 193.147 87.8782 193.149 87.8824C193.324 88.2893 193.733 89.2834 194.144 90.5681C194.334 91.1651 194.479 91.7627 194.576 92.2335C194.625 92.4691 194.662 92.6738 194.687 92.8317C194.711 92.9842 194.725 93.1052 194.725 93.1656C194.725 93.1851 194.725 93.2051 194.724 93.2255L194.724 93.2256C194.72 93.3553 194.823 93.4617 194.952 93.4617H200.472C200.6 93.4617 200.703 93.3553 200.699 93.2257L200.699 93.2255C200.698 93.2052 200.698 93.1851 200.698 93.1656C200.698 93.1052 200.713 92.9842 200.737 92.8316C200.761 92.6737 200.798 92.469 200.847 92.2335C200.944 91.7626 201.089 91.165 201.28 90.5681C201.69 89.2834 202.099 88.2893 202.274 87.8824C202.276 87.8782 202.278 87.874 202.28 87.8699C202.66 87.152 202.876 86.3337 202.876 85.4643C202.876 82.6573 200.629 80.3757 197.835 80.3187C197.831 80.3186 197.826 80.3184 197.822 80.3179C197.818 80.318 197.815 80.3181 197.811 80.3181C197.809 80.3181 197.808 80.3181 197.806 80.3181C197.803 80.318 197.8 80.318 197.798 80.3179Z" fill="#6D2DF0" fill-opacity="0.2"/>
  <path fill-rule="evenodd" clip-rule="evenodd" d="M199.061 80.7706C199.089 80.681 199.184 80.6311 199.274 80.6592C199.443 80.7124 199.608 80.7763 199.766 80.8471C199.851 80.8855 199.89 80.9862 199.851 81.0719C199.813 81.1575 199.712 81.1958 199.626 81.1574C199.48 81.0914 199.328 81.0325 199.172 80.9837C199.082 80.9556 199.032 80.8602 199.061 80.7706Z" fill="#6D2DF0" fill-opacity="0.2"/>
  <path fill-rule="evenodd" clip-rule="evenodd" d="M199.928 81.1195C199.969 81.0352 200.071 81.0005 200.155 81.0419C200.652 81.286 201.014 81.5878 201.252 81.8292C201.371 81.95 201.46 82.0559 201.519 82.1326C201.548 82.1709 201.571 82.202 201.586 82.224C201.594 82.2349 201.6 82.2437 201.604 82.2499C201.606 82.253 201.607 82.2555 201.609 82.2573L201.61 82.2596L201.611 82.2604L201.611 82.2608C201.611 82.2608 201.611 82.2609 201.472 82.3486L201.611 82.2609C201.661 82.3404 201.637 82.4454 201.558 82.4954C201.478 82.5454 201.373 82.5216 201.323 82.4424" fill="#6D2DF0" fill-opacity="0.2"/>
  <path fill-rule="evenodd" clip-rule="evenodd" d="M196.381 87.163C196.504 87.0454 196.68 86.9961 196.878 86.9961C197.118 86.9961 197.285 87.1173 197.389 87.284C197.487 87.4409 197.529 87.6373 197.547 87.8135C197.565 87.9929 197.56 88.1696 197.551 88.2998C197.546 88.3653 197.541 88.42 197.536 88.4586C197.534 88.478 197.532 88.4934 197.53 88.5041C197.53 88.5054 197.53 88.5067 197.529 88.5079V88.7038C197.784 88.7885 198.057 88.7652 198.309 88.6745C198.343 88.6624 198.376 88.6492 198.409 88.6349C198.415 88.4205 198.426 88.2297 198.44 88.073C198.45 87.9732 198.461 87.8844 198.475 87.811C198.488 87.7423 198.507 87.6703 198.537 87.6153C198.615 87.4753 198.715 87.3695 198.835 87.3165C198.959 87.2611 199.094 87.2695 199.206 87.3437C199.416 87.4842 199.469 87.7946 199.382 88.1148C199.33 88.3027 199.2 88.4819 199.036 88.6306C198.95 88.7088 198.851 88.7813 198.743 88.8447C198.731 89.4135 198.74 90.1253 198.756 90.8245C198.773 91.5311 198.798 92.223 198.818 92.7384C198.829 92.9961 198.838 93.2095 198.845 93.3585C198.848 93.433 198.851 93.4914 198.853 93.5312L198.856 93.5918C198.856 93.5919 198.856 93.5919 198.686 93.6002C198.516 93.6085 198.516 93.6085 198.516 93.6085L198.513 93.5472C198.511 93.5073 198.509 93.4486 198.505 93.3739C198.498 93.2244 198.489 93.0104 198.479 92.7521C198.458 92.2356 198.433 91.5416 198.416 90.8325C198.401 90.1972 198.393 89.548 198.401 89.0028C198.131 89.0955 197.826 89.129 197.529 89.0575V91.2249C197.529 91.3188 197.453 91.3949 197.36 91.3949C197.266 91.3949 197.19 91.3188 197.19 91.2249V88.9236C197.097 88.8714 197.007 88.806 196.921 88.7261C196.513 88.3445 196.263 87.9496 196.23 87.6217C196.213 87.4507 196.255 87.2843 196.381 87.163ZM197.19 88.5098V88.4954C197.19 88.4866 197.19 88.4777 197.192 88.469L197.192 88.4686L197.192 88.4665C197.192 88.4645 197.193 88.4612 197.193 88.4569C197.195 88.4481 197.196 88.4349 197.198 88.4179C197.203 88.3839 197.208 88.3348 197.212 88.2757C197.22 88.1565 197.224 88.0009 197.209 87.848C197.193 87.6918 197.158 87.5559 197.1 87.4636C197.049 87.381 196.983 87.3361 196.878 87.3361C196.73 87.3361 196.653 87.3732 196.617 87.4084C196.584 87.44 196.559 87.4929 196.568 87.5878C196.589 87.7917 196.765 88.1146 197.153 88.4776C197.165 88.4887 197.177 88.4994 197.19 88.5098ZM198.686 93.6002L198.516 93.6085C198.521 93.7022 198.6 93.7746 198.694 93.77C198.788 93.7654 198.86 93.6856 198.856 93.5918L198.686 93.6002ZM198.757 88.4221C198.775 88.4079 198.792 88.3933 198.808 88.3786C198.943 88.2564 199.025 88.1299 199.054 88.0253C199.126 87.7606 199.046 87.6456 199.017 87.6266C199.009 87.621 198.998 87.6161 198.973 87.6272C198.942 87.6407 198.89 87.6811 198.834 87.7804C198.834 87.7804 198.834 87.7804 198.834 87.7804M198.757 88.4221C198.763 88.3037 198.77 88.1972 198.779 88.1047C198.788 88.0105 198.798 87.9336 198.809 87.875C198.815 87.8458 198.82 87.8229 198.825 87.8058C198.828 87.7973 198.83 87.7909 198.832 87.7864C198.834 87.7822 198.834 87.7804 198.834 87.7804" fill="#6D2DF0" fill-opacity="0.2"/>
  <path fill-rule="evenodd" clip-rule="evenodd" d="M195.833 78.6018C195.923 78.5733 196.019 78.6228 196.047 78.7123L196.342 79.638C196.37 79.7275 196.321 79.8231 196.231 79.8516C196.142 79.8801 196.046 79.8306 196.017 79.7411L195.723 78.8154C195.694 78.7259 195.744 78.6303 195.833 78.6018Z" fill="#6D2DF0" fill-opacity="0.2"/>
  <path fill-rule="evenodd" clip-rule="evenodd" d="M203.231 80.6795C203.289 80.7535 203.276 80.8604 203.202 80.9182L202.234 81.6756C202.16 81.7335 202.053 81.7204 201.995 81.6465C201.937 81.5725 201.95 81.4656 202.024 81.4077L202.992 80.6504C203.066 80.5925 203.173 80.6056 203.231 80.6795Z" fill="#6D2DF0" fill-opacity="0.2"/>
  <path fill-rule="evenodd" clip-rule="evenodd" d="M199.539 77.9232C199.631 77.9441 199.688 78.0351 199.667 78.1267L199.303 79.728C199.282 79.8195 199.191 79.8769 199.099 79.856C199.008 79.8352 198.95 79.7441 198.971 79.6526L199.336 78.0512C199.356 77.9597 199.447 77.9024 199.539 77.9232Z" fill="#6D2DF0" fill-opacity="0.2"/>
  <path d="M200.638 94.3673H194.809C194.734 94.3673 194.674 94.3067 194.674 94.232V94.1656C194.674 94.0909 194.734 94.0303 194.809 94.0303H200.638C200.713 94.0303 200.774 94.0909 200.774 94.1656V94.232C200.774 94.3068 200.713 94.3673 200.638 94.3673Z" fill="#6D2DF0" fill-opacity="0.2"/>
  <path fill-rule="evenodd" clip-rule="evenodd" d="M194.818 94.1771V94.2199H200.623V94.1771H194.818ZM194.523 94.1653C194.523 94.0093 194.65 93.8828 194.806 93.8828H200.635C200.791 93.8828 200.918 94.0094 200.918 94.1653V94.2316" fill="#6D2DF0" fill-opacity="0.2"/>
  <path d="M200.638 95.1271H194.809C194.734 95.1271 194.674 95.0665 194.674 94.9918V94.9253C194.674 94.8506 194.734 94.79 194.809 94.79H200.638C200.713 94.79 200.774 94.8506 200.774 94.9253V94.9918C200.774 95.0666 200.713 95.1271 200.638 95.1271Z" fill="#6D2DF0" fill-opacity="0.2"/>
  <path fill-rule="evenodd" clip-rule="evenodd" d="M194.818 94.9369V94.9797H200.623V94.9369H194.818ZM194.523 94.925C194.523 94.7691 194.65 94.6426 194.806 94.6426H200.635C200.791 94.6426 200.918 94.7691 200.918 94.925V94.9915C200.918 95.1476 200.791 95.2739 200.635 95.2739H194.806C194.65 95.2739 194.523 95.1475 194.523 94.9915V94.925Z" fill="#6D2DF0" fill-opacity="0.2"/>
  <path d="M200.638 95.8859H194.809C194.734 95.8859 194.674 95.8253 194.674 95.7506V95.6841C194.674 95.6094 194.734 95.5488 194.809 95.5488H200.638C200.713 95.5488 200.774 95.6094 200.774 95.6841V95.7506C200.774 95.8254 200.713 95.8859 200.638 95.8859Z" fill="#6D2DF0" fill-opacity="0.2"/>
  <path fill-rule="evenodd" clip-rule="evenodd" d="M194.818 95.6966V95.7394H200.623V95.6966H194.818ZM194.523 95.6848C194.523 95.5288 194.65 95.4023 194.806 95.4023H200.635C200.791 95.4023 200.918 95.5288 200.918 95.6848V95.7513C200.918 95.9074 200.791 96.0337 200.635 96.0337H194.806C194.65 96.0337 194.523 95.9072 194.523 95.7513V95.6848Z" fill="#6D2DF0" fill-opacity="0.2"/>
  <path d="M197.901 96.293H197.574H194.908L195.769 97.4791C195.92 97.686 196.16 97.8084 196.415 97.8084H197.574H197.901H199.048C199.305 97.8084 199.545 97.6853 199.695 97.4775L200.551 96.2931H197.901V96.293Z" fill="#6D2DF0" fill-opacity="0.2"/>
  <path fill-rule="evenodd" clip-rule="evenodd" d="M194.774 96.2258C194.799 96.1765 194.85 96.1455 194.905 96.1455H197.898C197.9 96.1455 197.902 96.1455 197.903 96.1456H200.548C200.603 96.1456 200.653 96.1765 200.679 96.2257C200.704 96.2749 200.699 96.3341 200.667 96.3789L199.812 97.5633C199.634 97.8094 199.349 97.9552 199.045 97.9552H196.412C196.109 97.9552 195.825 97.8102 195.647 97.5652C195.647 97.5652 195.647 97.5652 195.647 97.5652L194.786 96.3791C194.753 96.3343 194.749 96.2751 194.774 96.2258ZM197.893 96.4398H195.194L195.885 97.3923C196.008 97.5611 196.204 97.6609 196.412 97.6609H199.045C199.254 97.6609 199.451 97.5605 199.573 97.391C199.573 97.391 199.573 97.391 199.573 97.391L200.26 96.4399H197.898C197.897 96.4399 197.895 96.4398 197.893 96.4398Z" fill="#6D2DF0" fill-opacity="0.2"/>
  <path fill-rule="evenodd" clip-rule="evenodd" d="M59.4871 72.5097C59.5652 72.3889 59.7265 72.3543 59.8473 72.4324L60.9116 73.1205C61.0324 73.1987 61.0671 73.3599 60.9889 73.4807C60.9108 73.6016 60.7495 73.6362 60.6287 73.5581L59.5644 72.8699C59.4436 72.7918 59.409 72.6305 59.4871 72.5097Z" fill="#6D2DF0" fill-opacity="0.2"/>
  <path fill-rule="evenodd" clip-rule="evenodd" d="M76.865 75.7573C76.8201 75.6205 76.8947 75.4734 77.0314 75.4286L78.2357 75.0338C78.3724 74.989 78.5196 75.0635 78.5644 75.2002C78.6092 75.3369 78.5347 75.4841 78.398 75.5289L77.1937 75.9237C77.0569 75.9685 76.9098 75.894 76.865 75.7573Z" fill="#6D2DF0" fill-opacity="0.2"/>
  <path fill-rule="evenodd" clip-rule="evenodd" d="M62.1443 70.8751C62.2363 70.7645 62.4005 70.7495 62.5111 70.8415L62.7874 71.0714C62.898 71.1635 62.913 71.3277 62.821 71.4383C62.729 71.5489 62.5647 71.5639 62.4541 71.4719L62.1779 71.242C62.0673 71.15 62.0522 70.9857 62.1443 70.8751Z" fill="#6D2DF0" fill-opacity="0.2"/>
  <path fill-rule="evenodd" clip-rule="evenodd" d="M57.0547 76.7178C57.0896 76.5783 57.231 76.4935 57.3705 76.5283L59.5747 77.0795C59.7143 77.1144 59.7991 77.2557 59.7642 77.3953C59.7293 77.5348 59.5879 77.6196 59.4484 77.5847L57.2442 77.0336C57.1047 76.9987 57.0198 76.8573 57.0547 76.7178Z" fill="#6D2DF0" fill-opacity="0.2"/>
  <path fill-rule="evenodd" clip-rule="evenodd" d="M68.7039 69.7537C73.251 69.8635 76.9038 73.5826 76.9038 78.1561C76.9038 79.5713 76.5534 80.905 75.9352 82.0757C75.6697 82.6946 75.0517 84.1956 74.4333 86.1331C74.1484 87.026 73.9308 87.9231 73.7846 88.6312C73.7115 88.9851 73.6565 89.2905 73.6199 89.5231C73.582 89.764 73.5668 89.9089 73.5668 89.9537C73.5668 89.9769 73.5673 90.0022 73.5681 90.0291C73.5839 90.5194 73.1923 90.9282 72.6995 90.9282H64.2435C63.7506 90.9282 63.3592 90.5193 63.3747 90.0292C63.3756 90.0021 63.376 89.9769 63.376 89.9537C63.376 89.9089 63.3609 89.7641 63.323 89.5232C63.2864 89.2905 63.2314 88.9852 63.1583 88.6313C63.012 87.9232 62.7945 87.0261 62.5095 86.1331C61.8911 84.1955 61.2732 82.6945 61.0076 82.0757C60.3895 80.9051 60.0391 79.5713 60.0391 78.1561C60.0391 73.5737 63.7026 69.8584 68.543 69.7535C68.5556 69.7517 68.5685 69.7509 68.5814 69.751C68.5913 69.7511 68.6067 69.7515 68.6169 69.7517C68.619 69.7518 68.621 69.7518 68.6226 69.7519C68.6265 69.7518 68.631 69.7517 68.637 69.7515L68.6377 69.7515C68.6448 69.7513 68.6542 69.7511 68.6641 69.751C68.6775 69.7509 68.6908 69.7518 68.7039 69.7537ZM68.6042 70.2724C68.5975 70.273 68.5907 70.2734 68.5838 70.2735C63.9992 70.3581 60.5599 73.8601 60.5599 78.1561C60.5599 79.488 60.8903 80.7417 61.4728 81.8413C61.4762 81.8476 61.4792 81.854 61.482 81.8605C61.7497 82.4837 62.3774 84.0066 63.0057 85.9747C63.2975 86.8891 63.5193 87.8046 63.6683 88.526C63.7428 88.8868 63.7994 89.2003 63.8374 89.4422C63.8742 89.6759 63.8968 89.8612 63.8968 89.9537C63.8968 89.9836 63.8962 90.0144 63.8953 90.0456L63.8953 90.0457C63.8889 90.2443 64.0472 90.4075 64.2435 90.4075H72.6995C72.8959 90.4075 73.054 90.2444 73.0476 90.0458L73.0476 90.0456C73.0466 90.0145 73.0461 89.9836 73.0461 89.9537C73.0461 89.8612 73.0687 89.6759 73.1054 89.4422C73.1435 89.2003 73.2 88.8867 73.2746 88.5259C73.4235 87.8046 73.6454 86.8891 73.9372 85.9747C74.5653 84.0066 75.1932 82.4837 75.4609 81.8605C75.4637 81.854 75.4667 81.8476 75.47 81.8414C76.0526 80.7416 76.383 79.488 76.383 78.1561C76.383 73.856 72.9404 70.3609 68.661 70.2737C68.6539 70.2735 68.6469 70.2731 68.64 70.2724C68.6349 70.2725 68.6293 70.2726 68.6235 70.2727C68.6212 70.2727 68.6188 70.2727 68.6165 70.2726C68.6116 70.2725 68.6076 70.2725 68.6042 70.2724Z" fill="#6D2DF0" fill-opacity="0.2"/>
  <path fill-rule="evenodd" clip-rule="evenodd" d="M70.5413 70.9668C70.5844 70.8295 70.7306 70.7531 70.8678 70.7962C71.1279 70.8777 71.3799 70.9756 71.6215 71.084C71.7528 71.1429 71.8115 71.2971 71.7526 71.4283C71.6937 71.5596 71.5395 71.6183 71.4082 71.5594C71.1831 71.4583 70.9503 71.3681 70.7119 71.2933C70.5746 71.2503 70.4982 71.1041 70.5413 70.9668Z" fill="#6D2DF0" fill-opacity="0.2"/>
  <path fill-rule="evenodd" clip-rule="evenodd" d="M71.8672 71.503C71.9306 71.374 72.0867 71.3207 72.2157 71.3842C72.9766 71.758 73.5305 72.2201 73.895 72.5897C74.0774 72.7746 74.2128 72.9369 74.3035 73.0543C74.3489 73.113 74.3831 73.1605 74.4065 73.1942C74.4182 73.211 74.4272 73.2244 74.4335 73.2339C74.4366 73.2387 74.4391 73.2425 74.4409 73.2453L74.4431 73.2488L74.4439 73.2499L74.4443 73.2506C74.4443 73.2507 74.4444 73.2507 74.2311 73.385L74.4444 73.2507C74.521 73.3724 74.4845 73.5332 74.3628 73.6098C74.2412 73.6864 74.0806 73.65 74.0039 73.5286" fill="#6D2DF0" fill-opacity="0.2"/>
  <path fill-rule="evenodd" clip-rule="evenodd" d="M66.4248 80.7596C66.6127 80.5794 66.882 80.5039 67.1854 80.5039C67.5533 80.5039 67.8096 80.6896 67.9684 80.9449C68.118 81.1854 68.1827 81.4862 68.2103 81.756C68.2384 82.0309 68.2306 82.3017 68.2164 82.501C68.2093 82.6013 68.2004 82.6852 68.1933 82.7444C68.1897 82.774 68.1866 82.7976 68.1843 82.8141C68.184 82.8161 68.1837 82.818 68.1834 82.8198V83.1199C68.5728 83.2497 68.9916 83.214 69.3781 83.0751C69.4298 83.0566 69.4805 83.0362 69.5302 83.0143C69.5406 82.6859 69.5563 82.3936 69.5787 82.1537C69.593 82.0007 69.6105 81.8648 69.6321 81.7523C69.6522 81.647 69.6805 81.5368 69.7273 81.4525C69.8464 81.238 70.0002 81.0759 70.1827 80.9948C70.3736 80.9099 70.5806 80.9228 70.7511 81.0364C71.0739 81.2516 71.1546 81.7271 71.0208 82.2176C70.9423 82.5054 70.7427 82.7801 70.4912 83.0078C70.359 83.1276 70.2078 83.2387 70.0428 83.3358C70.0248 84.2072 70.0374 85.2975 70.0625 86.3687C70.0879 87.4511 70.126 88.5111 70.1578 89.3006C70.1737 89.6953 70.188 90.0223 70.1983 90.2506C70.2035 90.3647 70.2077 90.4541 70.2105 90.515L70.215 90.6079C70.215 90.608 70.215 90.608 69.9549 90.6208C69.6948 90.6335 69.6948 90.6335 69.6948 90.6334L69.6903 90.5396C69.6874 90.4784 69.6833 90.3886 69.6781 90.2741C69.6677 90.0451 69.6534 89.7172 69.6375 89.3216C69.6056 88.5303 69.5674 87.4672 69.5419 86.3809C69.519 85.4076 69.5063 84.4132 69.5178 83.578C69.1047 83.72 68.6377 83.7713 68.1834 83.6617V86.982C68.1834 87.1258 68.0669 87.2424 67.9231 87.2424C67.7792 87.2424 67.6627 87.1258 67.6627 86.982V83.4566C67.5209 83.3766 67.3833 83.2766 67.2521 83.1541C66.6258 82.5695 66.2433 81.9645 66.1931 81.4622C66.1669 81.2003 66.2309 80.9454 66.4248 80.7596ZM67.6627 82.8228V82.8007C67.6627 82.7872 67.6637 82.7737 67.6658 82.7603L67.6659 82.7597L67.6664 82.7564C67.6669 82.7533 67.6676 82.7483 67.6685 82.7416C67.6704 82.7283 67.6731 82.7081 67.6763 82.682C67.6826 82.6299 67.6905 82.5546 67.697 82.4641C67.7099 82.2816 67.7162 82.0432 67.6922 81.809C67.6678 81.5697 67.6142 81.3615 67.5263 81.2201C67.4475 81.0935 67.3468 81.0247 67.1854 81.0247C66.9592 81.0247 66.8415 81.0815 66.7851 81.1356C66.7346 81.1839 66.6968 81.265 66.7113 81.4104C66.7425 81.7227 67.0118 82.2174 67.6074 82.7734C67.6257 82.7904 67.6441 82.8069 67.6627 82.8228ZM69.9549 90.6208L69.6948 90.6334C69.7019 90.777 69.824 90.8879 69.9677 90.8809C70.1113 90.8738 70.222 90.7516 70.215 90.6079L69.9549 90.6208ZM70.0642 82.6884C70.0909 82.6666 70.1168 82.6444 70.1416 82.6218C70.3484 82.4346 70.4746 82.2408 70.5183 82.0806C70.6289 81.6751 70.506 81.4989 70.4622 81.4697C70.4494 81.4612 70.4324 81.4537 70.3942 81.4707C70.3475 81.4914 70.2671 81.5533 70.1826 81.7054C70.1826 81.7054 70.1826 81.7053 70.1826 81.7054M70.0642 82.6884C70.0731 82.507 70.084 82.3439 70.0972 82.2022C70.1108 82.0579 70.1263 81.9401 70.1435 81.8503C70.1521 81.8056 70.1606 81.7705 70.1685 81.7443C70.1724 81.7313 70.1758 81.7215 70.1786 81.7146C70.1811 81.7081 70.1826 81.7054 70.1826 81.7054" fill="#6D2DF0" fill-opacity="0.2"/>
  <path fill-rule="evenodd" clip-rule="evenodd" d="M65.5858 67.6481C65.7229 67.6045 65.8693 67.6802 65.9129 67.8173L66.3639 69.2347C66.4075 69.3718 66.3318 69.5182 66.1947 69.5618C66.0577 69.6054 65.9112 69.5297 65.8676 69.3926L65.4166 67.9752C65.373 67.8381 65.4488 67.6917 65.5858 67.6481Z" fill="#6D2DF0" fill-opacity="0.2"/>
  <path fill-rule="evenodd" clip-rule="evenodd" d="M76.9064 70.8294C76.995 70.9427 76.975 71.1063 76.8618 71.195L75.3799 72.3546C75.2666 72.4433 75.103 72.4233 75.0143 72.31C74.9257 72.1968 74.9457 72.0331 75.0589 71.9445L76.5408 70.7848C76.6541 70.6962 76.8177 70.7162 76.9064 70.8294Z" fill="#6D2DF0" fill-opacity="0.2"/>
  <path fill-rule="evenodd" clip-rule="evenodd" d="M71.2613 66.6081C71.4015 66.64 71.4893 66.7796 71.4574 66.9198L70.8991 69.3729C70.8672 69.5131 70.7277 69.6009 70.5874 69.569C70.4472 69.5371 70.3594 69.3975 70.3913 69.2573L70.9496 66.8042C70.9815 66.664 71.1211 66.5762 71.2613 66.6081Z" fill="#6D2DF0" fill-opacity="0.2"/>
  <path d="M72.9341 91.7976H64.0042C63.8897 91.7976 63.7969 91.7048 63.7969 91.5903V91.4885C63.7969 91.3741 63.8897 91.2812 64.0042 91.2812H72.9341C73.0486 91.2812 73.1413 91.3741 73.1413 91.4885V91.5903C73.1414 91.7049 73.0486 91.7976 72.9341 91.7976Z" fill="#6D2DF0" fill-opacity="0.2"/>
  <path fill-rule="evenodd" clip-rule="evenodd" d="M64.0231 91.5055V91.5711H72.9167V91.5055H64.0231ZM63.5723 91.4874C63.5723 91.2484 63.766 91.0547 64.0049 91.0547H72.9349C73.174 91.0547 73.3675 91.2486 73.3675 91.4874V91.5889" fill="#6D2DF0" fill-opacity="0.2"/>
  <path d="M72.9341 92.9607H64.0042C63.8897 92.9607 63.7969 92.8679 63.7969 92.7534V92.6516C63.7969 92.5372 63.8897 92.4443 64.0042 92.4443H72.9341C73.0486 92.4443 73.1414 92.5372 73.1414 92.6516V92.7534C73.1414 92.868 73.0486 92.9607 72.9341 92.9607Z" fill="#6D2DF0" fill-opacity="0.2"/>
  <path fill-rule="evenodd" clip-rule="evenodd" d="M64.0231 92.6696V92.7351H72.9168V92.6696H64.0231ZM63.5723 92.6514C63.5723 92.4125 63.766 92.2188 64.0049 92.2188H72.9349C73.1739 92.2188 73.3676 92.4125 73.3676 92.6514V92.7532C73.3676 92.9924 73.1738 93.1859 72.9349 93.1859H64.0049C63.766 93.1859 63.5723 92.9922 63.5723 92.7532V92.6514Z" fill="#6D2DF0" fill-opacity="0.2"/>
  <path d="M72.9341 94.1238H64.0042C63.8897 94.1238 63.7969 94.031 63.7969 93.9165V93.8147C63.7969 93.7003 63.8897 93.6074 64.0042 93.6074H72.9341C73.0486 93.6074 73.1414 93.7003 73.1414 93.8147V93.9165C73.1414 94.0311 73.0486 94.1238 72.9341 94.1238Z" fill="#6D2DF0" fill-opacity="0.2"/>
  <path fill-rule="evenodd" clip-rule="evenodd" d="M64.0231 93.8317V93.8972H72.9168V93.8317H64.0231ZM63.5723 93.8135C63.5723 93.5746 63.766 93.3809 64.0049 93.3809H72.9349C73.1739 93.3809 73.3676 93.5746 73.3676 93.8135V93.9154C73.3676 94.1545 73.1738 94.348 72.9349 94.348H64.0049C63.766 94.348 63.5723 94.1543 63.5723 93.9154V93.8135Z" fill="#6D2DF0" fill-opacity="0.2"/>
  <path d="M68.7436 94.7461H68.2417H64.1582L65.4775 96.5631C65.7076 96.88 66.0754 97.0675 66.467 97.0675H68.2417H68.7436H70.5005C70.8932 97.0675 71.2619 96.879 71.4918 96.5607L72.8021 94.7462H68.7436V94.7461Z" fill="#6D2DF0" fill-opacity="0.2"/>
  <path fill-rule="evenodd" clip-rule="evenodd" d="M63.9523 94.6426C63.9908 94.5671 64.0684 94.5195 64.1531 94.5195H68.7386C68.7412 94.5195 68.7438 94.5196 68.7463 94.5197H72.7971C72.8817 94.5197 72.9592 94.5671 72.9978 94.6424C73.0363 94.7178 73.0294 94.8084 72.9798 94.877L71.6695 96.6915C71.3972 97.0685 70.9605 97.2918 70.4955 97.2918H66.4619C65.9981 97.2918 65.5625 97.0697 65.29 96.6944C65.29 96.6944 65.29 96.6944 65.29 96.6944L63.9707 94.8774C63.921 94.8088 63.9138 94.7181 63.9523 94.6426ZM68.7308 94.9703H64.5954L65.6548 96.4295C65.8425 96.688 66.1425 96.841 66.4619 96.841H70.4955C70.8157 96.841 71.1165 96.6872 71.304 96.4275C71.304 96.4275 71.304 96.4275 71.304 96.4275L72.3563 94.9705H68.7386C68.736 94.9705 68.7334 94.9704 68.7308 94.9703Z" fill="#6D2DF0" fill-opacity="0.2"/>
  <path d="M121.042 30.967C157.009 39.2259 156.232 64.6022 151.347 76.258C149.688 81.5864 152.014 82.9185 156.01 81.2534C159.207 79.9213 167.333 65.3793 170.996 58.2748C170.33 45.953 178.655 46.619 181.986 49.6162C186.715 53.8724 173.327 86.5817 166.334 96.2394C159.34 105.897 155.011 120.883 153.346 132.539C151.681 144.195 152.347 163.177 153.346 178.163C154.145 190.152 157.897 197.589 159.673 199.809C182.319 203.365 167.666 221.789 155.677 219.791C143.729 217.799 143.357 215.477 142.037 207.221L142.023 207.136C140.691 198.81 130.367 187.154 125.372 183.158C120.376 179.162 101.727 203.473 101.727 203.473C101.727 203.473 92.7356 219.125 89.0724 223.121C85.4091 227.117 69.0911 232.779 65.4278 223.121C62.4972 215.395 70.6452 210.577 75.0855 209.134C73.7534 207.469 78.4157 197.145 81.4129 188.82C83.8107 182.159 86.1862 156.96 87.0743 145.194C83.8773 118.818 92.6246 93.3532 97.398 83.9175C94.7338 81.2534 92.9576 70.8187 92.4026 65.9343C80.9466 54.4784 80.9688 40.9576 82.4119 35.6293C94.4007 34.5636 106.945 42.2897 111.718 46.286C114.648 43.6218 119.155 42.5118 121.042 42.2897C118.911 32.9651 120.154 30.856 121.042 30.967Z" fill="#111111"/>
  <path fill-rule="evenodd" clip-rule="evenodd" d="M120.088 31.1978C120.343 30.7972 120.698 30.5864 121.085 30.6348L121.102 30.6369L121.118 30.6406C139.18 34.7881 148.081 43.2535 151.823 52.2085C155.553 61.1365 154.126 70.4814 151.662 76.3703C151.257 77.6745 151.104 78.7097 151.148 79.5004C151.192 80.2916 151.431 80.8107 151.783 81.1296C152.136 81.4491 152.654 81.6141 153.352 81.59C154.052 81.5659 154.906 81.3515 155.883 80.9442C156.22 80.8039 156.659 80.47 157.187 79.9385C157.708 79.4136 158.292 78.7209 158.922 77.8962C160.181 76.2473 161.604 74.0933 163.046 71.7523C165.908 67.1066 168.828 61.7487 170.66 58.2005C170.347 52.0391 172.273 48.9646 174.866 47.8914C177.427 46.8317 180.474 47.8049 182.21 49.3669C182.903 49.9912 183.218 51.0839 183.292 52.4253C183.367 53.7833 183.199 55.477 182.848 57.3968C182.143 61.2393 180.688 66.0487 178.87 71.015C175.236 80.9412 170.128 91.5669 166.605 96.4329C159.657 106.028 155.338 120.952 153.677 132.584C152.017 144.201 152.68 163.15 153.679 178.139C154.463 189.899 158.1 197.223 159.856 199.499C165.475 200.401 168.871 202.231 170.557 204.513C172.273 206.833 172.169 209.545 170.964 212.026C169.763 214.499 167.46 216.773 164.707 218.301C161.952 219.83 158.712 220.632 155.623 220.117C149.658 219.123 146.468 218.035 144.63 216.082C143.707 215.1 143.143 213.919 142.726 212.479C142.313 211.049 142.04 209.339 141.712 207.29L141.695 207.187C141.043 203.109 138.173 198.169 134.807 193.723C131.448 189.285 127.637 185.394 125.165 183.417C124.659 183.012 123.95 182.935 123.015 183.202C122.078 183.47 120.976 184.067 119.762 184.917C117.34 186.615 114.559 189.259 111.919 192.044C109.283 194.826 106.801 197.733 104.978 199.946C104.066 201.053 103.319 201.985 102.801 202.641C102.542 202.968 102.339 203.227 102.202 203.403C102.133 203.492 102.081 203.559 102.046 203.605L102.006 203.656L101.991 203.682L101.915 203.814C101.879 203.877 101.833 203.956 101.779 204.05C101.733 204.129 101.681 204.219 101.623 204.318C101.37 204.755 101.004 205.382 100.553 206.148C99.6526 207.679 98.4131 209.762 97.0588 211.97C94.3588 216.374 91.1773 221.317 89.3193 223.344C88.3588 224.392 86.6045 225.518 84.4852 226.467C82.3581 227.42 79.8304 228.21 77.2982 228.569C74.7693 228.927 72.2116 228.859 70.0401 228.068C67.8563 227.274 66.0714 225.751 65.1178 223.237C63.5956 219.224 64.9635 215.958 67.2521 213.541C69.4076 211.264 72.3943 209.718 74.6195 208.939C74.5422 208.695 74.5166 208.413 74.5203 208.118C74.5266 207.628 74.6165 207.03 74.767 206.354C75.0684 205 75.6259 203.277 76.3136 201.36C76.9956 199.459 77.8104 197.354 78.6396 195.211L78.6633 195.15C79.5013 192.985 80.3532 190.782 81.1009 188.705C81.6889 187.072 82.2831 184.275 82.8569 180.792C83.4295 177.316 83.9783 173.18 84.4803 168.881C85.4824 160.299 86.2968 151.081 86.7411 145.199C83.5683 118.944 92.184 93.6075 96.9972 83.9742C96.348 83.2435 95.7721 82.114 95.2621 80.7884C94.705 79.3402 94.2119 77.6178 93.7868 75.8339C92.9497 72.3212 92.37 68.5417 92.0863 66.0856C80.6153 54.55 80.6262 40.9523 82.0919 35.5405L82.1526 35.3164L82.3838 35.2958C88.455 34.7562 94.647 36.4427 99.906 38.7528C105.01 40.9947 109.262 43.8359 111.712 45.8458C114.535 43.4101 118.604 42.313 120.639 42.0067C119.639 37.5407 119.424 34.7448 119.58 33.0575C119.66 32.1943 119.84 31.5895 120.088 31.1978ZM101.729 203.471C101.464 203.268 101.464 203.268 101.465 203.268L101.465 203.267L101.468 203.263L101.478 203.25L101.519 203.198C101.554 203.151 101.607 203.083 101.676 202.994C101.815 202.817 102.018 202.557 102.279 202.227C102.799 201.569 103.549 200.633 104.464 199.523C106.293 197.303 108.785 194.383 111.436 191.586C114.083 188.793 116.901 186.109 119.38 184.372C120.618 183.505 121.792 182.859 122.832 182.562C123.872 182.264 124.838 182.302 125.581 182.896C128.105 184.915 131.953 188.85 135.338 193.321C138.716 197.783 141.673 202.833 142.353 207.081L142.367 207.166C142.698 209.237 142.966 210.908 143.366 212.294C143.765 213.673 144.288 214.746 145.115 215.625C146.781 217.395 149.75 218.463 155.733 219.46C158.639 219.945 161.727 219.193 164.383 217.719C167.041 216.243 169.234 214.063 170.365 211.735C171.491 209.416 171.553 206.98 170.022 204.909C168.474 202.816 165.248 201.02 159.623 200.137L159.495 200.117L159.414 200.016C157.586 197.73 153.817 190.222 153.015 178.183C152.016 163.2 151.347 144.185 153.017 132.49C154.686 120.81 159.026 105.763 166.065 96.0423C169.535 91.2506 174.618 80.6929 178.244 70.786C180.056 65.8357 181.498 61.0662 182.192 57.2768C182.54 55.3807 182.697 53.7452 182.627 52.462C182.555 51.1623 182.253 50.3018 181.764 49.862C180.17 48.4268 177.389 47.5685 175.121 48.5068C172.898 49.4265 171 52.1551 171.33 58.2551L171.335 58.3453L171.293 58.4257C169.459 61.9828 166.508 67.4023 163.613 72.1016C162.166 74.4507 160.729 76.626 159.451 78.3004C158.812 79.1373 158.208 79.8548 157.659 80.4078C157.116 80.9543 156.602 81.3663 156.139 81.559C155.119 81.9842 154.183 82.2278 153.375 82.2557C152.565 82.2836 151.856 82.0948 151.336 81.6233C150.815 81.1513 150.533 80.4425 150.483 79.5373C150.433 78.6347 150.61 77.5101 151.031 76.1573L151.036 76.1422L151.042 76.1276C153.459 70.3598 154.856 61.1967 151.208 52.4653C147.569 43.7569 138.881 35.4077 120.99 31.2946C120.928 31.2912 120.802 31.317 120.651 31.5548C120.483 31.8187 120.319 32.3032 120.243 33.1189C120.093 34.7453 120.305 37.563 121.368 42.2138L121.451 42.5754L121.083 42.6187C119.226 42.8371 114.8 43.9337 111.943 46.5307L111.728 46.7261L111.505 46.5396C109.142 44.561 104.84 41.6473 99.6382 39.3626C94.5031 37.1069 88.5197 35.4765 82.6759 35.9396C81.3189 41.3221 81.4402 54.4978 92.6395 65.6971L92.7217 65.7794L92.7349 65.895C93.0113 68.3273 93.5921 72.1433 94.4347 75.6795C94.8561 77.4479 95.3412 79.139 95.8837 80.5492C96.4302 81.9697 97.0206 83.066 97.6348 83.6803L97.8054 83.8509L97.6965 84.0661C92.9434 93.4618 84.2194 118.86 87.4063 145.152L87.4102 145.184L87.4077 145.217C86.9635 151.104 86.1471 160.35 85.1419 168.958C84.6393 173.263 84.0891 177.41 83.5141 180.9C82.9404 184.383 82.3385 187.234 81.7276 188.931C80.9767 191.016 80.1219 193.226 79.2844 195.39L79.2626 195.447C78.432 197.593 77.6198 199.691 76.9405 201.585C76.2545 203.498 75.7089 205.188 75.4171 206.499C75.271 207.155 75.1918 207.702 75.1863 208.127C75.1807 208.566 75.2556 208.81 75.3469 208.924L75.6477 209.3L75.1898 209.449C73.0039 210.159 69.9117 211.701 67.7358 213.999C65.573 216.283 64.3322 219.288 65.7406 223.001C66.6186 225.316 68.2472 226.707 70.2678 227.442C72.3007 228.182 74.7384 228.259 77.2048 227.91C79.6679 227.561 82.1356 226.79 84.2129 225.859C86.298 224.925 87.9571 223.844 88.8283 222.894C90.6335 220.925 93.7794 216.044 96.491 211.622C97.8426 209.418 99.0799 207.339 99.9794 205.81C100.429 205.046 100.794 204.419 101.047 203.984C101.173 203.766 101.272 203.596 101.338 203.481L101.414 203.35L101.438 203.308L101.439 203.306C101.44 203.305 101.44 203.305 101.729 203.471ZM101.729 203.471L101.44 203.305L101.451 203.286L101.465 203.268L101.729 203.471Z" fill="#111111"/>
  <path d="M145.344 53.821C142.518 47.7929 137.329 46.7044 136.066 47.0756C135.337 47.29 133.219 49.1723 134.286 54.0489C135.352 58.9254 138.119 62.4454 141.143 62.9166C144.168 63.3878 149.057 61.7423 145.344 53.821Z" fill="white"/>
  <path fill-rule="evenodd" clip-rule="evenodd" d="M137.713 46.7981C136.985 46.65 136.36 46.6399 135.968 46.7553C135.005 47.0383 132.869 49.1476 133.956 54.1193C134.498 56.5976 135.474 58.7444 136.713 60.3383C137.949 61.9293 139.465 62.9922 141.088 63.2449C142.657 63.4893 144.778 63.1988 146.02 61.7303C147.284 60.2367 147.517 57.6805 145.641 53.6789C144.197 50.5974 142.141 48.7665 140.273 47.755C139.341 47.25 138.454 46.9489 137.713 46.7981ZM139.956 48.3406C141.705 49.2876 143.657 51.015 145.038 53.9616C146.875 57.8813 146.52 60.1085 145.512 61.3001C144.482 62.5169 142.646 62.8136 141.19 62.5868C139.788 62.3684 138.409 61.4356 137.239 59.9297C136.071 58.4267 135.131 56.3752 134.606 53.977C133.561 49.1956 135.659 47.5403 136.156 47.3943C136.395 47.3241 136.892 47.3109 137.58 47.4508C138.256 47.5882 139.08 47.8664 139.956 48.3406Z" fill="black"/>
  <path d="M125.845 63.5969C123.303 56.8701 117.804 55.2666 116.413 55.5614C115.61 55.7318 113.173 57.583 113.916 62.9234C114.66 68.2639 117.347 72.2847 120.565 73.0434C123.784 73.8022 129.185 72.4363 125.845 63.5969Z" fill="white"/>
  <path fill-rule="evenodd" clip-rule="evenodd" d="M118.207 55.4256C117.437 55.206 116.77 55.1446 116.344 55.2349C115.303 55.4556 112.829 57.5317 113.586 62.9686C113.963 65.6794 114.836 68.0687 116.034 69.8843C117.231 71.6969 118.771 72.9618 120.488 73.3668C122.153 73.7593 124.45 73.6216 125.901 72.1528C127.375 70.6605 127.842 67.9404 126.156 63.4784C124.858 60.0453 122.801 57.9072 120.877 56.6655C119.917 56.0456 118.99 55.6488 118.207 55.4256ZM120.516 57.2251C122.325 58.3932 124.288 60.4202 125.533 63.7138C127.187 68.0912 126.623 70.4738 125.427 71.6847C124.208 72.919 122.195 73.0848 120.641 72.7186C119.141 72.3648 117.727 71.24 116.59 69.5173C115.455 67.7978 114.612 65.5063 114.246 62.8768C113.516 57.6328 115.916 56.0065 116.482 55.8865C116.751 55.8294 117.294 55.8578 118.025 56.0662C118.743 56.2709 119.61 56.6401 120.516 57.2251Z" fill="black"/>
  <path d="M138.969 51.2101C138.655 51.1147 138.247 51.2106 137.914 51.3324C137.569 51.4588 137.459 51.8664 137.646 52.1829C138.13 53.0013 139.044 54.5224 139.76 55.5759C140.425 56.5549 141.411 57.8511 141.99 58.6023C142.231 58.9144 142.7 58.914 142.943 58.6042C143.091 58.417 143.115 58.1612 143.007 57.9494L139.991 52.0759C139.972 52.0397 139.951 52.0055 139.925 51.9741C139.797 51.8193 139.371 51.332 138.969 51.2101Z" fill="#6D2DF0"/>
  <path d="M119.199 60.2549C118.852 60.1199 118.378 60.2024 118 60.3137C117.648 60.4177 117.507 60.815 117.669 61.145C118.116 62.0542 118.991 63.8074 119.687 65.0223C120.323 66.132 121.276 67.6099 121.838 68.4669C122.071 68.8231 122.576 68.8616 122.864 68.5482C123.038 68.3589 123.086 68.0854 122.987 67.8483L120.225 61.2677C120.209 61.2302 120.19 61.1942 120.167 61.1608C120.046 60.9879 119.624 60.4207 119.199 60.2549Z" fill="#6D2DF0"/>
  <path d="M79.7481 154.519C86.4085 153.187 88.0736 146.859 88.0736 143.862L89.7389 146.859L86.4086 164.843C82.1903 166.73 70.8231 168.972 59.1007 162.844C44.4477 155.185 43.4486 134.204 48.4439 120.551C53.4393 106.897 62.0979 108.562 66.7602 110.227C71.4225 111.892 71.0895 118.219 63.43 134.871C55.7704 151.522 71.4225 156.184 79.7481 154.519Z" fill="#111111"/>
  <path fill-rule="evenodd" clip-rule="evenodd" d="M57.6262 109.327C61.105 108.21 64.5224 109.074 66.8732 109.913C68.1102 110.355 69.0394 111.118 69.5869 112.298C70.1281 113.464 70.2801 115.002 70.0475 116.968C69.5828 120.896 67.5639 126.683 63.7335 135.01C61.8383 139.13 61.4018 142.472 61.9057 145.138C62.4087 147.798 63.8552 149.821 65.7972 151.298C69.701 154.267 75.5923 155.011 79.6837 154.192C82.9072 153.548 84.9141 151.7 86.1225 149.646C87.3368 147.582 87.7416 145.311 87.7416 143.862V142.577L90.0891 146.802L86.7052 165.075L86.5456 165.147C82.2515 167.068 70.7756 169.322 58.9474 163.14C51.5024 159.248 47.5467 151.98 46.0777 144.006C44.6091 136.033 45.6157 127.314 48.1322 120.436C50.6533 113.545 54.1278 110.45 57.6262 109.327ZM57.8297 109.961C54.5844 111.003 51.2319 113.902 48.7577 120.665C46.2788 127.441 45.2873 136.039 46.7327 143.885C48.1776 151.729 52.048 158.781 59.2559 162.549C70.7267 168.545 81.8484 166.446 86.1143 164.608L89.3906 146.916L88.338 145.022C88.1722 146.475 87.6915 148.292 86.6965 149.984C85.4072 152.176 83.2513 154.158 79.8144 154.845C75.5802 155.692 69.4827 154.937 65.394 151.828C63.3398 150.266 61.789 148.106 61.2513 145.261C60.7145 142.422 61.1939 138.937 63.1284 134.731C66.9575 126.407 68.9348 120.704 69.386 116.89C69.6113 114.985 69.4511 113.588 68.9828 112.579C68.5209 111.583 67.7433 110.931 66.6492 110.54C64.3376 109.715 61.0946 108.913 57.8297 109.961Z" fill="#111111"/>
  <path fill-rule="evenodd" clip-rule="evenodd" d="M128.476 82.5266C129.722 83.19 131.022 84.2595 132.29 85.6962C133.61 87.1916 134.104 89.0324 133.991 91.1585C133.879 93.2747 133.165 95.6883 132.057 98.3658C130.458 102.228 128.007 106.703 125.269 111.706C124.215 113.631 123.118 115.634 122.011 117.71C115.563 129.8 106.304 132.655 102.392 132.54C102.208 132.534 102.063 132.381 102.069 132.197C102.074 132.013 102.227 131.868 102.411 131.874C106.047 131.981 115.082 129.285 121.423 117.397C122.542 115.299 123.646 113.283 124.703 111.351C127.434 106.363 129.857 101.937 131.441 98.111C132.539 95.4601 133.22 93.1282 133.326 91.1232C133.432 89.1282 132.969 87.4722 131.791 86.1369C130.561 84.743 129.321 83.731 128.163 83.1145C127.003 82.4967 125.948 82.2871 125.068 82.4555C124.201 82.6216 123.457 83.1638 122.92 84.1551C122.378 85.1559 122.05 86.6144 122.05 88.5807C122.05 92.7076 119.479 96.702 116.535 99.5197C115.058 100.933 113.471 102.068 112.031 102.787C111.311 103.147 110.621 103.407 109.995 103.544C109.373 103.68 108.791 103.7 108.3 103.553C108.124 103.5 108.024 103.314 108.077 103.138C108.13 102.962 108.315 102.862 108.491 102.915C108.834 103.017 109.292 103.016 109.853 102.893C110.411 102.771 111.048 102.534 111.733 102.192C113.104 101.507 114.638 100.414 116.075 99.0385C118.959 96.2781 121.384 92.4464 121.384 88.5807C121.384 86.5508 121.721 84.9705 122.334 83.8379C122.953 82.6957 123.853 82.01 124.943 81.8014C126.02 81.5951 127.233 81.8642 128.476 82.5266Z" fill="white"/>
  <path fill-rule="evenodd" clip-rule="evenodd" d="M136.271 71.6108C136.447 71.558 136.632 71.6579 136.685 71.8341C137.005 72.8996 137.89 74.4978 138.946 75.3317C139.469 75.7454 139.988 75.9355 140.476 75.848C140.961 75.7611 141.516 75.3813 142.073 74.4262C142.166 74.2673 142.37 74.2136 142.529 74.3063C142.687 74.399 142.741 74.6029 142.648 74.7618C142.04 75.8048 141.346 76.3686 140.593 76.5036C139.842 76.6382 139.133 76.3287 138.533 75.8543C137.34 74.9122 136.394 73.1801 136.047 72.0255C135.994 71.8493 136.094 71.6637 136.271 71.6108Z" fill="white"/>
  <path fill-rule="evenodd" clip-rule="evenodd" d="M135.916 70.6171C136.089 70.5553 136.28 70.6456 136.341 70.8188C137.217 73.2709 136.582 75.3048 135.57 76.7923C134.566 78.2668 133.187 79.2174 132.513 79.5542C131.748 79.937 130.908 79.8947 130.159 79.7039C129.41 79.5128 128.714 79.1632 128.207 78.8814C128.046 78.7921 127.988 78.5893 128.077 78.4286C128.166 78.2678 128.369 78.2099 128.53 78.2992C129.022 78.5724 129.658 78.8888 130.324 79.0585C130.991 79.2285 131.649 79.2417 132.216 78.9585C132.806 78.6634 134.09 77.7824 135.019 76.4176C135.939 75.0659 136.503 73.253 135.714 71.0428C135.652 70.8696 135.743 70.679 135.916 70.6171Z" fill="white"/>
  <path d="M137.795 66.1775C138.226 67.0474 137.428 70.3278 136.382 70.845C135.322 71.3696 132.245 70.0064 131.814 69.1365C131.384 68.2667 132.374 66.8991 134.026 66.082C135.677 65.2649 137.365 65.3077 137.795 66.1775Z" fill="white"/>
  <path fill-rule="evenodd" clip-rule="evenodd" d="M137.687 70.34C137.455 70.7637 137.127 71.2193 136.675 71.4429C136.221 71.6675 135.659 71.6541 135.179 71.581C134.671 71.5037 134.123 71.338 133.611 71.1326C133.099 70.9267 132.6 70.6712 132.191 70.4005C131.812 70.15 131.407 69.8198 131.215 69.4327C130.836 68.6661 131.142 67.8285 131.598 67.1998C132.073 66.543 132.825 65.9326 133.728 65.4859C134.631 65.0392 135.573 64.8117 136.383 64.8322C137.159 64.8518 138.011 65.1164 138.39 65.883C138.582 66.2713 138.597 66.7956 138.565 67.2484C138.531 67.7382 138.43 68.2906 138.282 68.8229C138.134 69.3541 137.933 69.89 137.687 70.34ZM136.38 70.8459C137.425 70.3286 138.224 67.0482 137.793 66.1784C137.363 65.3085 135.675 65.2658 134.024 66.0829C132.372 66.9 131.382 68.2675 131.812 69.1374C132.242 70.0073 135.32 71.3704 136.38 70.8459Z" fill="#111111"/>
</svg>