<svg xmlns="http://www.w3.org/2000/svg" width="222" height="236" viewBox="0 0 222 236" fill="none">
  <path d="M91.5648 221.684C101.721 220.397 103.809 202.358 103.583 193.5L114.078 192.907C115.974 210.444 106.179 224.364 101.044 229.132C75.7376 247.583 65.5812 215.928 77.3458 212.458C89.1103 208.988 78.8692 223.292 91.5648 221.684Z" fill="#111111"/>
  <path fill-rule="evenodd" clip-rule="evenodd" d="M114.732 192.837C116.657 210.643 106.725 224.754 101.492 229.614L101.463 229.64L101.432 229.663C95.0208 234.337 89.4832 235.901 84.9469 235.453C80.4018 235.004 76.965 232.546 74.756 229.393C72.5556 226.252 71.5508 222.392 71.8736 219.059C72.1967 215.724 73.8793 212.796 77.1607 211.828C80.1405 210.95 82.0258 211.098 83.1929 212.181C83.7576 212.704 84.0811 213.387 84.2959 214.083C84.4971 214.735 84.6188 215.457 84.7343 216.142C84.7411 216.183 84.748 216.223 84.7548 216.264C85.0101 217.774 85.2707 219.089 86.1183 219.98C86.9192 220.822 88.4024 221.422 91.483 221.032C96.1364 220.443 99.0851 215.989 100.84 210.24C102.576 204.55 103.039 197.901 102.927 193.517L104.241 193.483C104.355 197.958 103.887 204.757 102.097 210.623C100.325 216.43 97.1512 221.639 91.6481 222.336C88.381 222.75 86.3834 222.165 85.1663 220.886C83.9958 219.656 83.701 217.914 83.4591 216.483C83.454 216.453 83.449 216.423 83.444 216.393C83.3234 215.679 83.2149 215.037 83.0402 214.47C82.8599 213.886 82.6273 213.448 82.2993 213.144C81.6811 212.571 80.4348 212.233 77.5324 213.089C74.9315 213.856 73.472 216.187 73.1815 219.186C72.8907 222.188 73.8007 225.739 75.8322 228.639C77.855 231.526 80.967 233.739 85.076 234.145C89.1869 234.551 94.398 233.157 100.626 228.624C105.67 223.923 115.289 210.213 113.426 192.978L114.732 192.837Z" fill="black"/>
  <path d="M102.816 9.03225C95.9825 8.85704 90.0401 12.4634 87.923 14.2885C82.8858 6.62315 66.2411 -3.23225 65.1461 2.24297C64.051 7.7182 69.0882 24.5819 70.4023 28.9621C71.7163 33.3423 71.7163 36.1894 70.4023 38.5985C69.0882 41.0076 65.8031 51.739 70.4023 60.9374C75.0015 70.1358 64.489 79.7722 54.1956 84.1524C45.9609 87.6565 42.8802 93.7887 42.3691 96.4169L124.717 108.9L164.138 110.214C165.379 109.046 167.117 104.52 164.138 95.7598C160.415 84.8094 146.179 80.6482 138.514 71.0118C130.849 61.3754 133.039 57.2142 134.572 48.6729C135.798 41.8398 133.477 33.8533 132.163 30.7141C141.58 17.7926 141.58 2.02396 141.361 1.58595C141.186 1.23553 140.412 1.29393 140.047 1.36694C128.133 3.29422 121.358 10.3463 119.46 13.6314C116.759 12.1714 109.649 9.20746 102.816 9.03225Z" fill="#111111"/>
  <path fill-rule="evenodd" clip-rule="evenodd" d="M66.4895 1.47965C66.1254 1.63273 65.8877 1.89587 65.7926 2.37163C65.5425 3.62232 65.6355 5.6063 65.9735 8.02042C66.3083 10.4115 66.8714 13.1477 67.5125 15.8619C68.7942 21.2891 70.3771 26.5838 71.0339 28.7731C72.3665 33.2152 72.4207 36.274 70.9813 38.9129C70.376 40.0228 69.245 43.2182 68.8409 47.2867C68.4379 51.3431 68.7657 56.1903 70.9922 60.6434C73.4531 65.5652 71.822 70.5534 68.3957 74.7661C64.9715 78.9761 59.6724 82.5366 54.4551 84.7567C47.0838 87.8934 44.005 93.1631 43.1845 95.8754L124.779 108.245L163.863 109.548C164.311 108.994 164.884 107.79 165.068 105.774C165.276 103.512 164.985 100.284 163.518 95.9711C161.73 90.7115 157.404 87.0388 152.421 83.4247C151.595 82.8258 150.751 82.2283 149.899 81.6256C145.668 78.6314 141.253 75.5072 138.002 71.4206C134.121 66.541 132.671 62.9669 132.44 59.4749C132.326 57.7438 132.513 56.0635 132.818 54.2995C132.97 53.418 133.154 52.5081 133.345 51.5597L133.353 51.5209C133.542 50.5817 133.74 49.6018 133.927 48.5566C135.122 41.9042 132.852 34.0569 131.559 30.9677L131.416 30.6262L131.634 30.327C136.27 23.9658 138.596 16.8903 139.734 11.3367C140.303 8.56226 140.573 6.17591 140.687 4.46094C140.745 3.60317 140.763 2.91672 140.76 2.43651C140.759 2.24644 140.755 2.09217 140.749 1.97446C140.742 1.97378 140.735 1.97315 140.727 1.97256C140.543 1.95839 140.321 1.98247 140.178 2.01101L140.166 2.0134L140.154 2.01534C128.446 3.9094 121.836 10.8363 120.031 13.9599L119.712 14.5129L119.15 14.2092C116.498 12.7759 109.492 9.86043 102.801 9.68887C96.1825 9.51916 90.393 13.0283 88.3543 14.7859L87.7873 15.2747L87.3762 14.6491C84.9383 10.9393 79.6183 6.62266 74.7394 3.91217C72.2999 2.55688 70.04 1.64283 68.3617 1.38659C67.5185 1.25787 66.8987 1.30758 66.4895 1.47965ZM140.729 1.74475C140.729 1.74432 140.73 1.74876 140.732 1.75917C140.73 1.75034 140.729 1.74517 140.729 1.74475ZM88.0628 13.3305C85.324 9.53154 80.1052 5.38992 75.3776 2.76348C72.8894 1.38115 70.4679 0.378879 68.56 0.0875907C67.61 -0.0574469 66.7104 -0.038719 65.9802 0.268297C65.2047 0.594304 64.6827 1.22088 64.5041 2.11393C64.2067 3.60086 64.3327 5.77804 64.6722 8.20265C65.0149 10.6503 65.588 13.4304 66.2336 16.164C67.5251 21.6325 69.118 26.9598 69.7752 29.1507C71.0707 33.4689 71.0165 36.1043 69.8277 38.2837C69.1191 39.5829 67.9504 42.9577 67.5333 47.1568C67.1149 51.368 67.4442 56.4857 69.8169 61.231C71.9551 65.5076 70.6297 69.9368 67.3762 73.9369C64.1206 77.9398 59.0168 81.3875 53.9406 83.5476C45.5058 87.1369 42.2792 93.4482 41.7264 96.2913L41.5957 96.9636L124.658 109.556L164.392 110.88L164.591 110.693C165.373 109.957 166.152 108.353 166.377 105.894C166.604 103.411 166.275 99.9958 164.762 95.5481C162.828 89.8573 158.174 85.9742 153.192 82.361C152.339 81.7419 151.476 81.1306 150.613 80.5194C146.384 77.5243 142.153 74.5286 139.031 70.6026C135.247 65.8458 133.959 62.5211 133.751 59.3882C133.647 57.8067 133.816 56.2429 134.113 54.5233C134.262 53.663 134.441 52.7712 134.633 51.8195L134.641 51.7782C134.83 50.8412 135.031 49.8489 135.221 48.7888C136.437 42.014 134.264 34.2018 132.911 30.8032C137.549 24.3214 139.877 17.1853 141.022 11.6004C141.603 8.7627 141.88 6.31716 141.998 4.54852C142.058 3.66449 142.077 2.94619 142.074 2.42974C142.073 2.17238 142.066 1.95949 142.055 1.7984C142.05 1.71872 142.043 1.64368 142.034 1.57853L142.033 1.5739C142.028 1.53656 142.01 1.40974 141.951 1.29192C141.813 1.01572 141.579 0.865864 141.387 0.786511C141.197 0.707464 140.996 0.675335 140.828 0.662374C140.497 0.636881 140.156 0.676476 139.933 0.719972C128.419 2.58618 121.582 9.16136 119.225 12.7661C116.148 11.2106 109.386 8.54321 102.835 8.37524C96.3224 8.20826 90.6232 11.3578 88.0628 13.3305Z" fill="black"/>
  <path fill-rule="evenodd" clip-rule="evenodd" d="M97.0186 48.6451L97.8834 48.5621C97.963 48.9109 98.3192 49.6215 98.8708 50.3195C99.4217 51.0167 100.095 51.6077 100.751 51.8136C100.981 51.8861 101.11 52.1319 101.037 52.3627C100.965 52.5935 100.719 52.7219 100.488 52.6495C99.5818 52.3649 98.7733 51.6092 98.1834 50.8626C97.9379 50.5519 97.7176 50.2266 97.5354 49.9144C97.3217 50.324 97.0355 50.7067 96.7411 51.0416C96.1493 51.7152 95.4516 52.2775 94.983 52.5944C94.7826 52.7299 94.5103 52.6773 94.3748 52.4769C94.2393 52.2765 94.2919 52.0042 94.4923 51.8687C94.9105 51.5859 95.5489 51.0714 96.0831 50.4634C96.6311 49.8397 97.0005 49.1952 97.0186 48.6451Z" fill="white"/>
  <path d="M79.4214 33.8012C80.6232 25.6499 86.18 22.543 87.7452 22.543C88.6496 22.543 91.6975 24.0401 92.1167 30.2081C92.5359 36.3762 90.5597 41.5262 87.2661 43.1431C83.9725 44.7599 77.8421 44.5124 79.4214 33.8012Z" fill="white"/>
  <path fill-rule="evenodd" clip-rule="evenodd" d="M85.7419 22.7727C86.5255 22.3409 87.2442 22.1055 87.7452 22.1055C88.9822 22.1055 92.1269 23.8994 92.5537 30.1789C92.7668 33.3145 92.3727 36.2084 91.4935 38.5375C90.6165 40.8606 89.2397 42.6627 87.4591 43.5368C85.7425 44.3795 83.2008 44.7827 81.2686 43.4568C79.3095 42.1126 78.1907 39.1457 78.988 33.7378C79.6026 29.5693 81.335 26.6712 83.132 24.8115C84.029 23.8833 84.9425 23.2131 85.7419 22.7727ZM83.762 25.4202C82.0888 27.1518 80.4419 29.8829 79.8547 33.8656C79.0727 39.169 80.2294 41.6814 81.7642 42.7345C83.3258 43.806 85.4961 43.5245 87.0731 42.7504C88.5861 42.0076 89.8442 40.4262 90.6739 38.2281C91.5014 36.0359 91.8858 33.2708 91.6797 30.2383C91.2681 24.1817 88.3169 22.9815 87.7452 22.9815C87.4636 22.9815 86.9007 23.1344 86.1646 23.54C85.4443 23.9368 84.6001 24.5528 83.762 25.4202Z" fill="black"/>
  <path d="M105.694 34.3891C105.489 26.4734 110.428 22.5517 111.969 22.2741C112.859 22.1137 116.113 22.9877 117.576 28.7419C119.039 34.4961 117.972 39.7131 115.006 41.8252C112.04 43.9374 105.964 44.7909 105.694 34.3891Z" fill="white"/>
  <path fill-rule="evenodd" clip-rule="evenodd" d="M110.04 22.8263C110.737 22.2792 111.402 21.9311 111.891 21.843C113.096 21.6259 116.506 22.7556 118.001 28.6339C118.746 31.5633 118.851 34.3729 118.382 36.7347C117.913 39.0918 116.863 41.0409 115.26 42.182C113.716 43.2817 111.29 44.1107 109.167 43.2026C107.004 42.2774 105.393 39.6608 105.257 34.4004C105.151 30.3446 106.365 27.294 107.818 25.2163C108.543 24.1793 109.328 23.3839 110.04 22.8263ZM108.536 25.7183C107.185 27.6497 106.032 30.5178 106.132 34.3777C106.266 39.5191 107.827 41.6767 109.512 42.3972C111.236 43.1347 113.33 42.4808 114.752 41.4684C116.115 40.4975 117.082 38.7819 117.523 36.5639C117.963 34.3506 117.87 31.6746 117.152 28.8498C115.721 23.2197 112.622 22.6014 112.047 22.7051C111.765 22.7558 111.235 23.0021 110.58 23.5157C109.938 24.0189 109.213 24.7507 108.536 25.7183Z" fill="black"/>
  <path fill-rule="evenodd" clip-rule="evenodd" d="M215.998 113.012C212.724 109.583 208.149 108.494 204.928 108.564C204.444 108.574 204.044 108.19 204.033 107.707C204.023 107.223 204.407 106.822 204.89 106.812C208.458 106.735 213.564 107.924 217.265 111.803C221.005 115.721 223.152 122.21 221.099 132.39C221.003 132.864 220.541 133.171 220.067 133.076C219.592 132.98 219.285 132.518 219.381 132.044C221.357 122.25 219.234 116.402 215.998 113.012Z" fill="black"/>
  <path fill-rule="evenodd" clip-rule="evenodd" d="M218.196 171.642C218.678 171.6 219.103 171.956 219.146 172.438C219.625 177.853 219.673 186.07 218.239 193.117C217.523 196.638 216.425 199.932 214.778 202.444C213.121 204.973 210.864 206.768 207.861 207.112C207.38 207.168 206.946 206.823 206.891 206.342C206.835 205.861 207.18 205.427 207.661 205.372C210.002 205.103 211.849 203.717 213.313 201.484C214.788 199.234 215.828 196.185 216.522 192.768C217.911 185.942 217.871 177.907 217.401 172.592C217.358 172.11 217.714 171.685 218.196 171.642Z" fill="black"/>
  <path fill-rule="evenodd" clip-rule="evenodd" d="M202.299 207.592C202.356 208.072 202.012 208.508 201.532 208.564L196.454 209.164C195.974 209.22 195.538 208.877 195.481 208.396C195.425 207.916 195.768 207.48 196.249 207.424L201.326 206.824C201.807 206.768 202.242 207.111 202.299 207.592Z" fill="black"/>
  <path fill-rule="evenodd" clip-rule="evenodd" d="M120.657 85.4407C121.025 85.4648 121.325 85.5082 121.537 85.5789C121.988 85.7295 122.404 86.2024 122.794 86.8656C123.191 87.5417 123.589 88.4658 123.986 89.597C124.779 91.8609 125.576 94.9868 126.336 98.695C127.857 106.113 129.241 115.888 130.172 125.818C131.104 135.747 131.583 145.838 131.295 153.889C131.152 157.914 130.816 161.436 130.246 164.176C129.961 165.546 129.616 166.727 129.205 167.679C128.794 168.628 128.311 169.367 127.739 169.836C126.642 170.736 124.941 171.571 122.813 172.347C120.68 173.125 118.102 173.851 115.238 174.524C109.511 175.871 102.625 177.015 95.8464 177.96C85.8385 179.355 76.033 180.32 70.5439 180.859C68.689 181.042 67.3271 181.176 66.6167 181.262C66.1257 181.912 64.9789 183.039 63.4547 184.432C61.8596 185.89 59.8316 187.656 57.6589 189.506C53.3134 193.207 48.3841 197.249 45.1709 199.842L44.6854 200.234L44.8195 199.624C45.6951 195.648 46.9207 189.684 47.7521 184.715C48.168 182.23 48.4842 180 48.6094 178.393C48.6721 177.588 48.6859 176.951 48.6433 176.52C48.6218 176.302 48.5875 176.156 48.5488 176.07C48.536 176.042 48.526 176.026 48.5196 176.018C48.3884 176.016 48.1626 175.99 47.8674 175.947C47.5526 175.901 47.1441 175.833 46.6558 175.747C45.679 175.574 44.3785 175.325 42.8615 175.018C39.8275 174.405 35.9242 173.563 32.0072 172.645C28.0907 171.728 24.1576 170.734 21.0651 169.819C19.5192 169.361 18.1795 168.922 17.1556 168.521C16.6438 168.32 16.2071 168.127 15.8615 167.945C15.5209 167.765 15.2497 167.585 15.0861 167.405C14.9892 167.299 14.9092 167.138 14.8389 166.954C14.7666 166.763 14.6966 166.525 14.6283 166.246C14.4917 165.686 14.3581 164.941 14.2281 164.041C13.9679 162.241 13.7194 159.802 13.49 156.938C13.0311 151.208 12.6477 143.765 12.4012 136.303C12.1547 128.841 12.0451 121.357 12.1342 115.545C12.1787 112.639 12.2729 110.148 12.4249 108.286C12.5009 107.356 12.5916 106.578 12.6987 105.982C12.7523 105.684 12.8106 105.427 12.8744 105.218C12.9371 105.013 13.0098 104.838 13.0989 104.713C13.1552 104.634 13.2379 104.566 13.3279 104.505C13.4207 104.442 13.535 104.378 13.6673 104.314C13.9321 104.184 14.2847 104.044 14.7157 103.893C15.5786 103.591 16.7754 103.24 18.2563 102.849C21.2193 102.067 25.3357 101.121 30.2286 100.078C40.0154 97.9937 52.919 95.5226 65.9378 93.209C78.9567 90.8955 92.0931 88.7391 102.345 87.2843C107.471 86.5569 111.878 86.0046 115.19 85.6957C116.846 85.5413 118.231 85.4474 119.297 85.4232C119.83 85.4112 120.286 85.4164 120.657 85.4407ZM48.5119 176.011C48.5121 176.011 48.5135 176.011 48.5158 176.014C48.5129 176.012 48.5116 176.011 48.5119 176.011ZM13.5735 104.867C13.501 104.916 13.4675 104.951 13.4553 104.968C13.4076 105.035 13.3515 105.156 13.2933 105.346C13.2363 105.533 13.1816 105.771 13.1298 106.059C13.0263 106.635 12.9369 107.397 12.8615 108.322C12.7106 110.17 12.6166 112.65 12.5722 115.551C12.4833 121.354 12.5927 128.831 12.839 136.288C13.0853 143.746 13.4684 151.182 13.9266 156.903C14.1557 159.763 14.4034 162.192 14.6616 163.979C14.7908 164.873 14.922 165.602 15.0539 166.142C15.1198 166.412 15.1849 166.631 15.2483 166.798C15.3139 166.97 15.3704 167.067 15.4102 167.111C15.5204 167.232 15.7351 167.383 16.066 167.557C16.3917 167.729 16.8118 167.915 17.3155 168.113C18.3225 168.508 19.6486 168.943 21.1894 169.399C24.2702 170.311 28.194 171.302 32.1071 172.219C36.0196 173.135 39.9185 173.977 42.9483 174.589C44.4633 174.895 45.7601 175.144 46.7321 175.316C47.2183 175.402 47.622 175.468 47.9307 175.513C48.245 175.559 48.4466 175.58 48.5376 175.58C48.7544 175.58 48.8813 175.742 48.9481 175.89C49.0163 176.041 49.0563 176.244 49.0792 176.477C49.1257 176.948 49.1093 177.616 49.0461 178.427C48.9194 180.054 48.6005 182.299 48.1841 184.788C47.3926 189.518 46.245 195.145 45.3808 199.109C48.5891 196.515 53.2462 192.689 57.3749 189.173C59.546 187.324 61.5696 185.561 63.1592 184.109C64.7565 182.649 65.8962 181.519 66.3181 180.928L66.3739 180.85L66.4691 180.838C67.1657 180.751 68.5839 180.612 70.5424 180.419C76.0387 179.879 85.7898 178.92 95.7859 177.526C102.559 176.582 109.429 175.44 115.138 174.098C117.992 173.426 120.552 172.706 122.663 171.936C124.777 171.165 126.422 170.35 127.461 169.498C127.957 169.091 128.406 168.423 128.802 167.505C129.198 166.589 129.535 165.44 129.817 164.087C130.38 161.382 130.714 157.887 130.858 153.874C131.145 145.848 130.666 135.777 129.736 125.858C128.806 115.94 127.424 106.182 125.907 98.783C125.148 95.0826 124.356 91.9787 123.572 89.7419C123.18 88.6227 122.793 87.7286 122.416 87.0875C122.032 86.4336 121.686 86.0903 121.398 85.9945C121.241 85.942 120.987 85.9012 120.629 85.8778C120.275 85.8546 119.833 85.8492 119.307 85.8611C118.256 85.885 116.882 85.9778 115.231 86.1318C111.929 86.4398 107.53 86.991 102.407 87.718C92.1613 89.1719 79.0303 91.3273 66.0145 93.6403C52.9986 95.9533 40.1002 98.4235 30.3199 100.507C25.4293 101.549 21.3209 102.493 18.3681 103.272C16.8911 103.662 15.7072 104.01 14.8605 104.306C14.4367 104.455 14.1022 104.589 13.8594 104.707C13.738 104.767 13.6434 104.82 13.5735 104.867Z" fill="black"/>
  <path d="M89.7127 192.007C100.882 194.635 146.436 197.567 155.853 198.796C170.886 200.944 176.746 210.19 182.135 216.317C182.241 216.438 182.573 216.536 182.573 216.317C180.821 206.242 183.965 201.711 185.42 200.986C186.988 200.204 200.131 200.483 203.378 196.91C205.568 194.501 221.564 124.732 206.882 116.668C191.333 108.126 103.966 104.15 95.7221 106.898C87.4783 109.646 78.9579 189.476 89.7127 192.007Z" fill="#6D2DF0"/>
  <mask id="mask0_2524_32648" style="mask-type:alpha" maskUnits="userSpaceOnUse" x="84" y="104" width="137" height="40">
    <path d="M91.424 122.083C106.403 122.573 190.281 124.659 202.911 124.888C211.89 119.412 211.671 135.181 212.985 141.532C213.204 145.694 216.927 143.722 217.365 130.363C215.016 128.484 217.825 123.892 219.776 123.757C221.878 123.611 213.01 121.27 217.365 120.604C220.302 120.155 209.875 106.306 190.185 104.802C169.332 103.21 110.539 105.701 99.4831 106.214C88.4274 106.726 77.0008 121.611 91.424 122.083Z" fill="#6D2DF0"/>
  </mask>
  <g mask="url(#mask0_2524_32648)">
    <path d="M88.4304 192C99.7125 194.627 145.726 197.559 155.238 198.787C170.422 200.934 176.341 210.179 181.784 216.303C181.892 216.424 182.227 216.522 182.227 216.303C180.457 206.231 183.633 201.702 185.102 200.977C186.686 200.195 199.962 200.474 203.242 196.902C205.454 194.494 221.611 124.744 206.782 116.681C191.075 108.142 102.827 104.167 94.5004 106.914C86.1734 109.661 77.5671 189.47 88.4304 192Z" fill="#6D2DF0"/>
    <path fill-rule="evenodd" clip-rule="evenodd" d="M155.422 197.486L155.406 197.484C152.158 197.065 144.707 196.45 135.867 195.72C131.662 195.372 127.142 194.999 122.611 194.609C108.458 193.39 94.2539 192.007 88.7284 190.72C88.4517 190.656 88.0908 190.445 87.6761 189.88C87.2584 189.311 86.8512 188.467 86.4807 187.325C85.7402 185.042 85.2277 181.827 84.9353 177.926C84.352 170.145 84.6639 159.924 85.5779 149.655C86.4915 139.391 88.001 129.139 89.7924 121.305C90.6894 117.381 91.6471 114.109 92.6179 111.756C93.1044 110.577 93.5754 109.676 94.0154 109.051C94.4782 108.393 94.7949 108.201 94.9121 108.162C95.2923 108.037 96.0077 107.902 97.1022 107.784C98.171 107.668 99.5227 107.576 101.127 107.508C104.335 107.372 108.5 107.335 113.332 107.394C122.994 107.514 135.271 108.019 147.784 108.876C160.298 109.734 173.027 110.943 183.595 112.467C188.88 113.229 193.607 114.068 197.49 114.977C201.4 115.892 204.353 116.857 206.154 117.836C207.607 118.626 208.822 120.254 209.743 122.792C210.658 125.315 211.221 128.576 211.485 132.37C212.012 139.951 211.326 149.401 210.1 158.741C208.875 168.068 207.119 177.224 205.533 184.194C204.739 187.679 203.991 190.607 203.376 192.728C203.067 193.791 202.797 194.636 202.575 195.241C202.464 195.545 202.372 195.771 202.299 195.926C202.267 195.994 202.245 196.036 202.233 196.058C201.659 196.65 200.534 197.207 198.89 197.671C197.256 198.132 195.317 198.447 193.378 198.681C191.883 198.862 190.425 198.991 189.129 199.105C188.745 199.139 188.375 199.172 188.023 199.204C187.263 199.274 186.573 199.344 186.017 199.423C185.528 199.492 184.937 199.593 184.521 199.798C183.882 200.114 183.253 200.725 182.706 201.51C182.142 202.319 181.606 203.396 181.193 204.752C180.581 206.761 180.232 209.397 180.461 212.737C175.503 206.864 168.987 199.404 155.422 197.486ZM180.702 215.057C180.854 215.236 181.006 215.413 181.158 215.588C181.367 215.831 181.576 216.069 181.784 216.303C181.784 216.303 181.784 216.303 181.784 216.303C181.804 216.326 181.832 216.348 181.865 216.367C182.005 216.45 182.227 216.481 182.227 216.303C182.206 216.189 182.187 216.075 182.168 215.962C182.121 215.677 182.077 215.396 182.037 215.12C182.007 214.91 181.979 214.703 181.953 214.498C180.843 205.686 183.724 201.657 185.102 200.977C185.588 200.737 187.173 200.597 189.232 200.415C193.888 200.004 200.968 199.379 203.242 196.902C205.454 194.494 221.611 124.744 206.782 116.681C191.075 108.142 102.827 104.167 94.5004 106.914C86.1734 109.661 77.5671 189.47 88.4304 192C95.8969 193.739 118.575 195.611 135.818 197.034C144.629 197.762 152.021 198.372 155.238 198.787C168.539 200.668 174.73 207.995 179.72 213.9C180.052 214.293 180.379 214.679 180.702 215.057Z" fill="white"/>
  </g>
  <path fill-rule="evenodd" clip-rule="evenodd" d="M201.381 138.002C201.33 138.483 200.899 138.832 200.418 138.782L108.474 129.096C107.992 129.045 107.643 128.614 107.694 128.133C107.745 127.652 108.176 127.303 108.657 127.353L200.602 137.039C201.083 137.09 201.432 137.521 201.381 138.002Z" fill="white"/>
  <path fill-rule="evenodd" clip-rule="evenodd" d="M198.139 150.962C198.088 151.443 197.657 151.792 197.176 151.741L105.231 142.056C104.75 142.005 104.401 141.574 104.452 141.093C104.503 140.612 104.934 140.263 105.415 140.313L197.359 149.999C197.841 150.05 198.189 150.481 198.139 150.962Z" fill="white"/>
  <path fill-rule="evenodd" clip-rule="evenodd" d="M196.123 164.453C196.072 164.934 195.641 165.283 195.16 165.233L103.216 155.547C102.735 155.496 102.386 155.065 102.436 154.584C102.487 154.103 102.918 153.754 103.399 153.805L195.344 163.49C195.825 163.541 196.174 163.972 196.123 164.453Z" fill="white"/>
  <path fill-rule="evenodd" clip-rule="evenodd" d="M194.1 177.945C194.049 178.427 193.618 178.776 193.137 178.725L101.192 169.039C100.711 168.989 100.362 168.557 100.413 168.076C100.464 167.595 100.895 167.246 101.376 167.297L193.32 176.982C193.801 177.033 194.15 177.464 194.1 177.945Z" fill="white"/>
  <mask id="mask1_2524_32648" style="mask-type:alpha" maskUnits="userSpaceOnUse" x="84" y="106" width="130" height="111">
    <path d="M89.7127 192.007C100.882 194.635 146.436 197.567 155.853 198.796C170.886 200.944 176.746 210.19 182.135 216.317C182.241 216.438 182.573 216.536 182.573 216.317C180.821 206.242 183.965 201.711 185.42 200.986C186.988 200.204 200.131 200.483 203.378 196.91C205.568 194.501 221.564 124.732 206.882 116.668C191.333 108.126 103.966 104.15 95.7221 106.898C87.4783 109.646 78.9579 189.476 89.7127 192.007Z" fill="#6D2DF0"/>
  </mask>
  <g mask="url(#mask1_2524_32648)">
    <path d="M68.48 182.792C66.2113 185.051 53.4413 196.225 47.0171 201.408C48.7691 193.451 51.9757 178.261 50.5212 177.536C48.9533 176.754 20.4795 172.567 17.2319 168.995C15.0418 166.586 10.6754 112.997 15.2608 106.577C18.9664 101.389 115.207 84.7754 123.451 87.5233C131.695 90.2712 138.125 164.395 129.583 171.404C121.042 178.412 73.7362 182.135 68.48 182.792Z" fill="white"/>
  </g>
  <path d="M65.8862 180.703C63.6176 182.962 50.8476 194.136 44.4233 199.319C46.1754 191.362 49.382 176.172 47.9275 175.447C46.3595 174.665 17.8858 170.478 14.6381 166.906C12.448 164.497 8.08164 110.908 12.667 104.488C16.3727 99.3003 112.614 82.6865 120.857 85.4344C129.101 88.1824 135.531 162.307 126.99 169.315C118.448 176.323 71.1424 180.046 65.8862 180.703Z" fill="white"/>
  <path fill-rule="evenodd" clip-rule="evenodd" d="M118.347 84.2629C119.511 84.291 120.485 84.3867 121.136 84.6034C121.909 84.8612 122.552 85.4877 123.092 86.2425C123.644 87.0139 124.162 88.0222 124.649 89.2068C125.626 91.5788 126.533 94.7837 127.351 98.5273C128.991 106.023 130.305 115.807 131.092 125.708C131.879 135.608 132.142 145.659 131.67 153.69C131.434 157.702 131.012 161.238 130.371 164.009C130.051 165.394 129.67 166.611 129.218 167.609C128.771 168.598 128.227 169.434 127.546 169.992C126.363 170.963 124.578 171.829 122.429 172.612C120.263 173.402 117.658 174.135 114.78 174.811C109.023 176.165 102.114 177.313 95.328 178.259C85.3022 179.656 75.414 180.629 69.9366 181.168C68.2735 181.331 67.0171 181.455 66.2868 181.538C63.4903 184.239 51.2262 194.957 44.9744 200.001C44.685 200.235 44.2795 200.26 43.9632 200.064C43.647 199.868 43.4888 199.494 43.5688 199.131C44.4446 195.153 45.6804 189.384 46.5155 184.523C46.9337 182.089 47.2471 179.906 47.3674 178.299C47.4279 177.49 47.4363 176.864 47.3954 176.439C47.3846 176.327 47.3714 176.24 47.3585 176.175C47.2971 176.158 47.2179 176.136 47.1178 176.111C46.8391 176.041 46.4645 175.957 46.0011 175.86C45.0756 175.665 43.8301 175.425 42.3589 175.146C41.9096 175.061 41.4398 174.972 40.9523 174.879C38.2534 174.369 35.0138 173.756 31.7369 173.081C27.8708 172.284 23.9316 171.396 20.7478 170.479C19.1572 170.021 17.736 169.551 16.599 169.074C15.4998 168.614 14.5379 168.097 13.9909 167.495C13.82 167.307 13.7031 167.07 13.6201 166.872C13.5296 166.657 13.4446 166.402 13.3637 166.12C13.2016 165.556 13.0388 164.823 12.8765 163.957C12.5513 162.221 12.2163 159.883 11.8924 157.142C11.2442 151.658 10.635 144.514 10.2381 137.249C9.84125 129.985 9.6556 122.581 9.85806 116.581C9.95923 113.583 10.1579 110.916 10.4802 108.784C10.6414 107.718 10.8358 106.77 11.0701 105.973C11.301 105.188 11.5862 104.496 11.9552 103.979C12.1698 103.679 12.4897 103.433 12.8138 103.228C13.1528 103.015 13.5696 102.802 14.0464 102.589C15.0008 102.163 16.2646 101.709 17.7795 101.232C20.8135 100.276 24.9343 99.2067 29.7789 98.0827C39.4725 95.8336 52.1247 93.3533 64.9109 91.1224C77.6976 88.8915 90.6318 86.9078 100.891 85.6533C106.019 85.0262 110.489 84.5799 113.943 84.3769C115.67 84.2755 117.154 84.234 118.347 84.2629ZM47.3167 176.028C47.317 176.028 47.3188 176.031 47.3217 176.039C47.3179 176.032 47.3164 176.028 47.3167 176.028ZM13.7483 104.71C13.4903 104.873 13.398 104.974 13.3809 104.997C13.1768 105.283 12.9587 105.762 12.7509 106.468C12.5465 107.163 12.3666 108.027 12.2126 109.046C11.9046 111.082 11.7092 113.674 11.6091 116.64C11.4091 122.568 11.5922 129.916 11.9875 137.153C12.3828 144.388 12.9892 151.495 13.6324 156.937C13.9542 159.659 14.2838 161.953 14.5986 163.634C14.7564 164.476 14.9075 165.148 15.0477 165.637C15.118 165.881 15.1813 166.065 15.2355 166.194C15.2727 166.283 15.2964 166.323 15.3017 166.332C15.5749 166.622 16.2098 167.011 17.2763 167.459C18.3242 167.898 19.6726 168.347 21.2326 168.796C24.3501 169.693 28.2363 170.571 32.0905 171.365C35.3517 172.037 38.5749 172.647 41.274 173.157C41.7627 173.25 42.2342 173.339 42.6857 173.424C44.1551 173.703 45.4167 173.947 46.3611 174.145C46.8328 174.244 47.2338 174.333 47.5461 174.412C47.8252 174.483 48.1222 174.565 48.3194 174.663C48.7096 174.858 48.8869 175.217 48.9708 175.446C49.0632 175.699 49.1121 175.986 49.1394 176.271C49.1947 176.846 49.1775 177.588 49.1146 178.43C48.9879 180.123 48.6629 182.371 48.2423 184.82C47.5605 188.788 46.6162 193.346 45.8163 197.049C52.571 191.463 63.2408 182.102 65.2692 180.083C65.4068 179.946 65.586 179.858 65.7786 179.834C66.4998 179.744 67.9441 179.602 69.9302 179.407C75.4362 178.865 85.1071 177.914 95.0861 176.523C101.851 175.58 108.699 174.442 114.379 173.106C117.219 172.438 119.752 171.724 121.828 170.966C123.922 170.203 125.483 169.419 126.435 168.638C126.823 168.32 127.229 167.755 127.622 166.887C128.01 166.029 128.359 164.931 128.664 163.614C129.274 160.979 129.687 157.552 129.921 153.587C130.387 145.662 130.129 135.697 129.346 125.847C128.563 115.996 127.257 106.296 125.64 98.9018C124.83 95.2003 123.949 92.1087 123.029 89.8737C122.569 88.7547 122.111 87.8819 121.667 87.2622C121.212 86.6259 120.839 86.3513 120.581 86.2656C120.201 86.1388 119.458 86.0423 118.304 86.0144C117.18 85.9872 115.748 86.026 114.046 86.126C110.645 86.3259 106.215 86.7673 101.103 87.3924C90.8826 88.6422 77.9793 90.6209 65.212 92.8484C52.4443 95.0761 39.8262 97.5502 30.1748 99.7894C25.3469 100.91 21.2765 101.967 18.3058 102.903C16.8184 103.371 15.6265 103.803 14.76 104.189C14.3263 104.383 13.9913 104.557 13.7483 104.71Z" fill="black"/>
  <path fill-rule="evenodd" clip-rule="evenodd" d="M72.3093 187.436C70.9747 187.476 69.5088 188.054 68.5591 188.607C68.1654 188.837 67.6183 188.762 67.3371 188.441C67.0559 188.12 67.147 187.674 67.5407 187.444C68.6352 186.807 70.4325 186.063 72.2443 186.008C73.17 185.98 74.1353 186.132 74.9964 186.602C75.8602 187.073 76.538 187.82 76.9811 188.864C77.4089 189.872 77.5283 191.045 77.6403 192.145C77.6689 192.427 77.6971 192.704 77.7299 192.973C77.8986 194.353 78.1856 195.619 79.0702 196.691C80.7978 198.786 85.1813 200.53 97.5543 199.816C98.0369 199.788 98.4558 200.084 98.49 200.478C98.5242 200.871 98.1606 201.213 97.678 201.241C85.303 201.955 79.9406 200.306 77.6165 197.489C76.4753 196.105 76.16 194.535 75.9865 193.114C75.9461 192.784 75.9131 192.465 75.8814 192.158C75.7704 191.085 75.6739 190.152 75.3254 189.331C74.9801 188.518 74.5063 188.053 74.0223 187.789C73.5355 187.524 72.9568 187.416 72.3093 187.436Z" fill="black"/>
  <path fill-rule="evenodd" clip-rule="evenodd" d="M15.9079 93.6581C15.915 94.1418 15.5286 94.5398 15.0448 94.5469C12.7893 94.5801 9.34709 95.6261 6.5501 98.7306C3.76697 101.82 1.54715 107.034 1.89067 115.536C1.9102 116.02 1.53414 116.428 1.05072 116.447C0.567289 116.467 0.15956 116.091 0.140028 115.607C-0.217275 106.764 2.08908 101.065 5.2484 97.5578C8.39386 94.0665 12.3104 92.8349 15.019 92.795C15.5028 92.7879 15.9008 93.1743 15.9079 93.6581Z" fill="black"/>
  <path fill-rule="evenodd" clip-rule="evenodd" d="M1.14863 120.403C1.6309 120.364 2.05319 120.724 2.09183 121.206L2.5641 127.1C2.60274 127.583 2.24311 128.005 1.76083 128.044C1.27856 128.082 0.856269 127.723 0.817628 127.24L0.345357 121.346C0.306716 120.864 0.666352 120.441 1.14863 120.403Z" fill="black"/>
  <path fill-rule="evenodd" clip-rule="evenodd" d="M115.729 104.616C115.796 105.095 115.463 105.538 114.984 105.606L23.438 118.527C22.959 118.595 22.5158 118.261 22.4482 117.782C22.3805 117.303 22.7141 116.86 23.1932 116.793L114.739 103.871C115.218 103.803 115.661 104.137 115.729 104.616Z" fill="black"/>
  <path fill-rule="evenodd" clip-rule="evenodd" d="M115.729 117.975C115.796 118.454 115.463 118.898 114.984 118.965L23.438 131.887C22.959 131.954 22.5158 131.621 22.4482 131.142C22.3805 130.663 22.7141 130.22 23.1932 130.152L114.739 117.23C115.218 117.163 115.661 117.496 115.729 117.975Z" fill="black"/>
  <path fill-rule="evenodd" clip-rule="evenodd" d="M117.041 131.554C117.109 132.034 116.775 132.477 116.296 132.544L24.7505 145.466C24.2715 145.534 23.8283 145.2 23.7607 144.721C23.693 144.242 24.0266 143.799 24.5057 143.731L116.051 130.809C116.531 130.742 116.974 131.075 117.041 131.554Z" fill="black"/>
  <path fill-rule="evenodd" clip-rule="evenodd" d="M118.354 145.133C118.421 145.612 118.088 146.055 117.609 146.122L26.063 159.044C25.584 159.112 25.1408 158.778 25.0732 158.299C25.0055 157.82 25.3391 157.377 25.8182 157.309L117.364 144.388C117.843 144.32 118.286 144.654 118.354 145.133Z" fill="black"/>
  <path fill-rule="evenodd" clip-rule="evenodd" d="M61.1133 91.8204C61.4265 91.6373 61.8289 91.7427 62.0121 92.056C62.1187 92.2384 62.2188 92.5307 62.305 92.8351C62.3976 93.1622 62.4925 93.5716 62.573 94.0303C62.7333 94.9429 62.8426 96.0854 62.747 97.1855L62.745 97.2075L62.7417 97.2292C61.4707 105.429 57.7166 109.145 53.7178 110.548C49.7944 111.924 45.7982 111.014 44.0657 110.291C41.2105 109.099 40.1781 106.257 39.9782 103.442C39.7772 100.612 40.3919 97.5972 41.0494 95.6768C41.1669 95.3335 41.5405 95.1504 41.8838 95.268C42.2271 95.3855 42.4101 95.7591 42.2926 96.1024C41.6764 97.9023 41.1035 100.737 41.2889 103.349C41.4756 105.978 42.4038 108.173 44.5719 109.078C46.1092 109.72 49.7579 110.545 53.2828 109.308C56.7291 108.099 60.2236 104.859 61.4397 97.0501C61.5191 96.1059 61.4255 95.0933 61.2788 94.2575C61.2053 93.8387 61.1199 93.4732 61.0406 93.193C61.0009 93.0528 60.9639 92.9382 60.9322 92.8515C60.9164 92.8083 60.9029 92.7748 60.8922 92.7503C60.8823 92.7279 60.8772 92.7185 60.8772 92.7185C60.8772 92.7185 60.8774 92.7187 60.8776 92.7192C60.6945 92.4059 60.8 92.0035 61.1133 91.8204Z" fill="white"/>
  <path d="M44.663 109.227C39.8757 107.183 41.4761 98.9967 42.6898 95.3695L49.1516 91.1191L60.305 91.4058C60.5348 91.8079 60.7671 94.9785 60.8545 96.5135C58.4873 112.137 47.7791 110.558 44.663 109.227Z" fill="#111111"/>
  <path fill-rule="evenodd" clip-rule="evenodd" d="M59.9733 90.8357C60.2883 90.6557 60.6897 90.7651 60.8697 91.0802C60.9379 91.1996 60.988 91.3471 61.0249 91.4697C61.0661 91.6065 61.1074 91.7699 61.1475 91.9508C61.2277 92.3136 61.3082 92.7709 61.3752 93.2746C61.5084 94.2757 61.594 95.5042 61.5035 96.5696L61.5017 96.591L61.4984 96.6124C60.2907 104.584 56.9173 108.332 53.2851 109.836C49.7136 111.314 46.0676 110.544 44.3992 109.832C41.617 108.644 40.836 105.615 40.8149 102.723C40.7934 99.7841 41.5437 96.6685 42.1643 94.8141L42.3728 94.1911L43.6189 94.6081L43.4104 95.2311C42.8172 97.0039 42.1088 99.9685 42.1289 102.714C42.1494 105.507 42.9102 107.767 44.9153 108.623C46.363 109.242 49.6292 109.927 52.7826 108.622C55.8724 107.343 59.0337 104.074 60.1959 96.4371C60.2724 95.5076 60.1984 94.3931 60.0726 93.4478C60.0097 92.9747 59.9353 92.555 59.8644 92.2347C59.8289 92.0742 59.7956 91.9445 59.7667 91.8486C59.7401 91.7603 59.7249 91.7267 59.7254 91.7264C59.7255 91.7264 59.7266 91.7284 59.7288 91.7321C59.5487 91.4171 59.6582 91.0157 59.9733 90.8357Z" fill="#111111"/>
  <path d="M133.916 107.367C134.968 100.534 141.2 96.3148 145.845 95.2871L155.515 105.613C155.953 107.511 155.292 111.134 148.809 115.689C140.706 121.384 132.602 115.908 133.916 107.367Z" fill="#111111"/>
  <path fill-rule="evenodd" clip-rule="evenodd" d="M146.487 95.1451C146.566 95.4994 146.342 95.8502 145.988 95.9286C141.512 96.9188 135.563 100.987 134.566 107.467C133.945 111.507 135.552 114.732 138.17 116.303C140.782 117.87 144.552 117.878 148.432 115.152C154.816 110.665 155.226 107.28 154.876 105.761C154.794 105.407 155.015 105.054 155.368 104.973C155.722 104.891 156.075 105.112 156.156 105.465C156.682 107.743 155.768 111.603 149.187 116.227C144.963 119.195 140.63 119.312 137.494 117.43C134.362 115.551 132.575 111.768 133.267 107.267C134.373 100.081 140.889 95.7107 145.704 94.6455C146.058 94.5672 146.409 94.7908 146.487 95.1451Z" fill="white"/>
  <path d="M101.095 45.4485C102.13 43.4547 99.3461 42.9674 97.8247 42.973C96.4345 42.8531 93.3232 42.8951 93.9184 45.0056C94.3946 46.694 96.4558 48.1754 97.427 48.7051C98.2187 48.4503 100.061 47.4423 101.095 45.4485Z" fill="white"/>
  <path fill-rule="evenodd" clip-rule="evenodd" d="M100.323 43.6571C99.6105 43.3085 98.5739 43.1886 97.826 43.1914L97.8161 43.1914L97.8063 43.1905C97.1184 43.1312 96.0264 43.1149 95.1896 43.3622C94.7709 43.486 94.4455 43.6674 94.2562 43.9136C94.0762 44.1478 93.996 44.4715 94.1296 44.9455C94.3516 45.7325 94.9515 46.4915 95.6367 47.1289C96.2792 47.7266 96.9763 48.1984 97.4488 48.4658C98.2434 48.1801 99.9368 47.2059 100.902 45.347C101.139 44.8884 101.14 44.5543 101.034 44.3052C100.924 44.0472 100.678 43.8307 100.323 43.6571ZM101.437 44.1331C101.609 44.536 101.57 45.0104 101.29 45.5488C100.223 47.6053 98.3275 48.6449 97.4945 48.9129L97.405 48.9417L97.3225 48.8967C96.8226 48.6241 96.0493 48.1109 95.3384 47.4496C94.6311 46.7917 93.9623 45.9658 93.7081 45.0644C93.5441 44.4831 93.6296 44.0101 93.909 43.6466C94.1791 43.2951 94.6068 43.0778 95.0654 42.9422C95.9787 42.6722 97.131 42.6934 97.8342 42.7533C98.6073 42.7515 99.7173 42.8731 100.515 43.2636C100.917 43.4603 101.268 43.7391 101.437 44.1331Z" fill="black"/>
  <path d="M85.4856 28.6105C85.8876 28.2984 86.6032 28.279 87.0641 28.3052C87.3055 28.3189 87.4677 28.5419 87.4279 28.7804C87.2656 29.7512 86.8525 32.1495 86.4647 33.796C86.1039 35.3281 85.4678 37.4704 85.1698 38.454C85.0876 38.7254 84.7728 38.8459 84.5293 38.7004L84.0591 38.4197C83.9121 38.3319 83.8297 38.1664 83.8483 37.9961L84.7227 29.9745C84.7256 29.9479 84.7308 29.922 84.7391 29.8965C84.798 29.7151 85.0708 28.9326 85.4856 28.6105Z" fill="#6D2DF0"/>
  <path fill-rule="evenodd" clip-rule="evenodd" d="M86.3141 28.7647C86.0578 28.801 85.867 28.8689 85.7542 28.9565C85.6289 29.0538 85.4929 29.2542 85.3718 29.4999C85.2602 29.7263 85.1857 29.9401 85.1578 30.0254L84.2837 38.0436L84.7518 38.3231C85.0505 37.3372 85.6815 35.2106 86.0384 33.6956C86.4183 32.0825 86.8246 29.7311 86.9905 28.74C86.7855 28.7304 86.5434 28.7322 86.3141 28.7647ZM87.0641 28.3052C86.6032 28.279 85.8876 28.2984 85.4856 28.6105C85.0708 28.9326 84.798 29.7151 84.7391 29.8965C84.7308 29.922 84.7256 29.9479 84.7227 29.9745L83.8483 37.9961C83.8297 38.1664 83.9121 38.3319 84.0591 38.4197L84.5293 38.7004C84.7728 38.8459 85.0876 38.7254 85.1698 38.454C85.4678 37.4704 86.1039 35.3281 86.4647 33.796C86.8525 32.1495 87.2656 29.7512 87.4279 28.7804C87.4677 28.5419 87.3055 28.3189 87.0641 28.3052Z" fill="#6D2DF0"/>
  <path d="M111.079 28.2202C111.448 27.87 112.158 27.7803 112.62 27.761C112.861 27.7509 113.045 27.9569 113.028 28.1981C112.962 29.1802 112.787 31.6075 112.563 33.2842C112.355 34.8443 111.933 37.0388 111.733 38.0469C111.678 38.3251 111.376 38.476 111.12 38.3552L110.624 38.122C110.469 38.0491 110.371 37.8926 110.373 37.7213L110.454 29.6525C110.454 29.6258 110.457 29.5995 110.462 29.5733C110.503 29.387 110.698 28.5814 111.079 28.2202Z" fill="#6D2DF0"/>
  <path fill-rule="evenodd" clip-rule="evenodd" d="M111.918 28.292C111.667 28.3534 111.484 28.4398 111.38 28.538C111.265 28.6472 111.149 28.86 111.053 29.1164C110.964 29.3527 110.911 29.5728 110.892 29.6604L110.811 37.7257L111.304 37.9578C111.504 36.9473 111.923 34.7689 112.129 33.2262C112.349 31.5835 112.522 29.2036 112.589 28.2009C112.384 28.2116 112.143 28.2372 111.918 28.292ZM112.62 27.761C112.158 27.7803 111.448 27.87 111.079 28.2202C110.698 28.5814 110.503 29.387 110.462 29.5733C110.457 29.5995 110.454 29.6258 110.454 29.6525L110.373 37.7213C110.371 37.8926 110.469 38.0491 110.624 38.122L111.12 38.3552C111.376 38.476 111.678 38.3251 111.733 38.0469C111.933 37.0388 112.355 34.8443 112.563 33.2842C112.787 31.6075 112.962 29.1802 113.028 28.1981C113.045 27.9569 112.861 27.7509 112.62 27.761Z" fill="#6D2DF0"/>
</svg>