<svg viewBox="0 0 100 19" fill="none" xmlns="http://www.w3.org/2000/svg">
<path d="M27.1099 14.6687C26.1354 13.9459 25.545 12.9339 25.3389 11.6425H27.0818C27.3723 12.4713 27.8127 13.0688 28.4031 13.4543C28.9935 13.8399 29.7713 14.0326 30.7458 14.0326C31.6923 14.0326 32.4513 13.8591 33.0323 13.5025C33.6133 13.1459 33.9038 12.693 33.9038 12.134C33.9038 11.6425 33.6883 11.2473 33.2572 10.9389C32.8261 10.6305 32.114 10.3799 31.13 10.1775L29.8087 9.92696C28.4219 9.67638 27.3911 9.24268 26.707 8.62587C26.0229 8.00906 25.6762 7.24768 25.6762 6.34174C25.6762 5.64783 25.8824 5.04065 26.2853 4.51058C26.6883 3.98051 27.2599 3.57573 27.9908 3.27696C28.7217 2.98783 29.5651 2.83362 30.5209 2.83362C31.7672 2.83362 32.8449 3.15167 33.7632 3.77812C34.6816 4.40457 35.2907 5.29123 35.5812 6.42848H33.7538C33.5196 5.82131 33.1073 5.3587 32.5075 5.04065C31.9078 4.72261 31.2237 4.56841 30.4366 4.56841C29.5182 4.56841 28.7967 4.73225 28.2625 5.05993C27.7378 5.38761 27.466 5.84058 27.466 6.41884C27.466 6.88145 27.6816 7.25732 28.1032 7.54645C28.5249 7.83558 29.1996 8.05725 30.118 8.23073L31.4393 8.46203C32.9011 8.71261 33.9788 9.14631 34.6628 9.75348C35.3469 10.3607 35.6936 11.1509 35.6936 12.1051C35.6936 12.8183 35.4781 13.4543 35.0564 14.0037C34.6347 14.553 34.0443 14.9867 33.2853 15.2951C32.5263 15.6036 31.6642 15.7578 30.6896 15.7578C29.2746 15.7578 28.0751 15.3915 27.1099 14.6687Z" fill="white"/>
<path d="M43.9868 6.60196H45.5611V15.5746H43.9024V14.2254C43.5464 14.7072 43.1059 15.0735 42.5905 15.3433C42.0751 15.6132 41.5316 15.7481 40.9506 15.7481C40.1822 15.7481 39.4888 15.5457 38.8609 15.1506C38.2331 14.7458 37.7364 14.1965 37.3804 13.4929C37.0243 12.7893 36.8368 11.9894 36.8368 11.0931C36.8368 10.1968 37.0149 9.39689 37.3804 8.69334C37.7364 7.98978 38.2331 7.4308 38.8609 7.03565C39.4888 6.63087 40.1822 6.43812 40.9506 6.43812C41.5597 6.43812 42.122 6.58268 42.6468 6.87181C43.1715 7.16094 43.6213 7.55609 43.9868 8.07652V6.60196ZM42.628 13.782C43.0497 13.5218 43.3683 13.1556 43.6026 12.6833C43.8368 12.2111 43.9493 11.681 43.9493 11.0931C43.9493 10.5052 43.8368 9.97515 43.6026 9.5029C43.3683 9.03065 43.0403 8.66442 42.628 8.40421C42.2063 8.14399 41.7472 8.00906 41.2318 8.00906C40.7164 8.00906 40.2572 8.14399 39.8543 8.40421C39.4513 8.66442 39.1233 9.03065 38.8984 9.5029C38.6642 9.97515 38.5517 10.5052 38.5517 11.0931C38.5517 11.681 38.6642 12.2111 38.8984 12.6833C39.1327 13.1556 39.4513 13.5218 39.8543 13.782C40.2572 14.0422 40.7164 14.1772 41.2318 14.1772C41.7378 14.1772 42.2063 14.0422 42.628 13.782Z" fill="white"/>
<path d="M55.0443 7.02601C55.6722 7.4308 56.1688 7.98015 56.5249 8.6837C56.881 9.38725 57.0684 10.1872 57.0684 11.0835C57.0684 11.9798 56.8904 12.7797 56.5249 13.4833C56.1688 14.1868 55.6722 14.7458 55.0443 15.1409C54.4165 15.5457 53.7231 15.7385 52.9547 15.7385C52.3737 15.7385 51.8302 15.6036 51.3148 15.3337C50.7994 15.0638 50.3683 14.688 50.0028 14.2157V18.6105H48.3442V6.60196H49.9185V8.05725C50.2933 7.54645 50.7338 7.14167 51.2585 6.85254C51.7833 6.56341 52.3455 6.41884 52.9547 6.41884C53.7137 6.42848 54.4165 6.62123 55.0443 7.02601ZM54.051 13.782C54.454 13.5218 54.782 13.1556 55.0069 12.6833C55.2411 12.2111 55.3536 11.681 55.3536 11.0931C55.3536 10.5052 55.2411 9.97515 55.0069 9.5029C54.7726 9.03065 54.454 8.66442 54.051 8.40421C53.6481 8.14399 53.1889 8.00906 52.6735 8.00906C52.1581 8.00906 51.699 8.14399 51.2773 8.40421C50.8556 8.66442 50.537 9.03065 50.3027 9.5029C50.0684 9.97515 49.956 10.5052 49.956 11.0931C49.956 11.681 50.0684 12.2111 50.3027 12.6833C50.537 13.1556 50.865 13.5218 51.2773 13.782C51.699 14.0422 52.1581 14.1772 52.6735 14.1772C53.1796 14.1772 53.6387 14.0422 54.051 13.782Z" fill="white"/>
<path d="M65.7739 7.02601C66.4018 7.4308 66.8984 7.98015 67.2545 8.6837C67.6106 9.38725 67.798 10.1872 67.798 11.0835C67.798 11.9798 67.62 12.7797 67.2545 13.4833C66.8984 14.1868 66.4018 14.7458 65.7739 15.1409C65.1461 15.5457 64.4526 15.7385 63.6842 15.7385C63.1032 15.7385 62.5597 15.6036 62.0443 15.3337C61.529 15.0638 61.0979 14.688 60.7324 14.2157V18.6105H59.0738V6.60196H60.6481V8.05725C61.0229 7.54645 61.4634 7.14167 61.9881 6.85254C62.5129 6.56341 63.0751 6.41884 63.6842 6.41884C64.4433 6.42848 65.1461 6.62123 65.7739 7.02601ZM64.7712 13.782C65.1742 13.5218 65.5022 13.1556 65.7271 12.6833C65.9613 12.2111 66.0738 11.681 66.0738 11.0931C66.0738 10.5052 65.9613 9.97515 65.7271 9.5029C65.4928 9.03065 65.1742 8.66442 64.7712 8.40421C64.3683 8.14399 63.9091 8.00906 63.3937 8.00906C62.8783 8.00906 62.4192 8.14399 61.9975 8.40421C61.5758 8.66442 61.2572 9.03065 61.0229 9.5029C60.7887 9.97515 60.6762 10.5052 60.6762 11.0931C60.6762 11.681 60.7887 12.2111 61.0229 12.6833C61.2572 13.1556 61.5852 13.5218 61.9975 13.782C62.4192 14.0422 62.8783 14.1772 63.3937 14.1772C63.9091 14.1772 64.3683 14.0422 64.7712 13.782Z" fill="white"/>
<path d="M77.6468 6.60196V15.5746H75.9881V8.22109H71.4526V15.5746H69.794V2.93H71.4526V6.6116H77.6468V6.60196Z" fill="white"/>
<path d="M80.3549 4.99247V3.01674H82.201V4.99247H80.3549ZM80.4393 15.5746V6.60196H82.0979V15.5746H80.4393Z" fill="white"/>
<path d="M90.1193 6.47667V8.14399C89.9132 8.0958 89.5758 8.07652 89.126 8.07652C88.6106 8.07652 88.1608 8.19217 87.7766 8.43312C87.383 8.67406 87.0832 8.9921 86.8676 9.39688C86.6521 9.80167 86.549 10.2354 86.549 10.7172V15.5746H84.8904V6.60196H86.4647V7.98014C86.7927 7.49826 87.205 7.12239 87.711 6.8429C88.217 6.56341 88.7605 6.41884 89.3415 6.41884C89.6133 6.42848 89.8757 6.44776 90.1193 6.47667Z" fill="white"/>
<path d="M97.8877 7.01638C98.5531 7.41152 99.0685 7.97051 99.4339 8.69334C99.79 9.41616 99.9774 10.2643 99.9774 11.228C99.9774 11.4786 99.9681 11.6617 99.9587 11.787H92.8087C92.9212 12.4809 93.2398 13.0496 93.7552 13.5025C94.2706 13.9555 94.8703 14.1772 95.5638 14.1772C96.6883 14.1772 97.4942 13.7531 97.9721 12.905H99.6776C99.3964 13.7435 98.881 14.4278 98.122 14.9578C97.363 15.4879 96.5102 15.7578 95.5544 15.7578C94.7016 15.7578 93.9332 15.5554 93.2492 15.1602C92.5651 14.7554 92.031 14.2061 91.6468 13.4929C91.2626 12.7797 91.0751 11.9798 91.0751 11.0931C91.0751 10.2065 91.2626 9.40652 91.6468 8.69334C92.031 7.98015 92.5651 7.42116 93.2398 7.02601C93.9239 6.62123 94.6829 6.42848 95.5357 6.42848C96.4446 6.42848 97.2224 6.62123 97.8877 7.01638ZM93.7365 8.59696C93.2398 9.04029 92.9399 9.60891 92.8181 10.3028H98.1689C98.1033 9.58964 97.8128 9.01138 97.3255 8.57768C96.8288 8.14399 96.2197 7.93196 95.4982 7.93196C94.8235 7.93196 94.2331 8.15362 93.7365 8.59696Z" fill="white"/>
<path d="M6.6158 14.6975L4.60107 18.2827L0 10.0907H4.02945L6.6158 14.6975ZM4.79786 7.45956H0.768407L4.60107 0.626449L6.6158 4.21167L4.79786 7.45956ZM15.7336 11.4496H19.7631L15.9304 18.2827L13.9157 14.6975L15.7336 11.4496ZM7.68407 3.58522L5.66934 0H14.8621L12.8474 3.58522H7.68407ZM12.8474 15.3239L14.8621 18.9091H5.66934L7.68407 15.3239H12.8474ZM13.9157 4.2213L15.9304 0.636088L20.5315 8.82812H16.502L13.9157 4.2213Z" fill="white"/>
<path d="M0.768407 7.45956L14.7684 13.1747L19.7631 11.4496L5.79116 5.69587L0.768407 7.45956Z" fill="white"/>
</svg>
