<svg xmlns="http://www.w3.org/2000/svg" width="27" height="24" viewBox="0 0 27 24" fill="none">
  <path d="M8.70014 18.6544L6.05066 23.2049L0 12.8073H5.29895L8.70014 18.6544ZM6.30945 9.46789H1.0105L6.05066 0.795107L8.70014 5.34556L6.30945 9.46789ZM20.6906 14.5321H25.9895L20.9493 23.2049L18.2999 18.6544L20.6906 14.5321ZM10.105 4.55046L7.4555 0H19.5445L16.895 4.55046H10.105ZM16.895 19.4495L19.5445 24H7.4555L10.105 19.4495H16.895ZM18.2999 5.3578L20.9493 0.80734L27 11.2049H21.701L18.2999 5.3578Z" fill="#111111"/>
  <path d="M1.0105 9.46789L19.4213 16.7217L25.9895 14.5321L7.6157 7.22936L1.0105 9.46789Z" fill="#111111"/>
</svg>