<svg xmlns="http://www.w3.org/2000/svg" width="80" height="18" viewBox="0 0 80 18" fill="none">
  <path d="M1.89833 13.1125C0.853747 12.3592 0.22097 11.3045 0 9.95862H1.8682C2.17957 10.8224 2.65164 11.4451 3.28442 11.8469C3.91719 12.2487 4.75085 12.4496 5.79544 12.4496C6.80989 12.4496 7.62346 12.2688 8.2462 11.8971C8.86893 11.5255 9.1803 11.0534 9.1803 10.4709C9.1803 9.95862 8.94929 9.54681 8.48726 9.2254C8.02523 8.90399 7.26188 8.64285 6.20725 8.43192L4.79103 8.17077C3.3045 7.90963 2.19965 7.45764 1.46644 6.81482C0.733216 6.172 0.361585 5.37851 0.361585 4.43437C0.361585 3.71119 0.582555 3.07842 1.01445 2.52599C1.44635 1.97357 2.05904 1.55172 2.84248 1.24035C3.62592 0.939026 4.52988 0.77832 5.55438 0.77832C6.89025 0.77832 8.04532 1.10978 9.02964 1.76264C10.014 2.41551 10.6668 3.33957 10.9782 4.52477H9.01959C8.76849 3.89199 8.32655 3.40987 7.68373 3.07842C7.04091 2.74696 6.30769 2.58626 5.46399 2.58626C4.47966 2.58626 3.70627 2.75701 3.13375 3.09851C2.57129 3.44001 2.28001 3.91208 2.28001 4.51472C2.28001 4.99684 2.51102 5.38856 2.96301 5.68988C3.41499 5.9912 4.13817 6.22222 5.12249 6.40301L6.5387 6.64407C8.10558 6.90522 9.26065 7.3572 9.99387 7.98998C10.7271 8.62276 11.0987 9.44637 11.0987 10.4407C11.0987 11.184 10.8677 11.8469 10.4157 12.4194C9.96374 12.9919 9.33096 13.4439 8.51739 13.7653C7.70382 14.0867 6.77976 14.2474 5.73517 14.2474C4.21852 14.2474 2.93287 13.8658 1.89833 13.1125Z" fill="#111111"/>
  <path d="M19.9871 4.7044H21.6745V14.0554H19.8967V12.6493C19.515 13.1515 19.0429 13.5332 18.4905 13.8144C17.9381 14.0956 17.3555 14.2362 16.7328 14.2362C15.9092 14.2362 15.1659 14.0253 14.493 13.6135C13.82 13.1917 13.2877 12.6191 12.906 11.8859C12.5243 11.1527 12.3234 10.319 12.3234 9.38494C12.3234 8.45084 12.5143 7.61718 12.906 6.88397C13.2877 6.15075 13.82 5.56819 14.493 5.15638C15.1659 4.73453 15.9092 4.53365 16.7328 4.53365C17.3857 4.53365 17.9883 4.68431 18.5508 4.98563C19.1133 5.28695 19.5954 5.69876 19.9871 6.24114V4.7044ZM18.5307 12.1872C18.9827 11.9161 19.3242 11.5344 19.5753 11.0422C19.8264 10.5501 19.9469 9.99763 19.9469 9.38494C19.9469 8.77225 19.8264 8.21983 19.5753 7.72767C19.3242 7.23551 18.9726 6.85383 18.5307 6.58264C18.0787 6.31145 17.5865 6.17083 17.0341 6.17083C16.4817 6.17083 15.9895 6.31145 15.5576 6.58264C15.1257 6.85383 14.7742 7.23551 14.5331 7.72767C14.282 8.21983 14.1615 8.77225 14.1615 9.38494C14.1615 9.99763 14.282 10.5501 14.5331 11.0422C14.7842 11.5344 15.1257 11.9161 15.5576 12.1872C15.9895 12.4584 16.4817 12.5991 17.0341 12.5991C17.5765 12.5991 18.0787 12.4584 18.5307 12.1872Z" fill="#111111"/>
  <path d="M31.8396 5.14774C32.5126 5.56959 33.0449 6.14211 33.4266 6.87532C33.8083 7.60854 34.0091 8.4422 34.0091 9.3763C34.0091 10.3104 33.8183 11.1441 33.4266 11.8773C33.0449 12.6105 32.5126 13.1931 31.8396 13.6049C31.1667 14.0267 30.4234 14.2276 29.5998 14.2276C28.9771 14.2276 28.3945 14.087 27.8421 13.8057C27.2897 13.5245 26.8276 13.1328 26.4359 12.6406V17.2207H24.6581V4.7058H26.3455V6.22246C26.7473 5.69012 27.2193 5.26827 27.7818 4.96695C28.3443 4.66562 28.9469 4.51496 29.5998 4.51496C30.4134 4.52501 31.1667 4.72589 31.8396 5.14774ZM30.7749 12.1887C31.2068 11.9175 31.5584 11.5358 31.7994 11.0436C32.0505 10.5515 32.1711 9.99904 32.1711 9.38635C32.1711 8.77366 32.0505 8.22123 31.7994 7.72907C31.5483 7.23691 31.2068 6.85524 30.7749 6.58405C30.3431 6.31286 29.8509 6.17224 29.2985 6.17224C28.746 6.17224 28.2539 6.31286 27.8019 6.58405C27.3499 6.85524 27.0084 7.23691 26.7573 7.72907C26.5062 8.22123 26.3857 8.77366 26.3857 9.38635C26.3857 9.99904 26.5062 10.5515 26.7573 11.0436C27.0084 11.5358 27.36 11.9175 27.8019 12.1887C28.2539 12.4598 28.746 12.6005 29.2985 12.6005C29.8409 12.6005 30.333 12.4598 30.7749 12.1887Z" fill="#111111"/>
  <path d="M43.341 5.14774C44.014 5.56959 44.5463 6.14211 44.928 6.87532C45.3096 7.60854 45.5105 8.4422 45.5105 9.3763C45.5105 10.3104 45.3197 11.1441 44.928 11.8773C44.5463 12.6105 44.014 13.1931 43.341 13.6049C42.6681 14.0267 41.9248 14.2276 41.1012 14.2276C40.4784 14.2276 39.8959 14.087 39.3435 13.8057C38.791 13.5245 38.329 13.1328 37.9373 12.6406V17.2207H36.1595V4.7058H37.8469V6.22246C38.2486 5.69012 38.7207 5.26827 39.2832 4.96695C39.8457 4.66562 40.4483 4.51496 41.1012 4.51496C41.9147 4.52501 42.6681 4.72589 43.341 5.14774ZM42.2663 12.1887C42.6982 11.9175 43.0497 11.5358 43.2908 11.0436C43.5419 10.5515 43.6624 9.99904 43.6624 9.38635C43.6624 8.77366 43.5419 8.22123 43.2908 7.72907C43.0397 7.23691 42.6982 6.85524 42.2663 6.58405C41.8344 6.31286 41.3422 6.17224 40.7898 6.17224C40.2374 6.17224 39.7452 6.31286 39.2932 6.58405C38.8413 6.85524 38.4998 7.23691 38.2486 7.72907C37.9975 8.22123 37.877 8.77366 37.877 9.38635C37.877 9.99904 37.9975 10.5515 38.2486 11.0436C38.4998 11.5358 38.8513 11.9175 39.2932 12.1887C39.7452 12.4598 40.2374 12.6005 40.7898 12.6005C41.3422 12.6005 41.8344 12.4598 42.2663 12.1887Z" fill="#111111"/>
  <path d="M56.0666 4.70601V14.0571H54.2888V6.39342H49.4275V14.0571H47.6497V0.87921H49.4275V4.71605H56.0666V4.70601Z" fill="#111111"/>
  <path d="M58.9717 3.02793V0.968889H60.9504V3.02793H58.9717ZM59.0621 14.0563V4.70529H60.8399V14.0563H59.0621Z" fill="#111111"/>
  <path d="M69.4339 4.57523V6.31285C69.2129 6.26263 68.8514 6.24254 68.3692 6.24254C67.8168 6.24254 67.3347 6.36307 66.9229 6.61418C66.501 6.86528 66.1796 7.19673 65.9486 7.61859C65.7176 8.04044 65.6071 8.49242 65.6071 8.99463V14.0569H63.8293V4.7058H65.5167V6.1421C65.8683 5.6399 66.3102 5.24818 66.8526 4.9569C67.395 4.66562 67.9775 4.51496 68.6003 4.51496C68.8915 4.52501 69.1728 4.5451 69.4339 4.57523Z" fill="#111111"/>
  <path d="M77.7602 5.13699C78.4733 5.5488 79.0257 6.13136 79.4174 6.88467C79.7991 7.63797 80 8.52185 80 9.52626C80 9.78741 79.99 9.97824 79.9799 10.1088H72.3163C72.4368 10.832 72.7783 11.4246 73.3307 11.8967C73.8832 12.3687 74.526 12.5998 75.2692 12.5998C76.4745 12.5998 77.3383 12.1578 77.8506 11.2739H79.6786C79.3773 12.1478 78.8248 12.8609 78.0113 13.4133C77.1977 13.9658 76.2837 14.247 75.2592 14.247C74.3452 14.247 73.5216 14.0361 72.7883 13.6242C72.0551 13.2024 71.4826 12.6299 71.0708 11.8866C70.659 11.1434 70.4581 10.3097 70.4581 9.38564C70.4581 8.46159 70.659 7.62793 71.0708 6.88467C71.4826 6.1414 72.0551 5.55884 72.7783 5.14704C73.5115 4.72518 74.3251 4.5243 75.2391 4.5243C76.2134 4.5243 77.047 4.72518 77.7602 5.13699ZM73.3106 6.78422C72.7783 7.24625 72.4569 7.83885 72.3263 8.56203H78.0615C77.9912 7.81876 77.6798 7.21612 77.1575 6.76413C76.6252 6.31215 75.9723 6.09118 75.1989 6.09118C74.4758 6.09118 73.843 6.3222 73.3106 6.78422Z" fill="#111111"/>
</svg>