<svg viewBox="0 0 79 49" fill="none" xmlns="http://www.w3.org/2000/svg">
<path id="Vector_2" fill-rule="evenodd" clip-rule="evenodd" d="M14.3872 43.8604C10.2813 42.7109 5.98261 42.1311 1.81258 41.5998C0.914417 41.4885 0.0805359 42.1099 0.0163816 42.9855C-0.111927 43.8617 0.529992 44.663 1.364 44.7744C5.40572 45.2858 9.57538 45.833 13.4888 46.9396C14.3228 47.1796 15.2213 46.6855 15.478 45.8356C15.7346 44.9862 15.2212 44.1011 14.3872 43.8604Z" fill="black"/>
<path id="Vector_3" fill-rule="evenodd" clip-rule="evenodd" d="M26.8321 27.5628C20.2242 20.8354 12.7823 14.9739 6.30267 8.06604C5.72528 7.42089 4.69881 7.38633 4.05727 7.9886C3.41573 8.59151 3.35182 9.60533 3.99337 10.2505C10.473 17.1782 17.9149 23.0589 24.5228 29.8061C25.1643 30.4359 26.1905 30.4449 26.8321 29.8253C27.4095 29.2064 27.4736 28.1926 26.8321 27.5628Z" fill="black"/>
<path id="Vector_4" fill-rule="evenodd" clip-rule="evenodd" d="M39.215 1.68698C39.4075 5.53743 39.5995 9.38788 39.792 13.239C39.792 14.1209 40.5622 14.8019 41.4604 14.7591C42.3586 14.7155 42.9997 13.9648 42.9997 13.0822C42.8073 9.22532 42.6152 5.3691 42.4227 1.51289C42.3586 0.630919 41.5886 -0.0455981 40.6904 0.0024045C39.8564 0.0504072 39.1508 0.805651 39.215 1.68698Z" fill="black"/>
<path d="M-5909 -914H7077V-916H-5909V-914ZM7078 -913V7779H7080V-913H7078ZM7077 7780H-5909V7782H7077V7780ZM-5910 7779V-913H-5912V7779H-5910ZM-5909 7780C-5909.55 7780 -5910 7779.55 -5910 7779H-5912C-5912 7780.66 -5910.66 7782 -5909 7782V7780ZM7078 7779C7078 7779.55 7077.55 7780 7077 7780V7782C7078.66 7782 7080 7780.66 7080 7779H7078ZM7077 -914C7077.55 -914 7078 -913.552 7078 -913H7080C7080 -914.657 7078.66 -916 7077 -916V-914ZM-5909 -916C-5910.66 -916 -5912 -914.657 -5912 -913H-5910C-5910 -913.552 -5909.55 -914 -5909 -914V-916Z" fill="black" fill-opacity="0.1"/>
</svg>
