<svg xmlns="http://www.w3.org/2000/svg" width="222" height="236" viewBox="0 0 222 236" fill="none">
  <g clip-path="url(#clip0_2460_26891)">
    <path d="M91.5667 221.684C101.723 220.397 103.811 202.358 103.585 193.5L114.08 192.907C115.976 210.444 106.181 224.364 101.046 229.132C75.7396 247.583 65.5832 215.928 77.3477 212.458C89.1122 208.988 78.8712 223.292 91.5667 221.684Z" fill="#111111"/>
    <path fill-rule="evenodd" clip-rule="evenodd" d="M114.734 192.837C116.659 210.643 106.727 224.754 101.494 229.614L101.465 229.64L101.434 229.663C95.0228 234.337 89.4851 235.901 84.9489 235.453C80.4038 235.004 76.9669 232.546 74.7579 229.393C72.5576 226.252 71.5527 222.392 71.8755 219.059C72.1986 215.724 73.8813 212.796 77.1626 211.828C80.1425 210.95 82.0278 211.098 83.1948 212.181C83.7596 212.704 84.0831 213.387 84.2978 214.083C84.499 214.735 84.6207 215.457 84.7363 216.142C84.7431 216.183 84.7499 216.223 84.7567 216.264C85.012 217.774 85.2726 219.089 86.1203 219.98C86.9212 220.822 88.4044 221.422 91.485 221.032C96.1383 220.443 99.0871 215.989 100.842 210.24C102.578 204.55 103.041 197.901 102.929 193.517L104.243 193.483C104.357 197.958 103.889 204.757 102.098 210.623C100.327 216.43 97.1532 221.639 91.6501 222.336C88.3829 222.75 86.3854 222.165 85.1682 220.886C83.9978 219.656 83.703 217.914 83.461 216.483C83.456 216.453 83.4509 216.423 83.4459 216.393C83.3253 215.679 83.2169 215.037 83.0421 214.47C82.8618 213.886 82.6292 213.448 82.3013 213.144C81.683 212.571 80.4368 212.233 77.5344 213.089C74.9334 213.856 73.4739 216.187 73.1834 219.186C72.8926 222.188 73.8026 225.739 75.8342 228.639C77.857 231.526 80.9689 233.739 85.078 234.145C89.1888 234.551 94.4 233.157 100.628 228.624C105.672 223.923 115.291 210.213 113.428 192.978L114.734 192.837Z" fill="black"/>
    <path d="M102.818 9.03225C95.9845 8.85704 90.0421 12.4634 87.925 14.2885C82.8878 6.62315 66.2431 -3.23225 65.148 2.24297C64.053 7.7182 69.0902 24.5819 70.4042 28.9621C71.7183 33.3423 71.7183 36.1894 70.4042 38.5985C69.0902 41.0076 65.8051 51.739 70.4042 60.9374C75.0034 70.1358 64.491 79.7722 54.1976 84.1524C45.9628 87.6565 42.8821 93.7888 42.3711 96.4169L124.718 108.9L164.14 110.214C165.381 109.046 167.119 104.52 164.14 95.7598C160.417 84.8094 146.181 80.6482 138.516 71.0118C130.851 61.3754 133.041 57.2142 134.574 48.6729C135.8 41.8398 133.479 33.8533 132.165 30.7141C141.582 17.7926 141.582 2.02396 141.363 1.58595C141.188 1.23553 140.414 1.29393 140.049 1.36694C128.135 3.29422 121.36 10.3463 119.462 13.6314C116.761 12.1714 109.651 9.20746 102.818 9.03225Z" fill="#111111"/>
    <path fill-rule="evenodd" clip-rule="evenodd" d="M66.4914 1.47965C66.1273 1.63273 65.8897 1.89587 65.7945 2.37163C65.5444 3.62232 65.6374 5.6063 65.9755 8.02042C66.3103 10.4115 66.8734 13.1477 67.5144 15.8619C68.7962 21.2891 70.379 26.5838 71.0358 28.7731C72.3685 33.2152 72.4227 36.274 70.9833 38.9129C70.3779 40.0228 69.247 43.2182 68.8428 47.2867C68.4399 51.3431 68.7676 56.1903 70.9942 60.6434C73.4551 65.5652 71.8239 70.5534 68.3976 74.7661C64.9735 78.9761 59.6743 82.5366 54.4571 84.7567C47.0858 87.8934 44.0069 93.1631 43.1864 95.8754L124.781 108.245L163.865 109.548C164.312 108.994 164.886 107.79 165.07 105.774C165.277 103.512 164.987 100.284 163.52 95.9711C161.732 90.7115 157.406 87.0388 152.423 83.4247C151.597 82.8258 150.753 82.2283 149.901 81.6257C145.67 78.6314 141.255 75.5072 138.004 71.4206C134.123 66.541 132.673 62.9669 132.442 59.4749C132.328 57.7438 132.515 56.0636 132.82 54.2995C132.972 53.418 133.156 52.5081 133.347 51.5597L133.355 51.5209C133.544 50.5817 133.742 49.6018 133.929 48.5566C135.123 41.9042 132.854 34.0569 131.561 30.9677L131.418 30.6262L131.636 30.327C136.272 23.9658 138.598 16.8903 139.736 11.3367C140.305 8.56226 140.575 6.17591 140.689 4.46094C140.747 3.60317 140.765 2.91672 140.762 2.43651C140.761 2.24644 140.757 2.09217 140.751 1.97446C140.744 1.97378 140.737 1.97315 140.729 1.97256C140.545 1.95839 140.323 1.98247 140.18 2.01101L140.168 2.0134L140.156 2.01534C128.448 3.9094 121.838 10.8363 120.033 13.9599L119.714 14.5129L119.152 14.2092C116.5 12.7759 109.494 9.86043 102.803 9.68887C96.1845 9.51916 90.395 13.0283 88.3562 14.7859L87.7892 15.2747L87.3781 14.6491C84.9403 10.9393 79.6202 6.62266 74.7414 3.91217C72.3018 2.55688 70.042 1.64283 68.3636 1.38659C67.5205 1.25787 66.9007 1.30758 66.4914 1.47965ZM140.731 1.74475C140.731 1.74475 140.732 1.74876 140.734 1.75917C140.732 1.75034 140.731 1.74475 140.731 1.74475ZM88.0647 13.3305C85.326 9.53154 80.1071 5.38992 75.3795 2.76348C72.8913 1.38115 70.4699 0.378879 68.5619 0.0875907C67.6119 -0.0574469 66.7124 -0.038719 65.9821 0.268297C65.2067 0.594304 64.6846 1.22088 64.506 2.11393C64.2086 3.60086 64.3346 5.77804 64.6741 8.20265C65.0169 10.6503 65.5899 13.4304 66.2355 16.164C67.5271 21.6325 69.1199 26.9598 69.7772 29.1507C71.0726 33.4689 71.0184 36.1043 69.8297 38.2837C69.121 39.5829 67.9523 42.9577 67.5352 47.1568C67.1169 51.368 67.4462 56.4857 69.8188 61.231C71.9571 65.5076 70.6316 69.9368 67.3782 73.9369C64.1225 77.9398 59.0187 81.3875 53.9426 83.5476C45.5077 87.1369 42.2812 93.4482 41.7284 96.2913L41.5977 96.9636L124.66 109.556L164.394 110.88L164.593 110.693C165.374 109.957 166.154 108.353 166.379 105.894C166.606 103.411 166.277 99.9958 164.764 95.5481C162.83 89.8573 158.176 85.9742 153.194 82.361C152.341 81.7419 151.478 81.1306 150.615 80.5194C146.385 77.5243 142.155 74.5286 139.032 70.6026C135.249 65.8458 133.961 62.5211 133.753 59.3882C133.649 57.8067 133.818 56.2429 134.115 54.5233C134.264 53.663 134.443 52.7712 134.635 51.8195L134.643 51.7782C134.832 50.8412 135.033 49.8488 135.223 48.7888C136.439 42.014 134.266 34.2018 132.913 30.8032C137.551 24.3214 139.879 17.1853 141.024 11.6004C141.605 8.7627 141.882 6.31716 142 4.54852C142.059 3.66449 142.079 2.94619 142.076 2.42974C142.075 2.17238 142.068 1.95949 142.057 1.7984C142.052 1.71872 142.045 1.64368 142.035 1.57853V1.5739C142.03 1.53656 142.012 1.40974 141.953 1.29192C141.815 1.01572 141.581 0.865864 141.389 0.786511C141.199 0.707464 140.998 0.675335 140.83 0.662374C140.499 0.636881 140.158 0.676476 139.935 0.719972C128.421 2.58618 121.584 9.16136 119.227 12.7661C116.15 11.2106 109.388 8.54321 102.837 8.37524C96.3244 8.20826 90.6251 11.3578 88.0647 13.3305Z" fill="black"/>
    <path fill-rule="evenodd" clip-rule="evenodd" d="M97.0198 48.6455L97.8847 48.5625C97.9642 48.9113 98.3205 49.6219 98.872 50.3199C99.423 51.0171 100.096 51.6081 100.752 51.814C100.982 51.8865 101.111 52.1323 101.038 52.3631C100.966 52.5939 100.72 52.7223 100.489 52.6499C99.583 52.3653 98.7746 51.6096 98.1847 50.863C97.9392 50.5523 97.7189 50.227 97.5367 49.9148C97.3229 50.3244 97.0367 50.7071 96.7424 51.042C96.1506 51.7156 95.4528 52.2779 94.9842 52.5948C94.7838 52.7303 94.5115 52.6777 94.376 52.4773C94.2405 52.2769 94.2931 52.0046 94.4935 51.8691C94.9117 51.5863 95.5501 51.0718 96.0843 50.4638C96.6323 49.8401 97.0018 49.1956 97.0198 48.6455Z" fill="white"/>
    <path d="M79.4233 33.8012C80.6252 25.6499 86.182 22.543 87.7472 22.543C88.6516 22.543 91.6995 24.0401 92.1187 30.2081C92.5379 36.3762 90.5617 41.5262 87.2681 43.1431C83.9745 44.7599 77.844 44.5124 79.4233 33.8012Z" fill="white"/>
    <path fill-rule="evenodd" clip-rule="evenodd" d="M85.7439 22.7727C86.5274 22.3409 87.2461 22.1055 87.7471 22.1055C88.9842 22.1055 92.1289 23.8994 92.5556 30.1789C92.7687 33.3145 92.3746 36.2084 91.4954 38.5375C90.6185 40.8606 89.2417 42.6627 87.4611 43.5368C85.7444 44.3795 83.2027 44.7827 81.2705 43.4568C79.3115 42.1126 78.1926 39.1457 78.99 33.7378C79.6046 29.5693 81.337 26.6712 83.134 24.8115C84.0309 23.8833 84.9445 23.2131 85.7439 22.7727ZM83.764 25.4202C82.0908 27.1518 80.4438 29.8829 79.8566 33.8656C79.0747 39.169 80.2314 41.6814 81.7662 42.7345C83.3277 43.806 85.4981 43.5245 87.075 42.7504C88.588 42.0076 89.8461 40.4262 90.6759 38.2281C91.5034 36.0359 91.8877 33.2708 91.6816 30.2383C91.27 24.1817 88.3189 22.9815 87.7471 22.9815C87.4655 22.9815 86.9027 23.1344 86.1666 23.54C85.4463 23.9368 84.6021 24.5528 83.764 25.4202Z" fill="black"/>
    <path d="M105.696 34.389C105.491 26.4733 110.43 22.5516 111.97 22.274C112.861 22.1136 116.115 22.9876 117.578 28.7418C119.041 34.496 117.974 39.713 115.008 41.8251C112.042 43.9373 105.966 44.7908 105.696 34.389Z" fill="white"/>
    <path fill-rule="evenodd" clip-rule="evenodd" d="M110.04 22.8264C110.738 22.2793 111.403 21.9312 111.892 21.8431C113.096 21.626 116.507 22.7557 118.002 28.634C118.747 31.5634 118.852 34.373 118.383 36.7348C117.914 39.0919 116.864 41.041 115.261 42.1821C113.717 43.2817 111.291 44.1108 109.168 43.2027C107.005 42.2775 105.394 39.6609 105.258 34.4004C105.152 30.3447 106.366 27.2941 107.819 25.2164C108.544 24.1794 109.329 23.384 110.04 22.8264ZM108.537 25.7184C107.186 27.6498 106.033 30.5179 106.133 34.3778C106.267 39.5192 107.828 41.6768 109.513 42.3973C111.237 43.1348 113.331 42.4809 114.753 41.4685C116.116 40.4976 117.083 38.782 117.524 36.564C117.964 34.3507 117.871 31.6747 117.153 28.8499C115.722 23.2198 112.623 22.6015 112.048 22.7052C111.766 22.7559 111.236 23.0022 110.581 23.5158C109.939 24.019 109.214 24.7508 108.537 25.7184Z" fill="black"/>
    <path fill-rule="evenodd" clip-rule="evenodd" d="M216 113.012C212.726 109.583 208.151 108.494 204.93 108.564C204.446 108.574 204.046 108.19 204.035 107.707C204.025 107.223 204.409 106.822 204.892 106.812C208.46 106.735 213.565 107.924 217.267 111.803C221.007 115.721 223.154 122.21 221.101 132.39C221.005 132.864 220.543 133.171 220.069 133.076C219.594 132.98 219.287 132.518 219.383 132.044C221.359 122.25 219.236 116.402 216 113.012Z" fill="black"/>
    <path fill-rule="evenodd" clip-rule="evenodd" d="M218.198 171.642C218.68 171.6 219.105 171.956 219.148 172.438C219.627 177.853 219.675 186.07 218.241 193.117C217.525 196.638 216.427 199.932 214.78 202.444C213.123 204.973 210.866 206.768 207.863 207.112C207.382 207.168 206.948 206.823 206.893 206.342C206.837 205.861 207.182 205.427 207.663 205.372C210.004 205.103 211.851 203.717 213.315 201.484C214.789 199.234 215.83 196.185 216.524 192.768C217.913 185.942 217.873 177.907 217.403 172.592C217.36 172.11 217.716 171.685 218.198 171.642Z" fill="black"/>
    <path fill-rule="evenodd" clip-rule="evenodd" d="M202.301 207.592C202.358 208.072 202.014 208.508 201.534 208.564L196.456 209.164C195.976 209.22 195.54 208.877 195.483 208.396C195.427 207.916 195.77 207.48 196.251 207.424L201.328 206.824C201.809 206.768 202.244 207.111 202.301 207.592Z" fill="black"/>
    <path fill-rule="evenodd" clip-rule="evenodd" d="M120.659 85.4407C121.027 85.4648 121.327 85.5082 121.539 85.5789C121.99 85.7295 122.406 86.2024 122.796 86.8656C123.193 87.5417 123.591 88.4658 123.988 89.597C124.781 91.8609 125.578 94.9868 126.338 98.695C127.859 106.113 129.243 115.888 130.174 125.818C131.105 135.747 131.585 145.838 131.297 153.889C131.153 157.914 130.817 161.436 130.248 164.176C129.963 165.546 129.618 166.727 129.206 167.679C128.796 168.628 128.313 169.367 127.741 169.836C126.644 170.736 124.943 171.571 122.815 172.347C120.682 173.125 118.104 173.851 115.24 174.524C109.512 175.871 102.627 177.015 95.8483 177.96C85.8405 179.355 76.035 180.32 70.5459 180.859C68.691 181.042 67.329 181.176 66.6187 181.262C66.1277 181.912 64.9808 183.039 63.4567 184.432C61.8616 185.89 59.8335 187.656 57.6609 189.506C53.3153 193.207 48.386 197.249 45.1729 199.842L44.6873 200.234L44.8215 199.624C45.6971 195.648 46.9227 189.684 47.7541 184.715C48.17 182.23 48.4862 180 48.6113 178.393C48.6741 177.588 48.6878 176.951 48.6453 176.52C48.6238 176.302 48.5894 176.156 48.5508 176.07C48.538 176.042 48.5279 176.026 48.5216 176.018C48.3903 176.016 48.1645 175.99 47.8694 175.947C47.5546 175.901 47.146 175.833 46.6577 175.747C45.681 175.574 44.3804 175.325 42.8635 175.018C39.8295 174.405 35.9262 173.563 32.0091 172.645C28.0927 171.728 24.1595 170.734 21.067 169.819C19.5212 169.361 18.1815 168.922 17.1575 168.521C16.6457 168.32 16.2091 168.127 15.8634 167.945C15.5229 167.765 15.2517 167.585 15.0881 167.405C14.9911 167.299 14.9112 167.138 14.8409 166.954C14.7686 166.763 14.6985 166.525 14.6303 166.246C14.4937 165.686 14.3601 164.941 14.2301 164.041C13.9699 162.241 13.7213 159.802 13.4919 156.938C13.033 151.208 12.6496 143.765 12.4032 136.303C12.1567 128.841 12.0471 121.357 12.1361 115.545C12.1807 112.639 12.2749 110.148 12.4269 108.286C12.5028 107.356 12.5936 106.578 12.7007 105.982C12.7542 105.684 12.8125 105.427 12.8764 105.218C12.9391 105.013 13.0117 104.838 13.1009 104.713C13.1571 104.634 13.2399 104.566 13.3299 104.505C13.4226 104.442 13.5369 104.378 13.6693 104.314C13.9341 104.184 14.2866 104.044 14.7176 103.893C15.5805 103.591 16.7773 103.24 18.2582 102.849C21.2212 102.067 25.3376 101.121 30.2306 100.078C40.0174 97.9937 52.921 95.5226 65.9398 93.209C78.9586 90.8955 92.095 88.7391 102.347 87.2843C107.473 86.5569 111.88 86.0046 115.192 85.6957C116.848 85.5413 118.233 85.4474 119.299 85.4232C119.832 85.4112 120.288 85.4164 120.659 85.4407ZM48.5138 176.011C48.5138 176.011 48.5154 176.011 48.5178 176.014C48.5148 176.012 48.5138 176.011 48.5138 176.011ZM13.5755 104.867C13.503 104.916 13.4695 104.951 13.4573 104.968C13.4095 105.035 13.3534 105.156 13.2953 105.346C13.2383 105.533 13.1836 105.771 13.1318 106.059C13.0282 106.635 12.9389 107.397 12.8634 108.322C12.7126 110.17 12.6186 112.65 12.5741 115.551C12.4852 121.354 12.5946 128.831 12.8409 136.288C13.0872 143.746 13.4704 151.182 13.9286 156.903C14.1577 159.763 14.4053 162.192 14.6636 163.979C14.7928 164.873 14.924 165.602 15.0558 166.142C15.1218 166.412 15.1868 166.631 15.2503 166.798C15.3158 166.97 15.3723 167.067 15.4122 167.111C15.5224 167.232 15.7371 167.383 16.0679 167.557C16.3936 167.729 16.8138 167.915 17.3174 168.113C18.3245 168.508 19.6505 168.943 21.1913 169.399C24.2721 170.311 28.1959 171.302 32.109 172.219C36.0216 173.135 39.9205 173.977 42.9502 174.589C44.4652 174.895 45.762 175.144 46.7341 175.316C47.2202 175.402 47.624 175.468 47.9326 175.513C48.247 175.559 48.4486 175.58 48.5395 175.58C48.7564 175.58 48.8832 175.742 48.95 175.89C49.0183 176.041 49.0582 176.244 49.0812 176.477C49.1276 176.948 49.1112 177.616 49.048 178.427C48.9213 180.054 48.6025 182.299 48.1861 184.788C47.3945 189.518 46.247 195.145 45.3827 199.109C48.5911 196.515 53.2482 192.689 57.3769 189.173C59.5479 187.324 61.5715 185.561 63.1612 184.109C64.7585 182.649 65.8982 181.519 66.32 180.928L66.3758 180.85L66.4711 180.838C67.1676 180.751 68.5859 180.612 70.5444 180.419C76.0406 179.879 85.7918 178.92 95.7879 177.526C102.561 176.582 109.431 175.44 115.14 174.098C117.994 173.426 120.554 172.706 122.664 171.936C124.779 171.165 126.424 170.35 127.463 169.498C127.959 169.091 128.408 168.423 128.804 167.505C129.2 166.589 129.537 165.44 129.819 164.087C130.381 161.382 130.716 157.887 130.86 153.874C131.147 145.848 130.668 135.777 129.738 125.858C128.808 115.94 127.426 106.182 125.909 98.783C125.15 95.0826 124.358 91.9787 123.574 89.7419C123.182 88.6227 122.794 87.7286 122.418 87.0875C122.034 86.4336 121.688 86.0903 121.4 85.9945C121.243 85.942 120.989 85.9012 120.631 85.8778C120.277 85.8546 119.835 85.8492 119.309 85.8611C118.258 85.885 116.884 85.9778 115.233 86.1318C111.931 86.4398 107.532 86.991 102.409 87.718C92.1633 89.1719 79.0323 91.3273 66.0164 93.6403C53.0006 95.9533 40.1022 98.4235 30.3218 100.507C25.4313 101.549 21.3229 102.493 18.37 103.272C16.893 103.662 15.7092 104.01 14.8625 104.306C14.4387 104.455 14.1042 104.589 13.8614 104.707C13.74 104.767 13.6453 104.82 13.5755 104.867Z" fill="black"/>
    <path d="M89.7144 192.007C100.884 194.635 146.438 197.567 155.855 198.796C170.888 200.944 176.748 210.19 182.137 216.317C182.243 216.438 182.575 216.536 182.575 216.317C180.823 206.242 183.967 201.711 185.422 200.986C186.99 200.204 200.133 200.483 203.38 196.91C205.57 194.501 221.566 124.732 206.884 116.668C191.335 108.126 103.968 104.15 95.7238 106.898C87.48 109.646 78.9595 189.476 89.7144 192.007Z" fill="#6D2DF0"/>
    <mask id="mask0_2460_26891" style="mask-type:alpha" maskUnits="userSpaceOnUse" x="84" y="104" width="137" height="40">
      <path d="M91.4267 122.083C106.406 122.573 190.284 124.659 202.914 124.888C211.893 119.412 211.674 135.181 212.988 141.532C213.207 145.694 216.93 143.722 217.368 130.363C215.019 128.484 217.828 123.892 219.779 123.757C221.881 123.611 213.013 121.27 217.368 120.604C220.305 120.155 209.878 106.306 190.188 104.802C169.335 103.21 110.542 105.701 99.4858 106.214C88.4301 106.726 77.0034 121.611 91.4267 122.083Z" fill="#6D2DF0"/>
    </mask>
    <g mask="url(#mask0_2460_26891)">
      <path d="M88.4334 192C99.7154 194.627 145.729 197.559 155.241 198.787C170.425 200.934 176.344 210.179 181.787 216.303C181.895 216.424 182.23 216.522 182.229 216.303C180.46 206.231 183.636 201.702 185.105 200.977C186.689 200.195 199.965 200.474 203.245 196.902C205.457 194.494 221.614 124.744 206.784 116.681C191.078 108.142 102.83 104.167 94.5033 106.914C86.1764 109.661 77.57 189.47 88.4334 192Z" fill="#6D2DF0"/>
      <path fill-rule="evenodd" clip-rule="evenodd" d="M155.425 197.486L155.409 197.484C152.161 197.065 144.71 196.449 135.87 195.72C131.665 195.372 127.145 194.999 122.614 194.609C108.461 193.39 94.2568 192.007 88.7314 190.72C88.4547 190.656 88.0938 190.445 87.6791 189.88C87.2614 189.311 86.8542 188.467 86.4836 187.325C85.7432 185.042 85.2306 181.827 84.9382 177.926C84.355 170.145 84.6669 159.924 85.5809 149.655C86.4945 139.391 88.004 129.139 89.7953 121.305C90.6924 117.381 91.6501 114.109 92.6209 111.756C93.1074 110.577 93.5784 109.676 94.0183 109.051C94.4811 108.393 94.7979 108.201 94.915 108.162C95.2953 108.037 96.0107 107.902 97.1052 107.784C98.174 107.668 99.5256 107.576 101.13 107.508C104.338 107.372 108.503 107.335 113.335 107.394C122.997 107.514 135.274 108.019 147.787 108.876C160.301 109.734 173.03 110.943 183.598 112.467C188.883 113.229 193.61 114.068 197.493 114.977C201.403 115.892 204.356 116.857 206.157 117.836C207.61 118.626 208.825 120.254 209.746 122.792C210.661 125.315 211.224 128.576 211.488 132.37C212.015 139.951 211.329 149.401 210.103 158.741C208.878 168.068 207.122 177.224 205.536 184.194C204.742 187.679 203.994 190.607 203.379 192.728C203.07 193.791 202.8 194.636 202.578 195.241C202.467 195.545 202.375 195.771 202.302 195.926C202.27 195.994 202.248 196.036 202.236 196.058C201.662 196.65 200.537 197.207 198.893 197.671C197.259 198.132 195.32 198.447 193.381 198.681C191.886 198.862 190.428 198.991 189.132 199.105C188.748 199.139 188.378 199.172 188.026 199.204C187.266 199.274 186.576 199.344 186.02 199.423C185.531 199.492 184.94 199.593 184.524 199.798C183.885 200.114 183.256 200.725 182.709 201.51C182.145 202.319 181.609 203.396 181.196 204.752C180.584 206.761 180.235 209.397 180.464 212.737C175.506 206.864 168.99 199.404 155.425 197.486ZM180.705 215.057C180.857 215.236 181.009 215.413 181.161 215.588C181.37 215.831 181.579 216.069 181.787 216.303C181.807 216.326 181.835 216.348 181.868 216.367C182.008 216.45 182.23 216.481 182.229 216.303C182.209 216.189 182.19 216.075 182.171 215.962C182.124 215.677 182.08 215.396 182.04 215.12C182.01 214.91 181.982 214.703 181.956 214.498C180.846 205.686 183.727 201.657 185.105 200.977C185.591 200.737 187.176 200.597 189.235 200.415C193.891 200.004 200.971 199.379 203.245 196.902C205.457 194.494 221.614 124.744 206.784 116.681C191.078 108.142 102.83 104.167 94.5033 106.914C86.1764 109.661 77.57 189.47 88.4334 192C95.8999 193.739 118.578 195.611 135.821 197.034C144.632 197.762 152.024 198.372 155.241 198.787C168.542 200.668 174.733 207.995 179.723 213.9C180.055 214.293 180.382 214.679 180.705 215.057Z" fill="white"/>
    </g>
    <path fill-rule="evenodd" clip-rule="evenodd" d="M201.383 138.002C201.332 138.483 200.901 138.832 200.42 138.782L108.475 129.096C107.994 129.045 107.645 128.614 107.696 128.133C107.747 127.652 108.178 127.303 108.659 127.353L200.603 137.039C201.085 137.09 201.434 137.521 201.383 138.002Z" fill="white"/>
    <path fill-rule="evenodd" clip-rule="evenodd" d="M198.141 150.962C198.09 151.443 197.659 151.792 197.178 151.741L105.233 142.056C104.752 142.005 104.403 141.574 104.454 141.093C104.505 140.612 104.936 140.263 105.417 140.313L197.361 149.999C197.842 150.05 198.191 150.481 198.141 150.962Z" fill="white"/>
    <path fill-rule="evenodd" clip-rule="evenodd" d="M196.125 164.453C196.074 164.934 195.643 165.283 195.162 165.233L103.218 155.547C102.737 155.496 102.388 155.065 102.438 154.584C102.489 154.103 102.92 153.754 103.401 153.805L195.346 163.49C195.827 163.541 196.176 163.972 196.125 164.453Z" fill="white"/>
    <path fill-rule="evenodd" clip-rule="evenodd" d="M194.102 177.945C194.051 178.427 193.62 178.776 193.139 178.725L101.194 169.039C100.713 168.989 100.364 168.557 100.415 168.076C100.465 167.595 100.897 167.246 101.378 167.297L193.322 176.982C193.803 177.033 194.152 177.464 194.102 177.945Z" fill="white"/>
    <mask id="mask1_2460_26891" style="mask-type:alpha" maskUnits="userSpaceOnUse" x="84" y="106" width="130" height="111">
      <path d="M89.7144 192.007C100.884 194.635 146.438 197.567 155.855 198.796C170.888 200.944 176.748 210.19 182.137 216.317C182.243 216.438 182.575 216.536 182.575 216.317C180.823 206.242 183.967 201.711 185.422 200.986C186.99 200.204 200.133 200.483 203.38 196.91C205.57 194.501 221.566 124.732 206.884 116.668C191.335 108.126 103.968 104.15 95.7238 106.898C87.48 109.646 78.9595 189.476 89.7144 192.007Z" fill="#6D2DF0"/>
    </mask>
    <g mask="url(#mask1_2460_26891)">
      <path d="M68.4819 182.792C66.2133 185.051 53.4433 196.225 47.019 201.408C48.7711 193.451 51.9777 178.261 50.5232 177.536C48.9552 176.754 20.4815 172.567 17.2338 168.995C15.0437 166.586 10.6773 112.997 15.2627 106.577C18.9684 101.389 115.209 84.7754 123.453 87.5233C131.697 90.2712 138.127 164.395 129.585 171.404C121.044 178.412 73.7381 182.135 68.4819 182.792Z" fill="white"/>
    </g>
    <path d="M65.8882 180.703C63.6195 182.962 50.8495 194.136 44.4253 199.319C46.1774 191.362 49.3839 176.172 47.9294 175.447C46.3615 174.665 17.8877 170.478 14.6401 166.906C12.45 164.497 8.08358 110.908 12.669 104.488C16.3746 99.3003 112.616 82.6865 120.859 85.4344C129.103 88.1824 135.533 162.307 126.992 169.315C118.45 176.323 71.1444 180.046 65.8882 180.703Z" fill="white"/>
    <path fill-rule="evenodd" clip-rule="evenodd" d="M118.349 84.2629C119.513 84.291 120.487 84.3867 121.137 84.6034C121.911 84.8612 122.554 85.4877 123.094 86.2425C123.646 87.0139 124.164 88.0222 124.651 89.2068C125.628 91.5788 126.534 94.7837 127.353 98.5273C128.993 106.023 130.307 115.807 131.094 125.708C131.881 135.608 132.144 145.659 131.672 153.69C131.436 157.702 131.014 161.238 130.373 164.009C130.053 165.394 129.672 166.611 129.22 167.609C128.773 168.598 128.229 169.434 127.548 169.992C126.365 170.963 124.579 171.829 122.431 172.612C120.265 173.402 117.659 174.135 114.782 174.811C109.025 176.165 102.116 177.313 95.33 178.259C85.3041 179.656 75.416 180.629 69.9386 181.168C68.2755 181.331 67.019 181.455 66.2888 181.538C63.4922 184.239 51.2281 194.957 44.9764 200.001C44.6869 200.235 44.2815 200.26 43.9652 200.064C43.6489 199.868 43.4908 199.494 43.5708 199.131C44.4466 195.153 45.6824 189.384 46.5175 184.523C46.9357 182.089 47.2491 179.906 47.3693 178.299C47.4299 177.49 47.4383 176.864 47.3973 176.439C47.3866 176.327 47.3734 176.24 47.3604 176.175C47.2991 176.158 47.2198 176.136 47.1197 176.111C46.8411 176.041 46.4664 175.957 46.0031 175.86C45.0776 175.665 43.832 175.425 42.3608 175.146C41.9116 175.06 41.4418 174.972 40.9543 174.879C38.2553 174.369 35.0158 173.756 31.7389 173.081C27.8727 172.284 23.9335 171.396 20.7498 170.479C19.1592 170.021 17.738 169.551 16.601 169.074C15.5017 168.614 14.5399 168.097 13.9929 167.495C13.8219 167.307 13.7051 167.07 13.6221 166.872C13.5315 166.657 13.4465 166.402 13.3657 166.12C13.2036 165.556 13.0408 164.823 12.8785 163.957C12.5532 162.221 12.2182 159.883 11.8944 157.142C11.2462 151.658 10.6369 144.514 10.24 137.249C9.84321 129.985 9.65755 122.581 9.86001 116.581C9.96119 113.583 10.1598 110.916 10.4822 108.784C10.6433 107.718 10.8377 106.77 11.072 105.973C11.303 105.188 11.5881 104.496 11.9571 103.979C12.1717 103.679 12.4917 103.433 12.8158 103.228C13.1548 103.015 13.5716 102.802 14.0484 102.589C15.0028 102.163 16.2666 101.709 17.7815 101.232C20.8155 100.276 24.9363 99.2067 29.7808 98.0827C39.4745 95.8336 52.1267 93.3533 64.9129 91.1224C77.6995 88.8915 90.6338 86.9078 100.893 85.6533C106.021 85.0262 110.491 84.5799 113.945 84.3769C115.672 84.2755 117.156 84.234 118.349 84.2629ZM47.3187 176.028C47.3187 176.028 47.3207 176.031 47.3237 176.039C47.3198 176.032 47.3187 176.028 47.3187 176.028ZM13.7502 104.71C13.4923 104.873 13.3999 104.974 13.3829 104.997C13.1787 105.283 12.9606 105.762 12.7529 106.468C12.5484 107.163 12.3686 108.027 12.2146 109.046C11.9066 111.082 11.7112 113.674 11.6111 116.64C11.411 122.568 11.5941 129.916 11.9895 137.153C12.3847 144.388 12.9911 151.495 13.6343 156.937C13.9561 159.659 14.2857 161.953 14.6006 163.634C14.7583 164.476 14.9094 165.148 15.0497 165.637C15.1199 165.881 15.1832 166.065 15.2374 166.194C15.2747 166.283 15.2983 166.323 15.3036 166.332C15.5768 166.622 16.2117 167.011 17.2783 167.459C18.3262 167.898 19.6746 168.347 21.2346 168.796C24.352 169.693 28.2383 170.571 32.0925 171.365C35.3536 172.037 38.5768 172.647 41.2759 173.157C41.7646 173.25 42.2362 173.339 42.6876 173.424C44.1571 173.703 45.4186 173.947 46.3631 174.145C46.8347 174.244 47.2358 174.333 47.548 174.412C47.8271 174.483 48.1242 174.565 48.3214 174.663C48.7115 174.858 48.8888 175.217 48.9728 175.446C49.0652 175.699 49.114 175.986 49.1414 176.271C49.1966 176.846 49.1795 177.588 49.1165 178.43C48.9899 180.123 48.6649 182.371 48.2442 184.82C47.5624 188.788 46.6181 193.346 45.8183 197.049C52.5729 191.463 63.2428 182.102 65.2712 180.083C65.4087 179.946 65.5879 179.858 65.7805 179.834C66.5018 179.744 67.946 179.602 69.9322 179.407C75.4382 178.865 85.109 177.914 95.0881 176.523C101.853 175.58 108.701 174.442 114.381 173.106C117.221 172.438 119.753 171.724 121.83 170.966C123.924 170.203 125.485 169.419 126.437 168.638C126.824 168.32 127.231 167.755 127.624 166.887C128.012 166.029 128.361 164.931 128.666 163.614C129.276 160.979 129.689 157.552 129.923 153.587C130.389 145.662 130.131 135.697 129.348 125.847C128.565 115.996 127.259 106.296 125.642 98.9018C124.832 95.2003 123.951 92.1087 123.031 89.8737C122.571 88.7547 122.113 87.8819 121.669 87.2622C121.214 86.6259 120.841 86.3513 120.583 86.2656C120.203 86.1388 119.46 86.0423 118.306 86.0144C117.181 85.9872 115.75 86.026 114.048 86.126C110.647 86.3259 106.217 86.7673 101.105 87.3924C90.8846 88.6422 77.9812 90.6209 65.214 92.8484C52.4462 95.0761 39.8281 97.5502 30.1768 99.7894C25.3488 100.91 21.2784 101.967 18.3077 102.903C16.8204 103.371 15.6284 103.803 14.7619 104.189C14.3283 104.383 13.9933 104.557 13.7502 104.71Z" fill="black"/>
    <path fill-rule="evenodd" clip-rule="evenodd" d="M72.3113 187.436C70.9766 187.476 69.5108 188.054 68.5611 188.607C68.1674 188.837 67.6202 188.762 67.339 188.441C67.0578 188.12 67.149 187.674 67.5427 187.444C68.6371 186.807 70.4345 186.063 72.2463 186.008C73.172 185.98 74.1373 186.132 74.9984 186.602C75.8622 187.073 76.5399 187.82 76.9831 188.864C77.4108 189.872 77.5302 191.045 77.6422 192.145C77.6709 192.427 77.6991 192.704 77.7319 192.973C77.9005 194.353 78.1875 195.619 79.0722 196.691C80.7998 198.786 85.1833 200.53 97.5562 199.816C98.0388 199.788 98.4578 200.084 98.492 200.478C98.5261 200.871 98.1626 201.213 97.68 201.241C85.3049 201.955 79.9425 200.306 77.6184 197.489C76.4773 196.105 76.162 194.535 75.9884 193.114C75.948 192.784 75.9151 192.465 75.8833 192.158C75.7723 191.085 75.6758 190.152 75.3274 189.331C74.9821 188.518 74.5082 188.053 74.0242 187.789C73.5374 187.524 72.9587 187.416 72.3113 187.436Z" fill="black"/>
    <path fill-rule="evenodd" clip-rule="evenodd" d="M15.9098 93.6581C15.9169 94.1418 15.5305 94.5398 15.0468 94.5469C12.7912 94.5801 9.34904 95.6261 6.55205 98.7306C3.76893 101.82 1.5491 107.034 1.89262 115.536C1.91216 116.02 1.5361 116.428 1.05267 116.447C0.569243 116.467 0.161514 116.091 0.141981 115.607C-0.215322 106.764 2.09104 101.065 5.25036 97.5578C8.39581 94.0665 12.3123 92.8349 15.021 92.795C15.5048 92.7879 15.9027 93.1743 15.9098 93.6581Z" fill="black"/>
    <path fill-rule="evenodd" clip-rule="evenodd" d="M1.14986 120.403C1.63214 120.364 2.05442 120.724 2.09307 121.206L2.56534 127.1C2.60398 127.583 2.24434 128.005 1.76207 128.044C1.27979 128.082 0.857507 127.723 0.818865 127.24L0.346594 121.346C0.307953 120.864 0.66759 120.441 1.14986 120.403Z" fill="black"/>
    <path fill-rule="evenodd" clip-rule="evenodd" d="M115.731 104.616C115.798 105.095 115.465 105.538 114.986 105.606L23.44 118.527C22.9609 118.595 22.5177 118.261 22.4501 117.782C22.3825 117.303 22.716 116.86 23.1951 116.793L114.741 103.871C115.22 103.803 115.663 104.137 115.731 104.616Z" fill="black"/>
    <path fill-rule="evenodd" clip-rule="evenodd" d="M115.731 117.975C115.798 118.454 115.465 118.898 114.986 118.965L23.44 131.887C22.9609 131.954 22.5177 131.621 22.4501 131.142C22.3825 130.663 22.716 130.22 23.1951 130.152L114.741 117.23C115.22 117.163 115.663 117.496 115.731 117.975Z" fill="black"/>
    <path fill-rule="evenodd" clip-rule="evenodd" d="M117.043 131.554C117.111 132.034 116.777 132.477 116.298 132.544L24.7525 145.466C24.2734 145.534 23.8302 145.2 23.7626 144.721C23.695 144.242 24.0285 143.799 24.5076 143.731L116.053 130.809C116.532 130.742 116.976 131.075 117.043 131.554Z" fill="black"/>
    <path fill-rule="evenodd" clip-rule="evenodd" d="M118.356 145.133C118.423 145.612 118.09 146.055 117.611 146.122L26.065 159.044C25.5859 159.112 25.1427 158.778 25.0751 158.299C25.0075 157.82 25.341 157.377 25.8201 157.309L117.366 144.388C117.845 144.32 118.288 144.654 118.356 145.133Z" fill="black"/>
    <path fill-rule="evenodd" clip-rule="evenodd" d="M61.1152 91.8204C61.4285 91.6373 61.8309 91.7427 62.014 92.056C62.1206 92.2384 62.2208 92.5307 62.307 92.8351C62.3996 93.1622 62.4945 93.5716 62.575 94.0303C62.7352 94.9429 62.8446 96.0854 62.7489 97.1855L62.747 97.2075L62.7436 97.2292C61.4726 105.429 57.7185 109.145 53.7197 110.548C49.7963 111.924 45.8002 111.014 44.0677 110.291C41.2125 109.099 40.18 106.257 39.9801 103.442C39.7791 100.612 40.3939 97.5972 41.0513 95.6768C41.1688 95.3335 41.5424 95.1504 41.8857 95.268C42.229 95.3855 42.4121 95.7591 42.2945 96.1024C41.6784 97.9023 41.1054 100.737 41.2909 103.349C41.4775 105.978 42.4058 108.173 44.5739 109.078C46.1111 109.72 49.7598 110.545 53.2847 109.308C56.731 108.099 60.2255 104.859 61.4416 97.0501C61.521 96.1059 61.4275 95.0933 61.2807 94.2575C61.2072 93.8387 61.1219 93.4732 61.0426 93.193C61.0029 93.0528 60.9659 92.9382 60.9342 92.8515C60.9183 92.8083 60.9049 92.7748 60.8941 92.7503C60.8843 92.7279 60.8791 92.7185 60.8792 92.7185C60.696 92.4052 60.8019 92.0035 61.1152 91.8204Z" fill="white"/>
    <path d="M44.6649 109.227C39.8777 107.183 41.478 98.9967 42.6918 95.3695L49.1535 91.1191L60.3069 91.4058C60.5367 91.8079 60.7691 94.9785 60.8565 96.5135C58.4892 112.137 47.7811 110.558 44.6649 109.227Z" fill="#111111"/>
    <path fill-rule="evenodd" clip-rule="evenodd" d="M59.9752 90.8357C60.2903 90.6557 60.6916 90.7651 60.8717 91.0802C60.9399 91.1996 60.99 91.3471 61.0269 91.4697C61.0681 91.6065 61.1094 91.7699 61.1494 91.9508C61.2297 92.3136 61.3102 92.7709 61.3772 93.2746C61.5103 94.2757 61.596 95.5042 61.5054 96.5696L61.5036 96.591L61.5004 96.6124C60.2926 104.584 56.9192 108.332 53.2871 109.836C49.7156 111.314 46.0696 110.544 44.4011 109.832C41.619 108.644 40.838 105.615 40.8169 102.723C40.7954 99.7841 41.5457 96.6685 42.1662 94.8141L42.3747 94.1911L43.6209 94.6081L43.4124 95.2311C42.8191 97.0039 42.1108 99.9685 42.1309 102.714C42.1513 105.507 42.9122 107.767 44.9172 108.623C46.3649 109.242 49.6311 109.927 52.7845 108.622C55.8744 107.343 59.0357 104.074 60.1979 96.4371C60.2743 95.5076 60.2003 94.3931 60.0746 93.4478C60.0117 92.9747 59.9373 92.555 59.8664 92.2347C59.8309 92.0742 59.7975 91.9445 59.7686 91.8486C59.7421 91.7603 59.7274 91.7264 59.7274 91.7264C59.7274 91.7264 59.7286 91.7284 59.7307 91.7321C59.5507 91.4171 59.6602 91.0157 59.9752 90.8357Z" fill="#111111"/>
    <path d="M133.918 107.367C134.969 100.534 141.202 96.3148 145.847 95.2871L155.517 105.613C155.955 107.511 155.294 111.134 148.811 115.689C140.708 121.384 132.604 115.908 133.918 107.367Z" fill="#111111"/>
    <path fill-rule="evenodd" clip-rule="evenodd" d="M146.489 95.1451C146.567 95.4994 146.344 95.8502 145.99 95.9286C141.514 96.9188 135.565 100.987 134.568 107.467C133.947 111.507 135.554 114.732 138.172 116.303C140.784 117.87 144.554 117.878 148.434 115.152C154.818 110.665 155.228 107.28 154.878 105.761C154.796 105.407 155.017 105.054 155.37 104.973C155.724 104.891 156.077 105.112 156.158 105.465C156.684 107.743 155.77 111.603 149.189 116.227C144.965 119.195 140.632 119.312 137.495 117.43C134.364 115.551 132.577 111.768 133.269 107.267C134.375 100.081 140.891 95.7107 145.706 94.6455C146.06 94.5672 146.411 94.7908 146.489 95.1451Z" fill="white"/>
    <path d="M101.097 45.4489C102.132 43.4551 99.3482 42.9678 97.8268 42.9734C96.4365 42.8535 93.3253 42.8955 93.9205 45.006C94.3966 46.6944 96.4579 48.1758 97.429 48.7055C98.2207 48.4507 100.063 47.4427 101.097 45.4489Z" fill="white"/>
    <path fill-rule="evenodd" clip-rule="evenodd" d="M100.325 43.6575C99.6123 43.3089 98.5757 43.189 97.8278 43.1918H97.818L97.8081 43.1909C97.1201 43.1316 96.0281 43.1153 95.1913 43.3626C94.7726 43.4864 94.4473 43.6678 94.2581 43.914C94.0781 44.1482 93.9978 44.4719 94.1315 44.9459C94.3534 45.7329 94.9534 46.4919 95.6385 47.1293C96.2811 47.727 96.978 48.1988 97.4505 48.4662C98.2451 48.1805 99.9386 47.2063 100.903 45.3474C101.141 44.8888 101.142 44.5547 101.036 44.3056C100.926 44.0476 100.68 43.8311 100.325 43.6575ZM101.439 44.1335C101.611 44.5364 101.572 45.0108 101.292 45.5492C100.225 47.6057 98.3293 48.6453 97.4962 48.9133L97.4068 48.9421L97.3244 48.8971C96.8245 48.6245 96.0511 48.1113 95.3402 47.45C94.6329 46.7921 93.9641 45.9662 93.7099 45.0648C93.546 44.4835 93.6313 44.0105 93.9107 43.647C94.1809 43.2955 94.6086 43.0782 95.0671 42.9426C95.9804 42.6726 97.1328 42.6938 97.836 42.7537C98.6091 42.7519 99.7191 42.8735 100.517 43.264C100.919 43.4607 101.27 43.7395 101.439 44.1335Z" fill="black"/>
    <path d="M85.4875 28.6105C85.8895 28.2984 86.6051 28.279 87.066 28.3052C87.3074 28.3189 87.4697 28.5419 87.4298 28.7804C87.2676 29.7512 86.8545 32.1495 86.4667 33.796C86.1058 35.3281 85.4698 37.4704 85.1718 38.454C85.0896 38.7254 84.7747 38.8459 84.5313 38.7004L84.0611 38.4197C83.9141 38.3319 83.8317 38.1664 83.8502 37.9961L84.7246 29.9745C84.7275 29.9479 84.7327 29.922 84.741 29.8965C84.8 29.7151 85.0728 28.9326 85.4875 28.6105Z" fill="#6D2DF0"/>
    <path fill-rule="evenodd" clip-rule="evenodd" d="M86.3161 28.7647C86.0597 28.801 85.869 28.8689 85.7562 28.9565C85.6308 29.0538 85.4948 29.2542 85.3738 29.4999C85.2622 29.7263 85.1877 29.9401 85.1597 30.0254L84.2857 38.0436L84.7537 38.3231C85.0524 37.3372 85.6835 35.2106 86.0403 33.6956C86.4203 32.0825 86.8266 29.7311 86.9925 28.74C86.7875 28.7304 86.5453 28.7322 86.3161 28.7647ZM87.066 28.3052C86.6051 28.279 85.8895 28.2984 85.4875 28.6105C85.0728 28.9326 84.8 29.7151 84.741 29.8965C84.7327 29.922 84.7275 29.9479 84.7246 29.9745L83.8502 37.9961C83.8317 38.1664 83.9141 38.3319 84.0611 38.4197L84.5313 38.7004C84.7747 38.8459 85.0896 38.7254 85.1718 38.454C85.4698 37.4704 86.1058 35.3281 86.4667 33.796C86.8545 32.1495 87.2676 29.7512 87.4298 28.7804C87.4697 28.5419 87.3074 28.3189 87.066 28.3052Z" fill="#6D2DF0"/>
    <path d="M111.081 28.2203C111.45 27.8701 112.16 27.7804 112.622 27.7611C112.863 27.751 113.047 27.957 113.03 28.1982C112.964 29.1803 112.789 31.6076 112.565 33.2843C112.357 34.8444 111.935 37.0389 111.735 38.047C111.68 38.3252 111.378 38.4761 111.122 38.3553L110.626 38.1221C110.471 38.0492 110.373 37.8927 110.375 37.7214L110.456 29.6526C110.456 29.6259 110.459 29.5996 110.464 29.5734C110.505 29.3871 110.7 28.5815 111.081 28.2203Z" fill="#6D2DF0"/>
    <path fill-rule="evenodd" clip-rule="evenodd" d="M111.92 28.2921C111.669 28.3535 111.486 28.4399 111.382 28.5381C111.267 28.6473 111.151 28.8601 111.055 29.1165C110.966 29.3528 110.913 29.5729 110.894 29.6605L110.813 37.7258L111.306 37.9579C111.506 36.9474 111.925 34.769 112.131 33.2263C112.351 31.5836 112.524 29.2037 112.591 28.201C112.386 28.2117 112.145 28.2373 111.92 28.2921ZM112.622 27.7611C112.16 27.7804 111.45 27.8701 111.081 28.2203C110.7 28.5815 110.505 29.3871 110.464 29.5734C110.459 29.5996 110.456 29.6259 110.456 29.6526L110.375 37.7214C110.373 37.8927 110.471 38.0492 110.626 38.1221L111.122 38.3553C111.378 38.4761 111.68 38.3252 111.735 38.047C111.935 37.0389 112.357 34.8444 112.565 33.2843C112.789 31.6076 112.964 29.1803 113.03 28.1982C113.047 27.957 112.863 27.751 112.622 27.7611Z" fill="#6D2DF0"/>
  </g>
  <defs>
    <clipPath id="clip0_2460_26891">
      <rect width="222" height="236" fill="white"/>
    </clipPath>
  </defs>
</svg>