<svg xmlns="http://www.w3.org/2000/svg" width="188" height="210" viewBox="0 0 188 210" fill="none">
  <path d="M118.132 26.1248C113.128 36.2839 116.616 40.7821 118.985 41.7614L113.783 45.2948L103.871 39.3077C109.241 39.2259 111.845 34.0599 112.453 31.5303C115.569 20.2808 121.886 10.3031 126.526 4.95331C126.854 0.149403 133.569 -1.26994 137.281 3.20643C140.993 7.68279 133.484 11.6255 129.883 9.25634C126.282 6.88717 124.387 13.4261 118.132 26.1248Z" fill="#111111"/>
  <path fill-rule="evenodd" clip-rule="evenodd" d="M130.546 0.107792C132.907 -0.32015 135.695 0.51 137.666 2.88727C138.677 4.106 138.966 5.35096 138.683 6.49352C138.406 7.61277 137.602 8.54423 136.604 9.21378C135.601 9.88578 134.361 10.324 133.127 10.4379C131.895 10.5517 130.629 10.3449 129.609 9.67406C129.21 9.41166 128.871 9.29615 128.573 9.27931C128.281 9.26279 127.987 9.33871 127.669 9.53332C127.003 9.94085 126.285 10.8337 125.435 12.292C124.42 14.0341 123.291 16.4381 121.873 19.4602C120.923 21.4829 119.844 23.7824 118.581 26.3458C116.11 31.3635 115.772 34.9098 116.283 37.2802C116.793 39.6473 118.154 40.8766 119.177 41.2993L120.034 41.6537L113.8 45.8885L102.121 38.8343L103.864 38.8077C106.371 38.7695 108.239 37.5499 109.57 36.01C110.908 34.4612 111.679 32.6127 111.967 31.4135L111.969 31.4051L111.972 31.3968C115.087 20.1514 121.372 10.1756 126.042 4.74958C126.295 2.17406 128.232 0.527152 130.546 0.107792ZM130.724 1.09176C128.721 1.45482 127.171 2.8563 127.026 4.98733L127.015 5.15441L126.905 5.28093C122.307 10.5821 116.032 20.4916 112.938 31.6557C112.616 32.9861 111.781 34.9804 110.327 36.6638C109.134 38.0437 107.509 39.2305 105.403 39.6484L113.768 44.7011L118.024 41.8101C116.897 41.0621 115.773 39.6589 115.306 37.4909C114.731 34.8275 115.152 31.0452 117.684 25.9039C118.917 23.4003 119.986 21.1236 120.935 19.104C122.375 16.0371 123.537 13.5632 124.571 11.7883C125.427 10.3206 126.25 9.2293 127.147 8.68028C127.611 8.39662 128.104 8.25117 128.63 8.28091C129.15 8.31034 129.657 8.50876 130.159 8.83864C130.94 9.3524 131.962 9.54122 133.035 9.44215C134.106 9.34327 135.186 8.96025 136.047 8.38316C136.911 7.80363 137.513 7.05817 137.713 6.25321C137.906 5.47157 137.742 4.54505 136.897 3.5256C135.156 1.42651 132.73 0.728148 130.724 1.09176Z" fill="#111111"/>
  <path d="M65.3555 30.212C71.8324 39.5014 69.0622 44.4737 66.8675 45.7986L75.4254 46.9098L81.4393 41.0963C76.1185 41.8243 72.7663 37.1095 71.7842 34.7004C67.0088 24.0486 59.2607 15.1363 53.8677 10.5465C52.8203 5.84675 45.9685 5.45502 42.973 10.4395C39.9776 15.4239 47.9944 18.1906 51.1975 15.3061C54.4007 12.4215 57.2594 18.6003 65.3555 30.212Z" fill="#111111"/>
  <path fill-rule="evenodd" clip-rule="evenodd" d="M49.1637 6.36161C46.7651 6.2942 44.1341 7.53482 42.5433 10.1819C41.7277 11.539 41.6293 12.8133 42.081 13.9002C42.5236 14.965 43.4587 15.7647 44.5469 16.2762C45.6391 16.7895 46.9313 17.0359 48.1682 16.9626C49.4032 16.8895 50.6239 16.4944 51.5309 15.6776C51.8857 15.3581 52.2039 15.1928 52.4954 15.1313C52.7815 15.071 53.0838 15.1018 53.4276 15.2462C54.1476 15.5488 54.9913 16.3234 56.0514 17.6369C57.3178 19.2062 58.7955 21.4128 60.6531 24.1868C61.8964 26.0433 63.3099 28.1541 64.9441 30.498C68.1432 35.0862 69.0112 38.5412 68.8631 40.9615C68.7152 43.3784 67.5553 44.7986 66.6079 45.3706L65.3828 46.1102L75.5986 47.4367L82.8842 40.3938L81.3703 40.6009C78.8862 40.9408 76.8559 40.0165 75.3083 38.6946C73.7519 37.3651 72.7116 35.6537 72.2459 34.5116L72.2427 34.5037L72.2392 34.4958C67.4655 23.8479 59.7497 14.9327 54.315 10.2721C53.6775 7.76397 51.5142 6.42767 49.1637 6.36161ZM49.1356 7.36122C51.1705 7.41841 52.9138 8.57044 53.3784 10.6553L53.4149 10.8187L53.5424 10.9273C58.8864 15.4754 66.5824 24.3266 71.3233 34.8972C71.8413 36.164 72.967 38.0098 74.6588 39.4549C76.0778 40.667 77.914 41.611 80.1262 41.6691L75.2498 46.383L68.0808 45.4521C68.9757 44.5192 69.7374 43.0452 69.8612 41.0225C70.0276 38.3031 69.0423 34.6272 65.7644 29.9261C64.1683 27.6368 62.7684 25.5471 61.5266 23.6934C59.641 20.8784 58.1199 18.6077 56.8295 17.0089C55.7626 15.6868 54.785 14.7319 53.815 14.3243C53.3139 14.1137 52.8041 14.0443 52.2891 14.1528C51.7796 14.2602 51.3078 14.5329 50.8617 14.9345C50.1671 15.56 49.1846 15.9007 48.1091 15.9644C47.0356 16.0279 45.9102 15.812 44.9723 15.3711C44.0303 14.9284 43.3227 14.2822 43.0045 13.5164C42.6954 12.7729 42.7182 11.8322 43.4004 10.697C44.8051 8.35967 47.0976 7.30393 49.1356 7.36122Z" fill="#111111"/>
  <path fill-rule="evenodd" clip-rule="evenodd" d="M21.5722 107.568C25.8301 68.7917 58.6946 38.623 98.6055 38.623C137.491 38.623 169.688 67.2621 175.254 104.599C180.653 121.224 182.105 138.784 182.105 150.623C182.105 183.208 144.945 209.623 99.1055 209.623C53.2658 209.623 16.1055 183.208 16.1055 150.623C16.1055 139.646 17.297 123.412 21.5722 107.568Z" fill="#111111"/>
  <path d="M140.105 44.623C137.305 47.423 134.272 47.4564 133.105 47.123L150.205 69.0257L171.97 92.772C171.57 89.972 171.574 89.3426 172.105 88.6231C188.505 72.2231 188.272 40.1231 186.105 26.123C184.905 20.523 182.605 20.1231 181.105 20.123C159.105 21.623 143.605 41.123 140.105 44.623Z" fill="#111111"/>
  <path d="M49.7051 49.713C52.8288 52.1466 55.8431 51.8059 56.9598 51.3314L39.3019 78.2692L24.0167 101.421C24.0687 98.5934 23.9868 97.9693 23.3707 97.3207C5.07483 83.0666 1.35098 51.1824 1.77604 37.0221C2.27686 31.3169 4.51004 30.6366 5.99861 30.4517C28.0158 29.2294 45.8005 46.6709 49.7051 49.713Z" fill="#111111"/>
  <path d="M113.927 132.574C113.778 106.222 135.513 91.0376 158.589 100.863C157.547 127.959 130.005 137.189 113.927 132.574Z" fill="#E4D8FF"/>
  <path d="M113.927 132.574C113.778 106.222 135.513 91.0376 158.589 100.863C157.547 127.959 130.005 137.189 113.927 132.574Z" fill="url(#paint0_linear_2515_28672)"/>
  <path d="M122.52 134.955C119.416 134.955 116.392 134.566 113.586 133.761C113.06 133.61 112.696 133.129 112.692 132.581C112.617 119.258 118.025 107.991 127.531 101.669C136.485 95.7141 147.981 95.0053 159.074 99.7281C159.545 99.9288 159.844 100.4 159.823 100.911C159.283 114.959 151.983 123.108 145.954 127.471C139.284 132.296 130.633 134.955 122.52 134.955ZM115.165 131.628C124.476 133.945 136.14 131.525 144.506 125.471C149.968 121.518 156.556 114.204 157.314 101.672C147.248 97.6443 136.937 98.3766 128.897 103.724C120.319 109.43 115.345 119.564 115.165 131.628Z" fill="#E4D8FF"/>
  <path d="M147.424 117.353C149.665 117.353 151.481 115.536 151.481 113.295C151.481 111.055 149.665 109.238 147.424 109.238C145.184 109.238 143.367 111.055 143.367 113.295C143.367 115.536 145.184 117.353 147.424 117.353Z" fill="white"/>
  <path d="M143.849 119.827C143.849 121.194 142.741 122.302 141.374 122.302C140.007 122.302 138.898 121.194 138.898 119.827C138.898 118.46 140.007 117.352 141.374 117.352C142.741 117.352 143.849 118.46 143.849 119.827Z" fill="white"/>
  <path d="M82.276 132.575C82.4249 106.223 60.6888 91.0386 37.6133 100.864C38.6555 127.96 66.1977 137.189 82.276 132.575Z" fill="#E4D8FF"/>
  <path d="M82.276 132.575C82.4249 106.223 60.6888 91.0386 37.6133 100.864C38.6555 127.96 66.1977 137.189 82.276 132.575Z" fill="url(#paint1_linear_2515_28672)"/>
  <path d="M73.6822 134.955C65.568 134.955 56.9188 132.297 50.249 127.472C44.2206 123.109 36.9202 114.96 36.3799 100.912C36.3597 100.4 36.6581 99.9294 37.1297 99.7287C48.2178 95.0059 59.7194 95.7127 68.6738 101.67C78.1793 107.992 83.5865 119.259 83.5111 132.582C83.5077 133.13 83.1432 133.61 82.6177 133.761C79.811 134.566 76.7854 134.955 73.6822 134.955ZM38.8888 101.672C39.6474 114.204 46.235 121.519 51.6968 125.471C60.063 131.526 71.7271 133.947 81.0372 131.628C80.8573 119.565 75.8846 109.432 67.3068 103.725C59.2701 98.3799 48.9548 97.6435 38.8888 101.672Z" fill="#E4D8FF"/>
  <path d="M69.5298 117.353C71.7705 117.353 73.5869 115.536 73.5869 113.295C73.5869 111.055 71.7705 109.238 69.5298 109.238C67.2891 109.238 65.4727 111.055 65.4727 113.295C65.4727 115.536 67.2891 117.353 69.5298 117.353Z" fill="white"/>
  <path d="M65.9544 119.827C65.9544 121.194 64.8461 122.302 63.4791 122.302C62.1122 122.302 61.0039 121.194 61.0039 119.827C61.0039 118.46 62.1122 117.352 63.4791 117.352C64.8461 117.352 65.9544 118.46 65.9544 119.827Z" fill="white"/>
  <path fill-rule="evenodd" clip-rule="evenodd" d="M99.7123 161.264C99.8229 161.262 99.9309 161.279 100.033 161.312C100.208 161.367 100.359 161.468 100.475 161.599C100.537 161.669 100.59 161.748 100.631 161.834C100.671 161.917 100.699 162.005 100.715 162.097C101.139 164.215 102.146 168.875 102.867 171.057C103.268 172.271 104.019 173.367 105.317 174.183C106.63 175.01 108.575 175.592 111.425 175.631C115.606 175.688 118.114 172.382 118.833 170.69C119.049 170.182 119.636 169.945 120.145 170.161C120.653 170.377 120.89 170.964 120.674 171.472C119.797 173.534 116.735 177.703 111.398 177.631C108.301 177.589 105.965 176.954 104.252 175.876C102.523 174.789 101.501 173.296 100.968 171.685C100.61 170.601 100.195 168.98 99.8111 167.346C99.4805 168.992 99.118 170.626 98.7955 171.72C98.3157 173.348 97.3423 174.873 95.6498 176.016C93.9727 177.149 91.6588 177.859 88.5643 178.002C83.2327 178.248 80.0364 174.18 79.0937 172.148C78.8612 171.647 79.0789 171.052 79.5799 170.82C80.0809 170.587 80.6754 170.805 80.9079 171.306C81.6818 172.974 84.296 176.196 88.4722 176.004C91.3201 175.872 93.2446 175.227 94.5306 174.359C95.8013 173.501 96.5156 172.381 96.8771 171.154C97.527 168.95 98.3824 164.259 98.7374 162.129C98.75 162.037 98.7755 161.947 98.8123 161.863C98.8506 161.776 98.9008 161.695 98.9606 161.624C99.0728 161.489 99.2207 161.383 99.3937 161.322C99.4944 161.286 99.6018 161.266 99.7123 161.264Z" fill="white"/>
  <path d="M110.809 151.488C110.809 154.676 103.68 163.172 99.8477 163.172C95.9616 163.172 88.8867 154.676 88.8867 151.488C88.8867 148.299 93.7941 145.715 99.8477 145.715C105.901 145.715 110.809 148.299 110.809 151.488Z" fill="white"/>
  <path fill-rule="evenodd" clip-rule="evenodd" d="M92.3301 147.848C90.4088 148.86 89.3867 150.171 89.3867 151.488C89.3867 152.143 89.767 153.172 90.4851 154.407C91.1894 155.618 92.1741 156.952 93.2827 158.192C94.3919 159.433 95.6122 160.567 96.7822 161.385C97.9697 162.216 99.0345 162.672 99.8477 162.672C100.646 162.672 101.704 162.217 102.89 161.385C104.058 160.567 105.28 159.433 106.393 158.192C107.505 156.951 108.495 155.617 109.203 154.406C109.926 153.171 110.309 152.142 110.309 151.488C110.309 150.171 109.286 148.86 107.365 147.848C105.467 146.848 102.81 146.215 99.8477 146.215C96.8854 146.215 94.2284 146.848 92.3301 147.848ZM91.8641 146.963C93.9329 145.874 96.7564 145.215 99.8477 145.215C102.939 145.215 105.762 145.874 107.831 146.963C109.877 148.041 111.309 149.616 111.309 151.488C111.309 152.428 110.8 153.656 110.066 154.911C109.319 156.189 108.287 157.577 107.137 158.859C105.989 160.14 104.711 161.33 103.464 162.204C102.236 163.065 100.965 163.672 99.8477 163.672C98.7178 163.672 97.4409 163.066 96.2089 162.204C94.9595 161.33 93.6824 160.14 92.5371 158.859C91.3912 157.576 90.3643 156.188 89.6207 154.91C88.8908 153.655 88.3867 152.427 88.3867 151.488C88.3867 149.616 89.8183 148.041 91.8641 146.963Z" fill="#111111"/>
  <defs>
    <linearGradient id="paint0_linear_2515_28672" x1="159.004" y1="101" x2="114.004" y2="132" gradientUnits="userSpaceOnUse">
      <stop stop-color="#6D2DF0"/>
      <stop offset="1" stop-color="#915AFF"/>
    </linearGradient>
    <linearGradient id="paint1_linear_2515_28672" x1="37.9961" y1="101.5" x2="81.9961" y2="132.5" gradientUnits="userSpaceOnUse">
      <stop stop-color="#6D2DF0"/>
      <stop offset="1" stop-color="#915AFF"/>
    </linearGradient>
  </defs>
</svg>